<svg width="1920" height="181" viewBox="0 0 1920 181" fill="none" xmlns="http://www.w3.org/2000/svg">
<g clip-path="url(#clip0_178_2177)">
<path d="M2009.13 -1.32422C2009.13 0.704424 2007.55 2.28226 2005.51 2.28226C2003.48 2.28226 2001.9 0.704424 2001.9 -1.32422H1995.58C1995.58 0.704424 1993.99 2.28226 1991.96 2.28226C1989.93 2.28226 1988.35 0.704424 1988.35 -1.32422H1982.02C1982.02 0.704424 1980.44 2.28226 1978.41 2.28226C1976.38 2.28226 1974.8 0.704424 1974.8 -1.32422H1968.47C1968.47 0.704424 1966.89 2.28226 1964.86 2.28226C1962.83 2.28226 1961.24 0.704424 1961.24 -1.32422H1954.92C1954.92 0.704424 1953.34 2.28226 1951.31 2.28226C1949.27 2.28226 1947.69 0.704424 1947.69 -1.32422H1941.37C1941.37 0.704424 1939.79 2.28226 1937.75 2.28226C1935.72 2.28226 1934.14 0.704424 1934.14 -1.32422H1927.82C1927.82 0.704424 1926.23 2.28226 1924.2 2.28226C1922.17 2.28226 1920.59 0.704424 1920.59 -1.32422H1914.26C1914.26 0.704424 1912.68 2.28226 1910.65 2.28226C1908.62 2.28226 1907.04 0.704424 1907.04 -1.32422H1900.71C1900.71 0.704424 1899.13 2.28226 1897.1 2.28226C1895.07 2.28226 1893.48 0.704424 1893.48 -1.32422H1887.16C1887.16 0.704424 1885.58 2.28226 1883.55 2.28226C1881.51 2.28226 1879.93 0.704424 1879.93 -1.32422H1873.61C1873.61 0.704424 1872.03 2.28226 1869.99 2.28226C1867.96 2.28226 1866.38 0.704424 1866.38 -1.32422H1860.06C1860.06 0.704424 1858.47 2.28226 1856.44 2.28226C1854.41 2.28226 1852.83 0.704424 1852.83 -1.32422H1846.5C1846.5 0.704424 1844.92 2.28226 1842.89 2.28226C1840.86 2.28226 1839.28 0.704424 1839.28 -1.32422H1832.95C1832.95 0.704424 1831.37 2.28226 1829.34 2.28226C1827.31 2.28226 1825.72 0.704424 1825.72 -1.32422H1819.4C1819.4 0.704424 1817.82 2.28226 1815.79 2.28226C1813.75 2.28226 1812.17 0.704424 1812.17 -1.32422H1805.85C1805.85 0.704424 1804.27 2.28226 1802.23 2.28226C1800.2 2.28226 1798.62 0.704424 1798.62 -1.32422H1792.3C1792.3 0.704424 1790.71 2.28226 1788.68 2.28226C1786.65 2.28226 1785.07 0.704424 1785.07 -1.32422H1778.74C1778.74 0.704424 1777.16 2.28226 1775.13 2.28226C1773.1 2.28226 1771.52 0.704424 1771.52 -1.32422H1765.19C1765.19 0.704424 1763.61 2.28226 1761.58 2.28226C1759.55 2.28226 1757.96 0.704424 1757.96 -1.32422H1756.61H1751.64H1751.41C1751.41 0.704424 1749.83 2.28226 1747.8 2.28226C1745.77 2.28226 1744.19 0.704424 1744.19 -1.32422H1742.61H1736.51H1736.28C1736.28 0.704424 1734.7 2.28226 1732.67 2.28226C1730.63 2.28226 1729.05 0.704424 1729.05 -1.32422H1728.83H1722.73H1722.5C1722.5 0.704424 1720.92 2.28226 1718.89 2.28226C1716.86 2.28226 1715.28 0.704424 1715.28 -1.32422H1715.05H1708.95H1708.73C1708.73 0.704424 1707.14 2.28226 1705.11 2.28226C1703.08 2.28226 1701.5 0.704424 1701.5 -1.32422H1701.27H1695.17H1694.95C1694.95 0.704424 1693.37 2.28226 1691.33 2.28226C1689.3 2.28226 1687.72 0.704424 1687.72 -1.32422H1687.49H1681.4H1681.62C1681.62 0.704424 1680.04 2.28226 1678.01 2.28226C1675.97 2.28226 1674.39 0.704424 1674.39 -1.32422H1674.17H1668.07C1668.07 0.704424 1666.49 2.28226 1664.46 2.28226C1662.42 2.28226 1660.84 0.704424 1660.84 -1.32422H1660.62H1654.52C1654.52 0.704424 1652.94 2.28226 1650.9 2.28226C1648.87 2.28226 1647.29 0.704424 1647.29 -1.32422H1647.06H1640.97H1640.74C1640.74 0.704424 1639.16 2.28226 1637.13 2.28226C1635.09 2.28226 1633.51 0.704424 1633.51 -1.32422H1633.29H1627.41H1627.19C1627.19 0.704424 1625.61 2.28226 1623.57 2.28226C1621.54 2.28226 1619.96 0.704424 1619.96 -1.32422H1619.73H1613.86H1613.64C1613.64 0.704424 1612.05 2.28226 1610.02 2.28226C1607.99 2.28226 1606.41 0.704424 1606.41 -1.32422H1606.18H1600.31H1600.08C1600.08 0.704424 1598.5 2.28226 1596.47 2.28226C1594.44 2.28226 1592.86 0.704424 1592.86 -1.32422H1592.63H1586.53H1586.31C1586.31 0.704424 1584.72 2.28226 1582.69 2.28226C1580.66 2.28226 1579.08 0.704424 1579.08 -1.32422H1578.85H1572.75H1572.53C1572.53 0.704424 1570.95 2.28226 1568.91 2.28226C1566.88 2.28226 1565.3 0.704424 1565.3 -1.32422H1565.07H1558.98H1558.75C1558.75 0.704424 1557.17 2.28226 1555.14 2.28226C1553.1 2.28226 1551.52 0.704424 1551.52 -1.32422H1551.3H1545.2H1544.97C1544.97 0.704424 1543.39 2.28226 1541.36 2.28226C1539.33 2.28226 1537.74 0.704424 1537.74 -1.32422H1537.52H1531.42H1531.19C1531.19 0.704424 1529.61 2.28226 1527.58 2.28226C1525.55 2.28226 1523.97 0.704424 1523.97 -1.32422H1523.74H1517.64H1517.42C1517.42 0.704424 1515.84 2.28226 1513.8 2.28226C1511.77 2.28226 1510.19 0.704424 1510.19 -1.32422H1509.96H1505.45H1503.64C1503.64 0.704424 1502.06 2.28226 1500.02 2.28226C1497.99 2.28226 1496.41 0.704424 1496.41 -1.32422H1495.28H1490.09C1490.09 0.704424 1488.51 2.28226 1486.47 2.28226C1484.44 2.28226 1482.86 0.704424 1482.86 -1.32422H1476.53C1476.53 0.704424 1474.95 2.28226 1472.92 2.28226C1470.89 2.28226 1469.31 0.704424 1469.31 -1.32422H1469.08H1462.98C1462.98 0.704424 1461.4 2.28226 1459.37 2.28226C1457.34 2.28226 1455.75 0.704424 1455.75 -1.32422H1449.43C1449.43 0.704424 1447.85 2.28226 1445.82 2.28226C1443.78 2.28226 1442.2 0.704424 1442.2 -1.32422H1435.88C1435.88 0.704424 1434.3 2.28226 1432.26 2.28226C1430.23 2.28226 1428.65 0.704424 1428.65 -1.32422H1422.33C1422.33 0.704424 1420.75 2.28226 1418.71 2.28226C1416.68 2.28226 1415.1 0.704424 1415.1 -1.32422H1408.77C1408.77 0.704424 1407.19 2.28226 1405.16 2.28226C1403.13 2.28226 1401.55 0.704424 1401.55 -1.32422H1395.22C1395.22 0.704424 1393.64 2.28226 1391.61 2.28226C1389.58 2.28226 1387.99 0.704424 1387.99 -1.32422H1381.67C1381.67 0.704424 1380.09 2.28226 1378.06 2.28226C1376.02 2.28226 1374.44 0.704424 1374.44 -1.32422H1368.12C1368.12 0.704424 1366.54 2.28226 1364.5 2.28226C1362.47 2.28226 1360.89 0.704424 1360.89 -1.32422H1354.57C1354.57 0.704424 1352.99 2.28226 1350.95 2.28226C1348.92 2.28226 1347.34 0.704424 1347.34 -1.32422H1341.01C1341.01 0.704424 1339.43 2.28226 1337.4 2.28226C1335.37 2.28226 1333.79 0.704424 1333.79 -1.32422H1327.46C1327.46 0.704424 1325.88 2.28226 1323.85 2.28226C1321.82 2.28226 1320.23 0.704424 1320.23 -1.32422H1313.91C1313.91 0.704424 1312.33 2.28226 1310.3 2.28226C1308.26 2.28226 1306.68 0.704424 1306.68 -1.32422H1300.36C1300.36 0.704424 1298.78 2.28226 1296.74 2.28226C1294.71 2.28226 1293.13 0.704424 1293.13 -1.32422H1286.35C1286.35 0.704424 1284.77 2.28226 1282.74 2.28226C1280.71 2.28226 1279.13 0.704424 1279.13 -1.32422H1272.8C1272.8 0.704424 1271.22 2.28226 1269.19 2.28226C1267.16 2.28226 1265.57 0.704424 1265.57 -1.32422H1259.25C1259.25 0.704424 1257.67 2.28226 1255.64 2.28226C1253.6 2.28226 1252.02 0.704424 1252.02 -1.32422H1245.7C1245.7 0.704424 1244.12 2.28226 1242.08 2.28226C1240.05 2.28226 1238.47 0.704424 1238.47 -1.32422H1237.12H1232.15H1231.92C1231.92 0.704424 1230.34 2.28226 1228.31 2.28226C1226.27 2.28226 1224.69 0.704424 1224.69 -1.32422H1224.47H1218.37H1218.14C1218.14 0.704424 1216.56 2.28226 1214.53 2.28226C1212.5 2.28226 1210.92 0.704424 1210.92 -1.32422H1210.69H1204.59H1204.36C1204.36 0.704424 1202.78 2.28226 1200.75 2.28226C1198.72 2.28226 1197.14 0.704424 1197.14 -1.32422H1196.91H1190.81H1190.59C1190.59 0.704424 1189.01 2.28226 1186.97 2.28226C1184.94 2.28226 1183.36 0.704424 1183.36 -1.32422H1183.13H1177.04H1176.81C1176.81 0.704424 1175.23 2.28226 1173.2 2.28226C1171.16 2.28226 1169.58 0.704424 1169.58 -1.32422H1169.36H1163.26H1163.03C1163.03 0.704424 1161.45 2.28226 1159.42 2.28226C1157.38 2.28226 1155.8 0.704424 1155.8 -1.32422H1155.58H1149.48H1149.25C1149.25 0.704424 1147.67 2.28226 1145.64 2.28226C1143.61 2.28226 1142.03 0.704424 1142.03 -1.32422H1141.8H1135.7H1135.48C1135.48 0.704424 1133.89 2.28226 1131.86 2.28226C1129.83 2.28226 1128.25 0.704424 1128.25 -1.32422H1128.02H1121.92H1121.7C1121.7 0.704424 1120.12 2.28226 1118.08 2.28226C1116.05 2.28226 1114.47 0.704424 1114.47 -1.32422H1114.24H1108.15H1107.92C1107.92 0.704424 1106.34 2.28226 1104.31 2.28226C1102.27 2.28226 1100.69 0.704424 1100.69 -1.32422H1100.47H1094.37H1094.14C1094.14 0.704424 1092.56 2.28226 1090.53 2.28226C1088.5 2.28226 1086.91 0.704424 1086.91 -1.32422H1086.69H1080.59H1080.36C1080.36 0.704424 1078.78 2.28226 1076.75 2.28226C1074.72 2.28226 1073.14 0.704424 1073.14 -1.32422H1072.91H1066.81H1066.59C1066.59 0.704424 1065.01 2.28226 1062.97 2.28226C1060.94 2.28226 1059.36 0.704424 1059.36 -1.32422H1059.13H1053.03H1052.81C1052.81 0.704424 1051.23 2.28226 1049.19 2.28226C1047.16 2.28226 1045.58 0.704424 1045.58 -1.32422H1045.35H1039.26H1039.03C1039.03 0.704424 1037.45 2.28226 1035.42 2.28226C1033.38 2.28226 1031.8 0.704424 1031.8 -1.32422H1031.58H1025.48H1025.25C1025.25 0.704424 1023.67 2.28226 1021.64 2.28226C1019.61 2.28226 1018.03 0.704424 1018.03 -1.32422H1019.83H1019.61H1014.41H1013.96H1013.73C1013.73 0.479019 1012.38 2.05685 1010.35 2.28226C1008.54 2.05685 1007.18 0.479019 1007.18 -1.32422H1006.73H1006.28H1000.63H1000.18H999.956C999.956 0.479019 998.601 2.05685 996.568 2.28226C994.761 2.05685 993.406 0.479019 993.406 -1.32422H992.954H992.728H988.211H987.307H986.63C986.63 0.479019 985.274 2.05685 983.242 2.28226C981.435 2.05685 979.854 0.479019 979.854 -1.32422H979.176H973.529H972.852C972.852 0.479019 971.497 2.05685 969.464 2.28226C967.657 2.05685 966.076 0.479019 966.076 -1.32422H965.398H959.751H959.074C959.074 0.479019 957.719 2.05685 955.686 2.28226C953.879 2.05685 952.298 0.479019 952.298 -1.32422H951.62H951.394H945.974C945.974 0.704424 944.393 2.28226 942.36 2.28226C940.327 2.28226 938.746 0.704424 938.746 -1.32422H932.422C932.422 0.704424 930.841 2.28226 928.808 2.28226C926.775 2.28226 925.194 0.704424 925.194 -1.32422H918.87C918.87 0.704424 917.289 2.28226 915.256 2.28226C913.223 2.28226 911.642 0.704424 911.642 -1.32422H905.318C905.318 0.704424 903.737 2.28226 901.704 2.28226C899.671 2.28226 898.09 0.704424 898.09 -1.32422H891.766C891.766 0.704424 890.185 2.28226 888.152 2.28226C886.119 2.28226 884.538 0.704424 884.538 -1.32422H878.214C878.214 0.704424 876.633 2.28226 874.6 2.28226C872.567 2.28226 870.986 0.704424 870.986 -1.32422H864.662C864.662 0.704424 863.081 2.28226 861.048 2.28226C859.015 2.28226 857.434 0.704424 857.434 -1.32422H851.11C851.11 0.704424 849.529 2.28226 847.496 2.28226C845.463 2.28226 843.882 0.704424 843.882 -1.32422H837.558C837.558 0.704424 835.977 2.28226 833.944 2.28226C831.911 2.28226 830.33 0.704424 830.33 -1.32422H824.006C824.006 0.704424 822.425 2.28226 820.392 2.28226C818.359 2.28226 816.778 0.704424 816.778 -1.32422H809.776C809.776 0.704424 808.195 2.28226 806.162 2.28226C804.129 2.28226 802.548 0.704424 802.548 -1.32422H796.224C796.224 0.704424 794.643 2.28226 792.61 2.28226C790.577 2.28226 788.996 0.704424 788.996 -1.32422H782.672C782.672 0.704424 781.091 2.28226 779.058 2.28226C777.025 2.28226 775.444 0.704424 775.444 -1.32422H769.12C769.12 0.704424 767.539 2.28226 765.506 2.28226C763.473 2.28226 761.892 0.704424 761.892 -1.32422H760.537H755.568H755.342C755.342 0.704424 753.761 2.28226 751.728 2.28226C749.695 2.28226 748.114 0.704424 748.114 -1.32422H747.889H741.79H741.564C741.564 0.704424 739.983 2.28226 737.95 2.28226C735.918 2.28226 734.337 0.704424 734.337 -1.32422H734.111H728.012H727.786C727.786 0.704424 726.205 2.28226 724.173 2.28226C722.14 2.28226 720.559 0.704424 720.559 -1.32422H720.333H714.234H714.009C714.009 0.704424 712.428 2.28226 710.395 2.28226C708.362 2.28226 706.781 0.704424 706.781 -1.32422H706.555H700.457H700.231C700.231 0.704424 698.65 2.28226 696.617 2.28226C694.584 2.28226 693.003 0.704424 693.003 -1.32422H692.777H686.679H686.453C686.453 0.704424 684.872 2.28226 682.839 2.28226C680.806 2.28226 679.225 0.704424 679.225 -1.32422H678.999H672.901H672.675C672.675 0.704424 671.094 2.28226 669.061 2.28226C667.028 2.28226 665.447 0.704424 665.447 -1.32422H665.221H659.123H658.897C658.897 0.704424 657.316 2.28226 655.283 2.28226C653.25 2.28226 651.669 0.704424 651.669 -1.32422H651.443H645.345H645.119C645.119 0.704424 643.538 2.28226 641.505 2.28226C639.473 2.28226 637.891 0.704424 637.891 -1.32422H637.666H631.567H631.341C631.341 0.704424 629.76 2.28226 627.727 2.28226C625.695 2.28226 624.114 0.704424 624.114 -1.32422H623.888H617.789H617.563C617.563 0.704424 615.982 2.28226 613.95 2.28226C611.917 2.28226 610.336 0.704424 610.336 -1.32422H610.11H604.011H603.786C603.786 0.704424 602.205 2.28226 600.172 2.28226C598.139 2.28226 596.558 0.704424 596.558 -1.32422H596.332H590.234H590.008C590.008 0.704424 588.427 2.28226 586.394 2.28226C584.361 2.28226 582.78 0.704424 582.78 -1.32422H582.554H576.456H576.23C576.23 0.704424 574.649 2.28226 572.616 2.28226C570.583 2.28226 569.002 0.704424 569.002 -1.32422H568.776H562.678H562.452C562.452 0.704424 560.871 2.28226 558.838 2.28226C556.805 2.28226 555.224 0.704424 555.224 -1.32422H554.998H548.9H548.674C548.674 0.704424 547.093 2.28226 545.06 2.28226C543.028 2.28226 541.446 0.704424 541.446 -1.32422H543.253H537.155H536.929C536.929 0.704424 535.348 2.28226 533.315 2.28226C531.282 2.28226 529.701 0.704424 529.701 -1.32422H523.603H523.377C523.377 0.704424 521.796 2.28226 519.763 2.28226C517.73 2.28226 516.149 0.704424 516.149 -1.32422H515.923H511.406H509.599C509.599 0.704424 508.018 2.28226 505.985 2.28226C503.953 2.28226 502.371 0.704424 502.371 -1.32422H501.242H496.047C496.047 0.704424 494.466 2.28226 492.433 2.28226C490.401 2.28226 488.82 0.704424 488.82 -1.32422H482.495C482.495 0.704424 480.914 2.28226 478.881 2.28226C476.849 2.28226 475.268 0.704424 475.268 -1.32422H475.042H468.717C468.717 0.704424 467.136 2.28226 465.103 2.28226C463.071 2.28226 461.49 0.704424 461.49 -1.32422H455.165C455.165 0.704424 453.584 2.28226 451.551 2.28226C449.519 2.28226 447.938 0.704424 447.938 -1.32422H441.613C441.613 0.704424 440.032 2.28226 438 2.28226C435.967 2.28226 434.386 0.704424 434.386 -1.32422H428.061C428.061 0.704424 426.48 2.28226 424.448 2.28226C422.415 2.28226 420.834 0.704424 420.834 -1.32422H414.509C414.509 0.704424 412.928 2.28226 410.896 2.28226C408.863 2.28226 407.282 0.704424 407.282 -1.32422H400.957C400.957 0.704424 399.376 2.28226 397.344 2.28226C395.311 2.28226 393.73 0.704424 393.73 -1.32422H387.405C387.405 0.704424 385.824 2.28226 383.792 2.28226C381.759 2.28226 380.178 0.704424 380.178 -1.32422H373.853C373.853 0.704424 372.272 2.28226 370.24 2.28226C368.207 2.28226 366.626 0.704424 366.626 -1.32422H360.301C360.301 0.704424 358.72 2.28226 356.688 2.28226C354.655 2.28226 353.074 0.704424 353.074 -1.32422H346.749C346.749 0.704424 345.168 2.28226 343.136 2.28226C341.103 2.28226 339.522 0.704424 339.522 -1.32422H333.197C333.197 0.704424 331.616 2.28226 329.584 2.28226C327.551 2.28226 325.97 0.704424 325.97 -1.32422H319.645C319.645 0.704424 318.064 2.28226 316.032 2.28226C313.999 2.28226 312.418 0.704424 312.418 -1.32422H306.093C306.093 0.704424 304.512 2.28226 302.48 2.28226C300.447 2.28226 298.866 0.704424 298.866 -1.32422H292.541C292.541 0.704424 290.96 2.28226 288.928 2.28226C286.895 2.28226 285.314 0.704424 285.314 -1.32422H278.989C278.989 0.704424 277.408 2.28226 275.376 2.28226C273.343 2.28226 271.762 0.704424 271.762 -1.32422H265.437C265.437 0.704424 263.856 2.28226 261.824 2.28226C259.791 2.28226 258.21 0.704424 258.21 -1.32422H251.885C251.885 0.704424 250.304 2.28226 248.272 2.28226C246.239 2.28226 244.658 0.704424 244.658 -1.32422H243.302H238.333H238.108C238.108 0.704424 236.526 2.28226 234.494 2.28226C232.461 2.28226 230.88 0.704424 230.88 -1.32422H230.654H224.556H224.33C224.33 0.704424 222.749 2.28226 220.716 2.28226C218.683 2.28226 217.102 0.704424 217.102 -1.32422H216.876H210.778H210.552C210.552 0.704424 208.971 2.28226 206.938 2.28226C204.905 2.28226 203.324 0.704424 203.324 -1.32422H202.195H196.096H195.87C195.87 0.704424 194.289 2.28226 192.257 2.28226C190.224 2.28226 188.643 0.704424 188.643 -1.32422H182.544H182.318C182.318 0.704424 180.737 2.28226 178.705 2.28226C176.672 2.28226 175.091 0.704424 175.091 -1.32422H168.992H168.766C168.766 0.704424 167.185 2.28226 165.153 2.28226C163.12 2.28226 161.539 0.704424 161.539 -1.32422H161.313H155.214H154.989C154.989 0.704424 153.408 2.28226 151.375 2.28226C149.342 2.28226 147.761 0.704424 147.761 -1.32422H147.535H141.437H141.211C141.211 0.704424 139.63 2.28226 137.597 2.28226C135.564 2.28226 133.983 0.704424 133.983 -1.32422H133.757H127.659H127.433C127.433 0.704424 125.852 2.28226 123.819 2.28226C121.786 2.28226 120.205 0.704424 120.205 -1.32422H119.979H113.881H114.107C114.107 0.704424 112.526 2.28226 110.493 2.28226C108.46 2.28226 106.879 0.704424 106.879 -1.32422H106.653H100.555C100.555 0.704424 98.9737 2.28226 96.9409 2.28226C94.9081 2.28226 93.327 0.704424 93.327 -1.32422H93.1012H87.0028H86.7769C86.7769 0.704424 85.1958 2.28226 83.163 2.28226C81.1302 2.28226 79.5492 0.704424 79.5492 -1.32422H79.3233H73.4508H73.2249C73.2249 0.704424 71.6438 2.28226 69.611 2.28226C67.5782 2.28226 65.9972 0.704424 65.9972 -1.32422H65.7713H59.8988H59.6729C59.6729 0.704424 58.0919 2.28226 56.0591 2.28226C54.0263 2.28226 52.4452 0.704424 52.4452 -1.32422H52.2193H46.3468H46.1209C46.1209 0.704424 44.5398 2.28226 42.507 2.28226C40.4743 2.28226 38.8932 0.704424 38.8932 -1.32422H38.6673H32.5689H32.3431C32.3431 0.704424 30.762 2.28226 28.7292 2.28226C26.6964 2.28226 25.1153 0.704424 25.1153 -1.32422H24.8895H18.7911H18.5652C18.5652 0.704424 16.9841 2.28226 14.9513 2.28226C12.9185 2.28226 11.3375 0.704424 11.3375 -1.32422H11.1116H5.0132H4.78733C4.78733 0.704424 3.20626 2.28226 1.17346 2.28226C-0.859338 2.28226 -2.44041 0.704424 -2.44041 -1.32422H-2.66627H-7.18361H-8.99054C-8.99054 0.704424 -10.5716 2.28226 -12.6044 2.28226C-14.6372 2.28226 -16.2183 0.704424 -16.2183 -1.32422H-22.0908C-22.0908 0.704424 -23.6719 2.28226 -25.7047 2.28226C-27.7375 2.28226 -29.3185 0.704424 -29.3185 -1.32422H-35.8687C-35.8687 0.704424 -37.4497 2.28226 -39.4825 2.28226C-41.5153 2.28226 -43.0964 0.704424 -43.0964 -1.32422H-43.3223V178.323H-43.0964C-43.0964 176.295 -41.5153 174.717 -39.4825 174.717C-37.4497 174.717 -35.8687 176.295 -35.8687 178.323H-29.5444C-29.5444 176.295 -27.9633 174.717 -25.9305 174.717C-23.8977 174.717 -22.3167 176.295 -22.3167 178.323H-15.9924C-15.9924 176.295 -14.4113 174.717 -12.3785 174.717C-10.3457 174.717 -8.76467 176.295 -8.76467 178.323H-6.95774H-2.44041H-2.21454C-2.21454 176.295 -0.633469 174.717 1.39933 174.717C3.43213 174.717 5.0132 176.295 5.0132 178.323H5.23906H11.3375H11.5633C11.5633 176.295 13.1444 174.717 15.1772 174.717C17.21 174.717 18.7911 176.295 18.7911 178.323H19.0169H25.1153H25.3412C25.3412 176.295 26.9223 174.717 28.9551 174.717C30.9879 174.717 32.5689 176.295 32.5689 178.323H32.7948H38.8932H39.1191C39.1191 176.295 40.7001 174.717 42.7329 174.717C44.7657 174.717 46.3468 176.295 46.3468 178.323H52.4452H52.6711C52.6711 176.295 54.2521 174.717 56.2849 174.717C58.3177 174.717 59.8988 176.295 59.8988 178.323H65.9972H66.223C66.223 176.295 67.8041 174.717 69.8369 174.717C71.8697 174.717 73.4508 176.295 73.4508 178.323H79.5492H79.775C79.775 176.295 81.3561 174.717 83.3889 174.717C85.4217 174.717 87.0028 176.295 87.0028 178.323H87.2286H93.327H93.5529C93.5529 176.295 95.134 174.717 97.1668 174.717C99.1996 174.717 100.781 176.295 100.781 178.323H101.007H107.105H107.331C107.331 176.295 108.912 174.717 110.945 174.717C112.977 174.717 114.558 176.295 114.558 178.323H114.784H120.883H121.109C121.109 176.295 122.69 174.717 124.722 174.717C126.755 174.717 128.336 176.295 128.336 178.323H128.562H134.661H134.435C134.435 176.295 136.016 174.717 138.049 174.717C140.081 174.717 141.662 176.295 141.662 178.323H141.888H147.987C147.987 176.295 149.568 174.717 151.601 174.717C153.633 174.717 155.214 176.295 155.214 178.323H155.44H161.539C161.539 176.295 163.12 174.717 165.153 174.717C167.185 174.717 168.766 176.295 168.766 178.323H168.992H175.091H175.317C175.317 176.295 176.898 174.717 178.93 174.717C180.963 174.717 182.544 176.295 182.544 178.323H182.77H188.869H189.094C189.094 176.295 190.676 174.717 192.708 174.717C194.741 174.717 196.322 176.295 196.322 178.323H196.548H202.646H202.872C202.872 176.295 204.453 174.717 206.486 174.717C208.519 174.717 210.1 176.295 210.1 178.323H210.326H216.424H216.65C216.65 176.295 218.231 174.717 220.264 174.717C222.297 174.717 223.878 176.295 223.878 178.323H224.104H230.202H230.428C230.428 176.295 232.009 174.717 234.042 174.717C236.075 174.717 237.656 176.295 237.656 178.323H237.882H242.851H244.206C244.206 176.295 245.787 174.717 247.82 174.717C249.853 174.717 251.434 176.295 251.434 178.323H257.758C257.758 176.295 259.339 174.717 261.372 174.717C263.405 174.717 264.986 176.295 264.986 178.323H271.31C271.31 176.295 272.891 174.717 274.924 174.717C276.957 174.717 278.538 176.295 278.538 178.323H284.862C284.862 176.295 286.443 174.717 288.476 174.717C290.509 174.717 292.09 176.295 292.09 178.323H298.414C298.414 176.295 299.995 174.717 302.028 174.717C304.061 174.717 305.642 176.295 305.642 178.323H311.966C311.966 176.295 313.547 174.717 315.58 174.717C317.613 174.717 319.194 176.295 319.194 178.323H325.518C325.518 176.295 327.099 174.717 329.132 174.717C331.165 174.717 332.746 176.295 332.746 178.323H339.07C339.07 176.295 340.651 174.717 342.684 174.717C344.717 174.717 346.298 176.295 346.298 178.323H352.622C352.622 176.295 354.203 174.717 356.236 174.717C358.269 174.717 359.85 176.295 359.85 178.323H366.174C366.174 176.295 367.755 174.717 369.788 174.717C371.821 174.717 373.402 176.295 373.402 178.323H379.726C379.726 176.295 381.307 174.717 383.34 174.717C385.373 174.717 386.954 176.295 386.954 178.323H393.278C393.278 176.295 394.859 174.717 396.892 174.717C398.925 174.717 400.506 176.295 400.506 178.323H406.83C406.83 176.295 408.411 174.717 410.444 174.717C412.477 174.717 414.058 176.295 414.058 178.323H420.382C420.382 176.295 421.963 174.717 423.996 174.717C426.029 174.717 427.61 176.295 427.61 178.323H433.934C433.934 176.295 435.515 174.717 437.548 174.717C439.581 174.717 441.162 176.295 441.162 178.323H447.486C447.486 176.295 449.067 174.717 451.1 174.717C453.133 174.717 454.714 176.295 454.714 178.323H461.038C461.038 176.295 462.619 174.717 464.652 174.717C466.685 174.717 468.266 176.295 468.266 178.323H474.364H474.59C474.59 176.295 476.171 174.717 478.204 174.717C480.237 174.717 481.818 176.295 481.818 178.323H488.142C488.142 176.295 489.723 174.717 491.756 174.717C493.789 174.717 495.37 176.295 495.37 178.323H500.565H501.694C501.694 176.295 503.275 174.717 505.308 174.717C507.341 174.717 508.922 176.295 508.922 178.323H510.729H515.246H515.472C515.472 176.295 517.053 174.717 519.086 174.717C521.118 174.717 522.699 176.295 522.699 178.323H522.925H529.024H529.25C529.25 176.295 530.831 174.717 532.863 174.717C534.896 174.717 536.477 176.295 536.477 178.323H536.703H542.802H543.028C543.028 176.295 544.609 174.717 546.641 174.717C548.674 174.717 550.255 176.295 550.255 178.323H550.481H556.58H556.805C556.805 176.295 558.386 174.717 560.419 174.717C562.452 174.717 564.033 176.295 564.033 178.323H564.259H570.357H570.583C570.583 176.295 572.164 174.717 574.197 174.717C576.23 174.717 577.811 176.295 577.811 178.323H578.037H584.135H584.361C584.361 176.295 585.942 174.717 587.975 174.717C590.008 174.717 591.589 176.295 591.589 178.323H591.815H597.913H598.139C598.139 176.295 599.72 174.717 601.753 174.717C603.786 174.717 605.367 176.295 605.367 178.323H605.593H611.691H611.917C611.917 176.295 613.498 174.717 615.531 174.717C617.564 174.717 619.145 176.295 619.145 178.323H619.37H625.469H625.695C625.695 176.295 627.276 174.717 629.309 174.717C631.341 174.717 632.922 176.295 632.922 178.323H633.148H639.247H639.473C639.473 176.295 641.054 174.717 643.086 174.717C645.119 174.717 646.7 176.295 646.7 178.323H646.926H653.025H653.25C653.25 176.295 654.831 174.717 656.864 174.717C658.897 174.717 660.478 176.295 660.478 178.323H660.704H666.802H667.028C667.028 176.295 668.609 174.717 670.642 174.717C672.675 174.717 674.256 176.295 674.256 178.323H674.482H680.58H680.806C680.806 176.295 682.387 174.717 684.42 174.717C686.453 174.717 688.034 176.295 688.034 178.323H688.26H694.358H694.584C694.584 176.295 696.165 174.717 698.198 174.717C700.231 174.717 701.812 176.295 701.812 178.323H702.038H708.136H708.362C708.362 176.295 709.943 174.717 711.976 174.717C714.009 174.717 715.59 176.295 715.59 178.323H715.815H721.914H722.14C722.14 176.295 723.721 174.717 725.754 174.717C727.786 174.717 729.367 176.295 729.367 178.323H729.593H735.692H735.918C735.918 176.295 737.499 174.717 739.531 174.717C741.564 174.717 743.145 176.295 743.145 178.323H743.371H749.47H749.695C749.695 176.295 751.277 174.717 753.309 174.717C755.342 174.717 756.923 176.295 756.923 178.323H757.149H762.118H763.473C763.473 176.295 765.054 174.717 767.087 174.717C769.12 174.717 770.701 176.295 770.701 178.323H777.025C777.025 176.295 778.606 174.717 780.639 174.717C782.672 174.717 784.253 176.295 784.253 178.323H790.577C790.577 176.295 792.158 174.717 794.191 174.717C796.224 174.717 797.805 176.295 797.805 178.323H804.129C804.129 176.295 805.71 174.717 807.743 174.717C809.776 174.717 811.357 176.295 811.357 178.323H817.681C817.681 176.295 819.262 174.717 821.295 174.717C823.328 174.717 824.909 176.295 824.909 178.323H831.233C831.233 176.295 832.814 174.717 834.847 174.717C836.88 174.717 838.461 176.295 838.461 178.323H844.785C844.785 176.295 846.366 174.717 848.399 174.717C850.432 174.717 852.013 176.295 852.013 178.323H858.337C858.337 176.295 859.918 174.717 861.951 174.717C863.984 174.717 865.565 176.295 865.565 178.323H871.889C871.889 176.295 873.47 174.717 875.503 174.717C877.536 174.717 879.117 176.295 879.117 178.323H885.441C885.441 176.295 887.022 174.717 889.055 174.717C891.088 174.717 892.669 176.295 892.669 178.323H898.993C898.993 176.295 900.574 174.717 902.607 174.717C904.64 174.717 906.221 176.295 906.221 178.323H912.545C912.545 176.295 914.126 174.717 916.159 174.717C918.192 174.717 919.773 176.295 919.773 178.323H926.097C926.097 176.295 927.678 174.717 929.711 174.717C931.744 174.717 933.325 176.295 933.325 178.323H939.649C939.649 176.295 941.23 174.717 943.263 174.717C945.296 174.717 946.877 176.295 946.877 178.323H952.072H952.298H952.975C952.975 176.52 954.331 174.942 956.363 174.717C958.17 174.942 959.751 176.52 959.751 178.323H960.429H966.076H966.753C966.753 176.52 968.108 174.942 970.141 174.717C971.948 174.942 973.529 176.52 973.529 178.323H974.207H979.854H980.531C980.531 176.52 981.886 174.942 983.919 174.717C985.726 174.942 987.307 176.52 987.307 178.323H987.985H988.888H993.406H993.631H994.083C994.083 176.52 995.438 174.942 997.245 174.717C999.052 174.942 1000.63 176.52 1000.63 178.323H1000.86H1001.31H1006.96H1007.18H1007.64C1007.64 176.52 1008.99 174.942 1010.8 174.717C1012.6 174.942 1014.19 176.52 1014.19 178.323H1014.41H1014.86H1020.06H1020.28H1020.51C1020.51 176.295 1022.09 174.717 1024.12 174.717C1026.16 174.717 1027.74 176.295 1027.74 178.323H1027.96H1034.06H1034.29C1034.29 176.295 1035.87 174.717 1037.9 174.717C1039.93 174.717 1041.52 176.295 1041.52 178.323H1041.74H1047.84H1048.07C1048.07 176.295 1049.65 174.717 1051.68 174.717C1053.71 174.717 1055.29 176.295 1055.29 178.323H1055.52H1061.62H1061.84C1061.84 176.295 1063.42 174.717 1065.46 174.717C1067.49 174.717 1069.07 176.295 1069.07 178.323H1069.3H1075.4H1075.62C1075.62 176.295 1077.2 174.717 1079.23 174.717C1081.27 174.717 1082.85 176.295 1082.85 178.323H1083.07H1089.17H1089.4C1089.4 176.295 1090.98 174.717 1093.01 174.717C1095.05 174.717 1096.63 176.295 1096.63 178.323H1096.85H1102.95H1103.18C1103.18 176.295 1104.76 174.717 1106.79 174.717C1108.82 174.717 1110.4 176.295 1110.4 178.323H1110.63H1116.73H1116.95C1116.95 176.295 1118.54 174.717 1120.57 174.717C1122.6 174.717 1124.18 176.295 1124.18 178.323H1124.41H1130.51H1130.73C1130.73 176.295 1132.31 174.717 1134.35 174.717C1136.38 174.717 1137.96 176.295 1137.96 178.323H1138.19H1144.28H1144.51C1144.51 176.295 1146.09 174.717 1148.12 174.717C1150.16 174.717 1151.74 176.295 1151.74 178.323H1151.96H1158.06H1158.29C1158.29 176.295 1159.87 174.717 1161.9 174.717C1163.93 174.717 1165.52 176.295 1165.52 178.323H1165.74H1171.84H1172.07C1172.07 176.295 1173.65 174.717 1175.68 174.717C1177.71 174.717 1179.29 176.295 1179.29 178.323H1179.52H1185.62H1185.84C1185.84 176.295 1187.42 174.717 1189.46 174.717C1191.49 174.717 1193.07 176.295 1193.07 178.323H1193.3H1199.4H1199.62C1199.62 176.295 1201.2 174.717 1203.24 174.717C1205.27 174.717 1206.85 176.295 1206.85 178.323H1207.08H1213.17H1213.4C1213.4 176.295 1214.98 174.717 1217.01 174.717C1219.05 174.717 1220.63 176.295 1220.63 178.323H1220.85H1226.95H1227.18C1227.18 176.295 1228.76 174.717 1230.79 174.717C1232.82 174.717 1234.41 176.295 1234.41 178.323H1234.63H1239.6H1240.96C1240.96 176.295 1242.54 174.717 1244.57 174.717C1246.6 174.717 1248.18 176.295 1248.18 178.323H1254.51C1254.51 176.295 1256.09 174.717 1258.12 174.717C1260.15 174.717 1261.74 176.295 1261.74 178.323H1268.06C1268.06 176.295 1269.64 174.717 1271.67 174.717C1273.71 174.717 1275.29 176.295 1275.29 178.323H1281.61C1281.61 176.295 1283.19 174.717 1285.23 174.717C1287.26 174.717 1288.84 176.295 1288.84 178.323H1295.16C1295.16 176.295 1296.74 174.717 1298.78 174.717C1300.81 174.717 1302.39 176.295 1302.39 178.323H1308.72C1308.72 176.295 1310.3 174.717 1312.33 174.717C1314.36 174.717 1315.94 176.295 1315.94 178.323H1322.27C1322.27 176.295 1323.85 174.717 1325.88 174.717C1327.91 174.717 1329.5 176.295 1329.5 178.323H1335.82C1335.82 176.295 1337.4 174.717 1339.43 174.717C1341.47 174.717 1343.05 176.295 1343.05 178.323H1349.37C1349.37 176.295 1350.95 174.717 1352.99 174.717C1355.02 174.717 1356.6 176.295 1356.6 178.323H1362.92C1362.92 176.295 1364.5 174.717 1366.54 174.717C1368.57 174.717 1370.15 176.295 1370.15 178.323H1376.48C1376.48 176.295 1378.06 174.717 1380.09 174.717C1382.12 174.717 1383.7 176.295 1383.7 178.323H1390.03C1390.03 176.295 1391.61 174.717 1393.64 174.717C1395.67 174.717 1397.26 176.295 1397.26 178.323H1403.58C1403.58 176.295 1405.16 174.717 1407.19 174.717C1409.23 174.717 1410.81 176.295 1410.81 178.323H1417.13C1417.13 176.295 1418.71 174.717 1420.75 174.717C1422.78 174.717 1424.36 176.295 1424.36 178.323H1430.68C1430.68 176.295 1432.26 174.717 1434.3 174.717C1436.33 174.717 1437.91 176.295 1437.91 178.323H1444.24C1444.24 176.295 1445.82 174.717 1447.85 174.717C1449.88 174.717 1451.46 176.295 1451.46 178.323H1457.79C1457.79 176.295 1459.37 174.717 1461.4 174.717C1463.43 174.717 1465.02 176.295 1465.02 178.323H1471.11H1471.34C1471.34 176.295 1472.92 174.717 1474.95 174.717C1476.99 174.717 1478.57 176.295 1478.57 178.323H1484.89C1484.89 176.295 1486.47 174.717 1488.51 174.717C1490.54 174.717 1492.12 176.295 1492.12 178.323H1497.31H1498.44C1498.44 176.295 1500.02 174.717 1502.06 174.717C1504.09 174.717 1505.67 176.295 1505.67 178.323H1507.48H1512H1512.22C1512.22 176.295 1513.8 174.717 1515.84 174.717C1517.87 174.717 1519.45 176.295 1519.45 178.323H1519.67H1525.77H1526C1526 176.295 1527.58 174.717 1529.61 174.717C1531.65 174.717 1533.23 176.295 1533.23 178.323H1533.45H1539.55H1539.78C1539.78 176.295 1541.36 174.717 1543.39 174.717C1545.42 174.717 1547 176.295 1547 178.323H1547.23H1553.33H1553.55C1553.55 176.295 1555.14 174.717 1557.17 174.717C1559.2 174.717 1560.78 176.295 1560.78 178.323H1561.01H1567.11H1567.33C1567.33 176.295 1568.91 174.717 1570.95 174.717C1572.98 174.717 1574.56 176.295 1574.56 178.323H1574.79H1580.88H1581.11C1581.11 176.295 1582.69 174.717 1584.72 174.717C1586.76 174.717 1588.34 176.295 1588.34 178.323H1588.56H1594.66H1594.89C1594.89 176.295 1596.47 174.717 1598.5 174.717C1600.54 174.717 1602.12 176.295 1602.12 178.323H1602.34H1608.44H1608.67C1608.67 176.295 1610.25 174.717 1612.28 174.717C1614.31 174.717 1615.89 176.295 1615.89 178.323H1616.12H1622.22H1622.44C1622.44 176.295 1624.03 174.717 1626.06 174.717C1628.09 174.717 1629.67 176.295 1629.67 178.323H1629.9H1636H1636.22C1636.22 176.295 1637.8 174.717 1639.84 174.717C1641.87 174.717 1643.45 176.295 1643.45 178.323H1643.68H1649.77H1650C1650 176.295 1651.58 174.717 1653.61 174.717C1655.65 174.717 1657.23 176.295 1657.23 178.323H1657.45H1663.55H1663.78C1663.78 176.295 1665.36 174.717 1667.39 174.717C1669.42 174.717 1671.01 176.295 1671.01 178.323H1671.23H1677.33H1677.56C1677.56 176.295 1679.14 174.717 1681.17 174.717C1683.2 174.717 1684.78 176.295 1684.78 178.323H1685.01H1691.11H1691.33C1691.33 176.295 1692.91 174.717 1694.95 174.717C1696.98 174.717 1698.56 176.295 1698.56 178.323H1698.79H1704.89H1705.11C1705.11 176.295 1706.69 174.717 1708.73 174.717C1710.76 174.717 1712.34 176.295 1712.34 178.323H1712.56H1718.66H1718.89C1718.89 176.295 1720.47 174.717 1722.5 174.717C1724.54 174.717 1726.12 176.295 1726.12 178.323H1726.34H1732.44H1732.67C1732.67 176.295 1734.25 174.717 1736.28 174.717C1738.31 174.717 1739.89 176.295 1739.89 178.323H1740.12H1746.22H1746.44C1746.44 176.295 1748.03 174.717 1750.06 174.717C1752.09 174.717 1753.67 176.295 1753.67 178.323H1753.9H1758.87H1760.22C1760.22 176.295 1761.8 174.717 1763.84 174.717C1765.87 174.717 1767.45 176.295 1767.45 178.323H1773.77C1773.77 176.295 1775.36 174.717 1777.39 174.717C1779.42 174.717 1781 176.295 1781 178.323H1787.33C1787.33 176.295 1788.91 174.717 1790.94 174.717C1792.97 174.717 1794.55 176.295 1794.55 178.323H1800.88C1800.88 176.295 1802.46 174.717 1804.49 174.717C1806.53 174.717 1808.11 176.295 1808.11 178.323H1814.43C1814.43 176.295 1816.01 174.717 1818.04 174.717C1820.08 174.717 1821.66 176.295 1821.66 178.323H1827.98C1827.98 176.295 1829.56 174.717 1831.6 174.717C1833.63 174.717 1835.21 176.295 1835.21 178.323H1841.53C1841.53 176.295 1843.12 174.717 1845.15 174.717C1847.18 174.717 1848.76 176.295 1848.76 178.323H1855.09C1855.09 176.295 1856.67 174.717 1858.7 174.717C1860.73 174.717 1862.31 176.295 1862.31 178.323H1868.64C1868.64 176.295 1870.22 174.717 1872.25 174.717C1874.29 174.717 1875.87 176.295 1875.87 178.323H1882.19C1882.19 176.295 1883.77 174.717 1885.8 174.717C1887.84 174.717 1889.42 176.295 1889.42 178.323H1895.74C1895.74 176.295 1897.32 174.717 1899.36 174.717C1901.39 174.717 1902.97 176.295 1902.97 178.323H1909.29C1909.29 176.295 1910.88 174.717 1912.91 174.717C1914.94 174.717 1916.52 176.295 1916.52 178.323H1922.85C1922.85 176.295 1924.43 174.717 1926.46 174.717C1928.49 174.717 1930.07 176.295 1930.07 178.323H1936.4C1936.4 176.295 1937.98 174.717 1940.01 174.717C1942.05 174.717 1943.63 176.295 1943.63 178.323H1949.95C1949.95 176.295 1951.53 174.717 1953.56 174.717C1955.6 174.717 1957.18 176.295 1957.18 178.323H1963.5C1963.5 176.295 1965.08 174.717 1967.12 174.717C1969.15 174.717 1970.73 176.295 1970.73 178.323H1977.05C1977.05 176.295 1978.64 174.717 1980.67 174.717C1982.7 174.717 1984.28 176.295 1984.28 178.323H1990.61C1990.61 176.295 1992.19 174.717 1994.22 174.717C1996.25 174.717 1997.83 176.295 1997.83 178.323H2004.16C2004.16 176.295 2005.74 174.717 2007.77 174.717C2009.81 174.717 2011.39 176.295 2011.39 178.323H2016.58V160.291V16.7082V-1.32422H2009.13Z" fill="#9E561E"/>
</g>
<defs>
<clipPath id="clip0_178_2177">
<rect width="2059" height="181" fill="white" transform="translate(-44)"/>
</clipPath>
</defs>
</svg>
