<svg width="49" height="129" viewBox="0 0 49 129" fill="none" xmlns="http://www.w3.org/2000/svg">
<g clip-path="url(#clip0_178_2231)">
<path d="M4.93455 63.0515C4.33257 63.0515 3.12861 63.652 2.52664 63.652C1.92466 63.652 1.32268 64.2524 1.32268 64.8529C1.32268 67.8553 0.720703 70.2572 0.720703 73.2597C0.720703 76.8625 2.52664 79.8649 4.93455 82.2669C4.33257 82.2669 4.33257 82.8674 3.73059 82.8674C3.12861 82.8674 3.12861 82.8674 2.52664 83.4678C1.92466 83.4678 1.32268 84.0683 1.32268 84.6688C0.118725 90.0731 0.720703 96.0779 4.33257 100.882C4.33257 101.482 4.93455 101.482 4.93455 101.482C3.73059 102.083 1.92466 102.683 1.92466 103.884C0.720703 105.085 0.720703 106.887 0.720703 108.088C0.720703 110.49 1.32268 112.291 1.32268 114.693C1.32268 115.293 2.52664 118.896 5.53653 121.298C11.5563 127.303 16.3721 129.104 31.4216 127.903C33.8295 127.903 39.8493 125.502 44.0631 121.298C47.675 117.095 48.8789 111.69 48.277 106.286C48.277 103.284 47.675 102.683 44.6651 102.083C44.6651 102.083 44.6651 102.083 44.6651 101.482C48.277 97.2789 49.4809 92.4751 48.8789 87.0707C48.8789 84.0683 48.277 83.4678 45.2671 82.2669H44.6651C47.675 78.0635 48.8789 72.6592 48.277 67.2548C48.277 65.4534 47.675 63.652 45.2671 63.652C45.2671 63.652 44.6651 63.6519 44.6651 63.0515C47.675 58.8481 48.8789 53.4438 48.277 48.0394C48.277 45.6375 47.675 44.4365 45.869 44.4365C44.0631 44.4365 41.6552 43.8361 39.8493 43.8361C38.0433 43.8361 35.6354 44.4365 33.8295 45.037C34.4315 43.2356 35.0334 41.4341 35.0334 40.2332C36.8394 32.4269 32.6255 23.4197 25.4018 20.4173C24.7998 20.4173 24.1978 19.8168 23.5959 20.4173C17.5761 24.0202 14.5662 28.824 13.9642 35.4293C13.9642 39.0322 14.5662 42.0346 15.7701 45.6375C15.1682 45.6375 14.5662 45.037 13.9642 45.037C10.3523 43.8361 6.74048 43.8361 3.12861 44.4365C2.52664 44.4365 1.92466 45.037 1.92466 45.6375C0.720703 49.8409 0.720703 54.0442 2.52664 58.2476C3.12861 60.0491 3.73059 61.8505 4.93455 63.0515ZM29.6156 123.1C29.0137 123.1 28.4117 123.1 27.2077 123.1C26.6058 117.695 27.8097 113.492 32.0235 110.49C34.4315 108.088 37.4413 106.887 41.0532 106.887C43.4611 106.887 43.4611 106.887 43.4611 109.289C43.4611 117.095 37.4414 123.1 29.6156 123.1ZM29.6156 103.884C27.8097 103.884 27.2077 103.284 27.2077 101.482C27.2077 94.877 30.8196 90.0731 36.8394 88.2717C38.0433 87.6712 39.8493 87.6712 41.6552 87.6712C42.8592 87.6712 43.4611 88.2717 43.4611 89.4727C43.4611 96.6784 38.0433 103.884 29.6156 103.884ZM27.2077 82.2669C26.6058 74.4606 33.2275 67.8553 41.0532 67.8553C44.0631 67.8553 44.0631 67.8553 44.0631 70.8577C42.8591 78.664 36.8394 84.6688 29.0137 84.0683C27.8097 84.0683 27.2077 84.0683 27.2077 82.2669ZM41.6552 48.6399C43.4611 48.6399 43.4611 49.2404 43.4611 51.0418C43.4611 58.8481 36.8394 65.4534 29.6156 64.8529C29.0137 64.8529 28.4117 64.8529 27.2077 64.8529C26.0038 60.6495 28.4117 54.0442 32.6255 51.6423C35.6354 49.8409 38.0433 48.6399 41.6552 48.6399ZM24.7998 25.8216C33.2275 31.8264 32.0236 43.2356 24.7998 48.0394C17.5761 43.2356 16.3721 31.2259 24.7998 25.8216ZM7.34246 48.6399C15.1682 48.6399 21.1879 54.0442 21.7899 61.8505C21.7899 64.8529 21.7899 64.8529 18.78 64.8529C10.9543 64.8529 5.53653 58.2476 5.53653 50.4413C5.53653 49.2404 6.1385 48.6399 7.34246 48.6399ZM7.94444 87.6712C15.7701 87.6712 21.7899 94.2765 22.3919 101.482C22.3919 103.284 22.3919 103.884 19.984 103.884C12.1583 103.884 6.1385 97.8794 5.53653 90.0731C5.53653 87.6712 5.53653 87.6712 7.94444 87.6712ZM5.53653 69.6568C5.53653 67.2548 7.34246 67.8553 8.54641 67.8553C16.3721 67.8553 22.3919 75.0611 22.3919 82.2669C22.3919 84.0683 21.7899 84.0683 20.586 84.0683C12.1583 84.6688 5.53653 78.664 5.53653 69.6568ZM9.75037 106.887C17.5761 108.088 21.7899 114.092 22.3919 121.298C22.3919 122.499 21.7899 123.1 20.586 123.1C15.7701 123.1 12.1583 121.298 9.14839 117.695C8.54641 117.095 6.74048 112.891 6.1385 111.09C4.93455 107.487 5.53653 106.286 9.75037 106.887Z" fill="#FFF9BE"/>
<path d="M24.7999 16.8135C22.994 16.8135 21.79 15.6125 21.79 13.8111V3.00241C21.79 1.20096 22.994 0 24.7999 0C26.6059 0 27.8098 1.20096 27.8098 3.00241V14.4116C27.2078 15.6125 26.0039 16.8135 24.7999 16.8135Z" fill="#FFF9BE"/>
<path d="M33.8292 20.4159C32.0233 20.4159 30.8193 19.215 30.8193 17.4135V6.00436C30.8193 4.20292 32.0233 3.00195 33.8292 3.00195C35.0332 3.00195 36.8391 4.20292 36.8391 6.00436V17.4135C36.8391 19.215 35.0332 20.4159 33.8292 20.4159Z" fill="#FFF9BE"/>
<path d="M42.257 41.4323C40.451 41.4323 39.2471 40.2313 39.2471 38.4299V14.4106C39.2471 12.6092 40.451 11.4082 42.257 11.4082C44.0629 11.4082 45.2668 12.6092 45.2668 14.4106V39.0304C44.6649 40.2313 43.4609 41.4323 42.257 41.4323Z" fill="#FFF9BE"/>
<path d="M15.1681 20.417C13.3622 20.417 12.1582 19.216 12.1582 18.0151V6.60592C12.1582 4.80448 13.3622 3.60352 15.1681 3.60352C16.974 3.60352 18.178 4.80448 18.178 6.60592V18.0151C18.178 19.216 16.372 20.417 15.1681 20.417Z" fill="#FFF9BE"/>
<path d="M6.74036 42.0338C5.5364 42.0338 3.73047 40.8329 3.73047 39.0314V15.0122C3.73047 13.2107 5.5364 12.0098 6.74036 12.0098C7.94431 12.0098 9.75025 13.2107 9.75025 15.0122V39.6319C9.75025 40.8329 8.54629 42.0338 6.74036 42.0338Z" fill="#FFF9BE"/>
<path d="M30.82 46.8381C30.82 46.8381 30.82 47.4386 31.422 47.4386L32.024 48.039C31.422 48.039 31.422 48.6395 30.82 48.6395C27.8101 50.441 26.0042 54.0439 24.8002 57.0463C23.5963 53.4434 20.5864 50.441 17.5765 48.6395C18.1785 48.039 18.1785 48.039 18.1785 47.4386C18.7805 47.4386 18.7804 47.4386 18.7804 46.8381C19.9844 48.039 21.1884 49.24 22.9943 50.441C23.5963 51.0414 24.1982 51.0414 24.8002 51.0414C25.4022 51.0414 26.0042 51.0414 26.6062 50.441C27.8101 49.8405 29.616 48.039 30.82 46.8381ZM7.94485 64.252L8.54683 64.8525C8.54683 64.8525 8.54683 64.8525 7.94485 64.252C8.54683 64.8525 8.54683 64.8525 7.94485 64.252C8.54683 64.8525 7.94485 64.8525 7.94485 64.252C7.94485 64.8525 7.94485 64.8525 7.94485 64.252ZM41.0536 64.252C41.0536 64.8525 41.0536 64.8525 41.0536 64.252C40.4516 64.8525 40.4516 64.8525 40.4516 64.8525C40.4516 64.252 41.0536 64.252 41.0536 64.252ZM24.8002 66.654C25.4022 67.8549 26.6062 68.4554 27.8101 68.4554H28.4121H29.0141H30.218C30.218 68.4554 30.218 68.4554 30.82 68.4554C30.218 69.0559 29.616 69.6564 29.0141 70.2569C26.6062 72.0583 25.4022 73.8597 24.8002 76.2617C23.5963 73.2593 21.7903 70.2569 19.3824 68.4554H19.9844C21.1884 68.4554 22.9943 68.4554 24.8002 66.654ZM8.54683 83.4675L9.14881 84.0679C8.54683 84.0679 8.54683 84.0679 8.54683 83.4675C7.94485 84.0679 7.94485 83.4675 8.54683 83.4675ZM41.0536 83.4675V84.0679C40.4516 84.0679 40.4516 84.0679 39.8497 84.0679C40.4516 84.0679 40.4516 84.0679 41.0536 83.4675ZM24.8002 85.8694C26.0042 87.0703 27.2081 87.6708 29.0141 87.6708C29.616 87.6708 29.616 87.6708 30.218 87.6708C27.8101 90.0728 25.4022 92.4747 24.8002 96.0776C23.5963 93.0752 21.7903 90.0728 18.7804 87.6708C19.3824 87.6708 19.3824 87.6708 19.9844 87.6708C19.9844 87.6708 20.5864 87.6708 21.1884 87.6708C22.3923 87.6708 23.5963 87.0703 24.8002 85.8694ZM7.94485 102.683C8.54683 102.683 8.54683 103.283 9.14881 103.283C8.54683 103.283 7.94485 103.283 7.94485 103.283C7.94485 103.283 7.94485 103.283 7.94485 102.683ZM41.0536 102.683V103.283C40.4516 103.283 40.4516 103.283 39.8497 103.283C40.4516 103.283 40.4516 103.283 41.0536 102.683ZM24.8002 105.085C24.8002 105.685 24.8002 105.685 24.8002 105.085C26.6062 106.886 28.4121 106.886 29.0141 106.886C29.0141 106.886 29.0141 106.886 29.6161 106.886C30.218 106.886 30.218 106.886 30.82 106.886L30.218 107.487C27.8101 109.889 26.0042 112.291 24.8002 115.293C23.5963 111.69 21.7903 109.288 18.7804 106.886C19.3824 106.886 19.3824 106.886 19.9844 106.886C21.1884 106.886 22.9943 106.886 24.8002 105.085C24.8002 105.685 24.1982 105.685 24.8002 105.085ZM24.1982 19.8164C23.5963 19.8164 23.5963 19.8164 23.5963 19.8164C17.5765 23.4193 14.5666 28.2232 13.9646 34.8284C13.9646 38.4313 14.5666 41.4337 15.7706 45.0366C15.1686 45.0366 14.5666 44.4362 13.9646 44.4362C12.1587 43.8357 10.3528 43.2352 7.94485 43.2352C6.13892 43.2352 4.33298 43.2352 2.52705 43.8357C1.92507 43.8357 1.3231 44.4362 1.3231 45.0366C0.119141 49.24 0.119141 53.4434 1.92507 57.6467C2.52705 59.4482 3.73101 60.6492 4.33298 62.4506C3.73101 62.4506 2.52705 63.0511 1.92507 63.0511C1.3231 63.0511 0.721118 63.6516 0.721118 64.252C0.721118 67.2545 0.119141 69.6564 0.119141 72.6588C0.119141 76.2617 1.92507 79.2641 4.33298 81.666C3.73101 81.666 3.73101 82.2665 3.12903 82.2665C2.52705 82.2665 2.52705 82.2665 1.92507 82.867C1.3231 82.867 0.721118 83.4675 0.721118 84.0679C0.119141 90.0728 0.721119 96.0776 4.33298 100.881C4.33298 101.482 4.93496 101.482 4.93496 101.482C3.73101 102.082 1.92507 102.683 1.92507 103.884C0.721118 105.085 0.721118 106.886 0.721118 108.087C0.721118 110.489 1.3231 112.291 1.3231 114.693C1.3231 115.293 2.52705 118.896 5.53694 121.298C10.3528 126.102 14.5666 127.903 23.5963 127.903C26.0042 127.903 28.4121 127.903 31.422 127.303C33.8299 127.303 39.8497 124.901 44.0635 120.697C47.6754 116.494 48.8793 111.09 48.2774 105.685C48.2774 102.683 47.6754 102.082 44.6655 101.482C44.6655 101.482 44.6655 101.482 44.6655 100.881C48.2774 96.678 49.4813 91.8742 48.8793 86.4699C48.8793 83.4675 48.2774 82.867 45.2675 81.666H44.6655C47.6754 78.0631 48.8793 72.6588 48.2774 67.2545C48.2774 65.453 47.6754 63.6516 45.2675 63.6516C45.2675 63.6516 44.6655 63.6516 44.6655 63.0511C47.6754 58.8477 48.8793 53.4434 48.2774 48.039C48.2774 45.6371 47.6754 44.4362 45.8694 44.4362C44.0635 44.4362 42.8596 43.8357 41.0536 43.8357C40.4516 43.8357 39.8497 43.8357 39.8497 43.8357C38.0437 43.8357 35.6358 44.4362 33.8299 45.0366C34.4319 43.2352 35.0338 41.4337 35.0338 40.2328C36.8398 32.4265 32.6259 23.4193 25.4022 20.4169C25.4022 20.4169 24.8002 19.8164 24.1982 19.8164ZM24.8002 48.039C17.5765 43.2352 16.3725 31.2256 24.8002 25.8212C32.6259 31.826 31.422 43.2352 24.8002 48.039ZM27.8101 64.8525C26.0042 60.6492 28.4121 54.0439 32.6259 51.6419C35.0338 49.8405 38.0437 49.24 41.0536 49.24C42.8596 49.24 42.8596 49.8405 42.8596 51.6419C42.8596 59.4482 36.8398 65.453 29.6161 65.453H29.0141C28.4121 64.8525 27.8101 64.8525 27.8101 64.8525ZM19.9844 64.8525H19.3824C11.5567 64.8525 6.13892 58.2472 6.13892 50.441C6.13892 49.24 6.7409 48.6395 7.94485 48.6395H8.54683C15.7706 48.6395 22.3923 54.0439 22.9943 61.8501C22.3923 64.8525 22.3923 64.8525 19.9844 64.8525ZM19.9844 84.0679C12.1587 84.0679 5.53694 78.0631 5.53694 69.6564C5.53694 67.8549 6.13892 67.8549 7.34287 67.8549C7.94485 67.8549 7.94485 67.8549 8.54683 67.8549C8.54683 67.8549 8.54683 67.8549 9.14881 67.8549C16.9745 67.8549 22.9943 75.0607 22.9943 82.2665C22.3923 84.0679 21.7903 84.0679 20.5864 84.0679H19.9844ZM29.0141 84.0679C27.2081 84.0679 27.2081 83.4675 26.6062 82.2665C26.0042 74.4602 32.6259 67.8549 40.4516 67.8549H41.0536C43.4615 67.8549 43.4615 67.8549 43.4615 70.8573C42.8596 78.6636 36.8398 84.0679 29.0141 84.0679ZM19.9844 103.884C12.1587 103.884 6.13892 97.879 5.53694 90.0728C5.53694 87.6708 5.53694 87.6708 7.94485 87.6708C15.7706 87.6708 21.7903 94.2761 21.7903 101.482C22.3923 103.283 21.7903 103.884 19.9844 103.884ZM29.0141 103.884C27.2081 103.884 27.2081 103.283 27.2081 101.482C27.2081 94.8766 30.82 90.0728 36.8398 88.2713C38.0437 87.6708 39.8497 87.6708 41.6556 87.6708C42.8596 87.6708 42.8596 88.2713 43.4615 89.4723C43.4615 96.678 38.0437 103.884 29.0141 103.884ZM19.9844 123.099C15.1686 123.099 11.5567 121.298 8.54683 117.695C7.94485 117.094 6.13892 112.891 5.53694 111.09C4.93496 108.087 4.93496 106.886 7.34287 106.886C7.94485 106.886 8.54683 106.886 9.14881 106.886C17.5765 108.087 21.7903 114.092 22.3923 121.298C22.3923 122.499 21.7903 123.099 19.9844 123.099ZM29.0141 123.099C28.4121 123.099 27.8101 123.099 27.8101 123.099C27.2081 117.695 28.4121 113.492 32.6259 110.489C35.0338 108.087 38.0437 106.886 41.6556 106.886C43.4615 106.886 44.0635 106.886 44.0635 109.288C44.0635 117.094 38.0437 123.099 30.218 123.099C29.0141 123.099 29.0141 123.099 29.0141 123.099Z" fill="#FFF9BE"/>
<path d="M24.7998 14.4111V3.00195" stroke="#FFF9BE" stroke-width="0.5669" stroke-linecap="round" stroke-linejoin="round"/>
<path d="M24.7999 0C22.994 0 21.79 1.20096 21.79 3.00241V14.4116C21.79 16.213 22.994 17.414 24.7999 17.414C26.6059 17.414 27.8098 16.213 27.8098 14.4116V3.00241C27.2078 1.20096 26.0039 0 24.7999 0Z" fill="#FFF9BE"/>
<path d="M33.8301 17.4131V6.00391" stroke="#FFF9BE" stroke-width="0.5669" stroke-linecap="round" stroke-linejoin="round"/>
<path d="M33.8302 3.00195C32.0243 3.00195 30.8203 4.20292 30.8203 6.00436V17.4135C30.8203 19.215 32.0243 20.4159 33.8302 20.4159C35.0342 20.4159 36.8401 19.215 36.8401 17.4135V6.00436C36.8401 4.20292 35.0342 3.00195 33.8302 3.00195Z" fill="#FFF9BE"/>
<path d="M42.2578 39.0299V14.4102" stroke="#FFF9BE" stroke-width="0.5669" stroke-linecap="round" stroke-linejoin="round"/>
<path d="M42.2579 11.4082C40.452 11.4082 39.248 12.6092 39.248 14.4106V39.0304C39.248 40.8318 40.452 42.0328 42.2579 42.0328C44.0639 42.0328 45.2678 40.8318 45.2678 39.0304V14.4106C44.6658 12.6092 43.4619 11.4082 42.2579 11.4082Z" fill="#FFF9BE"/>
<path d="M15.1689 18.0146V6.60547" stroke="#FFF9BE" stroke-width="0.5669" stroke-linecap="round" stroke-linejoin="round"/>
<path d="M15.1691 3.60352C13.3631 3.60352 12.1592 4.80448 12.1592 6.60592V18.0151C12.1592 19.8165 13.3631 21.0175 15.1691 21.0175C16.975 21.0175 18.179 19.8165 18.179 18.0151V6.60592C18.179 4.80448 16.373 3.60352 15.1691 3.60352Z" fill="#FFF9BE"/>
<path d="M6.74121 39.031V15.0117" stroke="#FFF9BE" stroke-width="0.5669" stroke-linecap="round" stroke-linejoin="round"/>
<path d="M6.74133 12.0098C5.53738 12.0098 3.73145 13.2107 3.73145 15.0122V39.6319C3.73145 40.8329 5.53738 42.0338 6.74133 42.0338C7.94529 42.0338 9.75122 40.8329 9.75122 39.0314V15.0122C9.75122 13.2107 8.54727 12.0098 6.74133 12.0098Z" fill="#FFF9BE"/>
</g>
<defs>
<clipPath id="clip0_178_2231">
<rect width="47.5562" height="128.503" fill="white" transform="translate(0.720703)"/>
</clipPath>
</defs>
</svg>
