<svg width="301" height="97" viewBox="0 0 301 97" fill="none" xmlns="http://www.w3.org/2000/svg">
<path fill-rule="evenodd" clip-rule="evenodd" d="M46.5514 41.0434C43.4584 42.4607 43.201 44.3286 46.0675 46.1336C48.8711 47.9054 51.9321 48.968 54.8318 50.4825C61.1778 53.2861 65.8482 59.4069 67.4267 66.3329C67.4599 66.4301 67.4599 66.4942 67.4919 66.5902C68.1999 69.9086 68.1039 78.7357 71.3581 80.6688C74.2246 82.4086 79.412 78.0917 82.8904 74.0321C88.2391 66.8476 91.4282 57.9244 91.4282 48.3252C91.4282 24.5491 72.0661 5.18707 48.2912 5.18707C38.7881 5.18707 40.9453 14.1114 38.2402 20.5536C37.4337 22.4547 32.3768 23.2279 31.1849 26.1596C31.3782 23.3252 34.8898 21.94 35.5338 19.7815C37.0471 14.5941 37.8215 10.1812 42.0091 6.54025C38.3042 8.02151 36.275 10.1812 34.3739 13.0796C33.0207 15.174 32.8594 17.2364 31.8288 18.3311C31.0556 19.1696 29.9289 20.2962 29.381 21.6174C28.5425 23.5185 28.4465 25.4836 28.6078 27.5128C29.4759 37.2745 34.9859 43.2991 42.2665 46.455C40.3013 44.1352 39.5281 39.4649 39.6574 36.1146C39.8187 31.927 41.4612 28.5114 45.2954 26.1596C50.1911 23.1319 62.9497 27.7702 66.1387 19.3949C67.2334 27.5128 66.1707 38.4023 53.0267 40.2061C50.2883 40.5275 48.3884 40.3022 46.5514 41.0434ZM5.60485 46.0043C7.02208 27.3195 19.9087 10.8251 38.0789 6.47621C26.7707 12.1783 23.5164 24.0984 27.2214 34.6333C31.9249 46.2617 41.1398 49.3547 51.383 53.9289C62.7872 59.2136 65.8482 69.5219 62.3045 78.253C56.5063 91.3638 40.5919 92.8462 27.3827 85.7269C13.4014 77.2864 5.15419 62.5307 5.60485 46.0043ZM42.7824 41.366C43.4904 38.1438 45.9394 36.3399 51.9961 34.7934C56.313 33.6988 62.6911 31.0885 64.0763 26.2889C61.4352 31.959 53.7039 30.7019 49.0964 32.2163C44.1356 33.8589 42.461 36.6945 42.7824 41.366ZM48.2912 0.000869751C74.9018 0.000869751 96.6144 21.7146 96.6144 48.3252C96.6144 74.9026 74.9018 96.6152 48.2912 96.6152C21.7138 96.6152 0 74.9026 0 48.3252C0 21.7146 21.7138 0.000869751 48.2912 0.000869751Z" fill="#FFF9BE"/>
<path fill-rule="evenodd" clip-rule="evenodd" d="M54.8319 76.5118C59.0836 80.1515 52.4161 85.3389 45.2635 86.3375C38.143 87.304 27.0294 83.1484 22.6152 76.5118C42.9758 86.3695 49.2899 71.8403 54.8319 76.5118Z" fill="#FFF9BE"/>
<path d="M219.333 66.3667C219.214 66.3667 219.103 66.2991 219.049 66.1923C218.994 66.0868 219.004 65.9575 219.074 65.8603C220.071 64.4786 220.153 62.8704 220.151 61.2089C220.138 52.4126 220.141 43.6152 220.147 34.8189C220.148 33.5819 220.024 32.1339 219.095 30.7819C219.029 30.6846 219.022 30.5565 219.077 30.4522C219.132 30.3478 219.24 30.2814 219.36 30.2814H227.961C228.062 30.2814 228.158 30.3312 228.219 30.4142C228.28 30.4972 228.295 30.604 228.264 30.7C228.182 30.9515 228.093 31.2029 228.006 31.4567C227.799 32.0532 227.583 32.6711 227.426 33.2914C227.324 33.6922 227.327 34.1536 227.328 34.5983L227.329 34.807L227.327 45.355C227.327 50.7784 227.327 56.2042 227.32 61.6287C227.317 63.0436 227.45 64.5367 228.431 65.8567C228.503 65.9528 228.514 66.0832 228.461 66.19C228.406 66.2979 228.295 66.3667 228.176 66.3667H219.333ZM157.246 52.3095C158.173 50.1996 159.034 48.2309 159.899 46.2551C160.743 44.3232 161.593 42.3841 162.507 40.3052C163.405 42.3711 164.199 44.3208 164.971 46.2148C165.765 48.1645 166.584 50.1771 167.515 52.3095H157.246ZM179.01 60.6871L175.926 53.754C172.754 46.6275 169.472 39.2591 166.3 31.9892C165.773 30.7819 165.297 30.2091 164.015 30.2091C162.684 30.2091 162.234 31.2242 162.087 31.5575L160.306 35.5803C157.404 42.1398 154.661 48.3353 151.66 54.9577C151.333 55.6811 151.022 56.4164 150.711 57.1506C149.401 60.2483 148.046 63.4539 145.308 65.8033C145.206 65.8899 145.171 66.031 145.216 66.1567C145.263 66.2813 145.383 66.3655 145.516 66.3655C146.616 66.3655 148.294 66.3607 149.975 66.3584C151.666 66.3536 153.363 66.3512 154.482 66.3512C154.611 66.3512 154.727 66.2742 154.777 66.1532C154.827 66.0346 154.799 65.8982 154.708 65.8057C153.428 64.5213 153.05 63.0199 153.581 61.3465C154.001 60.0301 154.582 58.7314 155.143 57.4755C155.318 57.0841 155.493 56.694 155.628 56.3536C155.669 56.3216 155.823 56.2741 155.939 56.2741C157.325 56.2694 158.51 56.2682 159.598 56.2682C160.692 56.2682 161.686 56.2694 162.691 56.2718C163.707 56.2741 164.733 56.2753 165.877 56.2753C166.826 56.2753 167.852 56.2741 169.029 56.2706C169.278 56.2706 169.319 56.3109 169.389 56.4817C169.686 57.1861 169.992 57.8859 170.295 58.5868C170.625 59.3398 170.953 60.0906 171.269 60.8496C172.113 62.8823 172.06 64.43 171.094 65.8674C171.028 65.9646 171.022 66.0903 171.077 66.1959C171.134 66.3003 171.242 66.3631 171.359 66.3631H182.092C182.129 66.3631 182.158 66.3453 182.192 66.3335C182.152 66.1235 182.169 65.9113 182.216 65.7049C180.669 64.1323 179.722 62.2917 179.01 60.6871ZM123.674 33.8796C124.37 33.8974 124.98 33.8998 125.551 33.901C127.06 33.9081 128.253 33.914 130.076 34.1488C133.775 34.6256 136.578 36.7413 138.186 40.2696C140.584 45.5341 140.556 50.8294 138.102 56.0085C136.482 59.424 133.682 61.4603 129.778 62.0628C129.429 62.1174 129.057 62.166 128.692 62.1695C127.663 62.1743 126.925 62.1755 126.202 62.1755C125.795 62.1755 125.395 62.1743 124.95 62.1743H123.674V33.8796ZM119.457 66.1544C122.781 66.1544 126.106 66.1532 129.43 66.1508C131.826 66.1484 134.172 65.7239 136.402 64.8878C144.753 61.7568 149.37 52.9368 147.38 43.9164C145.643 36.0321 139.011 30.47 130.875 30.075C128.722 29.9695 126.546 29.9422 124.388 29.9422C123.042 29.9422 121.704 29.9529 120.384 29.9636C119.043 29.9766 117.704 29.9861 116.364 29.9861C116.219 29.9861 116.086 29.9825 115.945 29.9825C115.792 29.9825 115.629 29.9873 115.431 30.0098L115.245 30.0288C115.132 30.0383 115.034 30.1083 114.987 30.2114C114.939 30.3122 114.949 30.4332 115.012 30.5269C115.96 31.9192 116.036 33.455 116.036 35.0383C116.029 39.8379 116.029 44.6387 116.028 49.4382C116.028 53.4753 116.028 57.5111 116.024 61.5481C116.024 62.1126 116.01 62.7103 115.903 63.2689L115.874 63.4314C115.724 64.2236 115.584 64.9732 114.982 65.463C114.907 65.5246 114.863 65.6136 114.863 65.7108V65.8354C114.863 65.9196 114.896 66.0014 114.957 66.0607C115.017 66.1212 115.098 66.1544 115.183 66.1544H119.457ZM193.787 47.874C193.26 47.8668 192.71 47.8609 192.098 47.8574V33.506L193.475 33.5048C193.919 33.5037 194.342 33.5025 194.767 33.5025C195.549 33.5025 196.341 33.506 197.315 33.5203C197.871 33.5298 198.749 33.6234 199.351 33.7871C200.98 34.2342 202.11 35.1723 203.128 36.9275C204.242 38.8417 204.599 42.0936 203.128 44.6043C202.008 46.5243 199.989 47.7316 197.73 47.8348C196.857 47.8751 196.116 47.8882 195.397 47.8882C194.862 47.8882 194.341 47.8811 193.787 47.874ZM199.222 54.1999L199.693 54.998C201.326 57.7732 202.616 59.9672 204.017 62.5052C204.767 63.8738 205.76 65.3752 207.42 66.1318C208.4 66.579 210.931 66.6738 213.214 66.6738C214.215 66.6738 215.17 66.6549 215.925 66.6418L216.639 66.6276C216.799 66.6264 216.934 66.5042 216.952 66.3429C216.969 66.1828 216.863 66.0346 216.705 65.9978C215.722 65.7713 213.547 64.0671 211.787 60.9907C210.466 58.6816 209.913 57.6617 209.274 56.4829L208.475 55.0194C207.403 53.0649 205.593 51.6086 203.24 50.8092L202.84 50.674C204.262 50.1818 205.573 49.6553 207.188 48.4646C209.53 46.7402 210.982 44.1109 211.17 41.2504C211.359 38.4112 210.28 35.6408 208.213 33.6495C205.417 30.9562 202.161 30.3431 199.923 30.3039C195.968 30.234 192.311 30.2363 188.439 30.2363C187.036 30.234 185.623 30.2363 184.174 30.234C184.076 30.234 183.979 30.247 183.858 30.2636L183.694 30.285C183.583 30.2992 183.487 30.3703 183.442 30.4723C183.395 30.5743 183.407 30.6929 183.471 30.7854C184.209 31.8481 184.524 33.0364 184.523 34.7596V36.6453C184.52 44.8142 184.516 52.9819 184.528 61.1484C184.529 62.8254 184.448 64.328 183.581 65.6575C183.638 65.878 183.641 66.1058 183.597 66.3335C183.634 66.3477 183.67 66.3655 183.712 66.3655H192.794C192.916 66.3655 193.026 66.2979 193.081 66.19C193.134 66.082 193.124 65.9528 193.051 65.8555C192.055 64.513 191.927 63.0306 191.94 61.6287C191.957 59.6826 191.953 57.7352 191.95 55.7879L191.947 51.675L195.896 51.7058C197.122 51.7129 198.496 52.9665 199.222 54.1999ZM275.834 52.3095C276.77 50.183 277.638 48.1989 278.509 46.2077C279.347 44.2912 280.19 42.3675 281.096 40.3052C281.993 42.3699 282.787 44.3184 283.557 46.2089C284.351 48.1621 285.172 50.1771 286.104 52.3095H275.834ZM300.68 66.3631C300.81 66.3631 300.925 66.286 300.975 66.1662C301.025 66.0465 300.998 65.9089 300.905 65.8187C299.292 64.2224 298.329 62.3285 297.6 60.6871L294.504 53.7326C291.336 46.6133 288.059 39.2508 284.889 31.9892C284.363 30.7819 283.887 30.2091 282.605 30.2091C281.273 30.2091 280.824 31.2242 280.677 31.5575L278.896 35.5803C275.993 42.1398 273.25 48.3353 270.249 54.9577C269.921 55.6811 269.61 56.4164 269.299 57.1506C267.99 60.2483 266.636 63.4539 263.897 65.8033C263.795 65.8899 263.76 66.031 263.806 66.1567C263.851 66.2813 263.972 66.3655 264.105 66.3655C265.204 66.3655 266.882 66.3607 268.564 66.3584C270.255 66.3536 271.951 66.3512 273.072 66.3512C273.199 66.3512 273.316 66.2742 273.366 66.1532C273.416 66.0346 273.388 65.8982 273.296 65.8057C272.016 64.5213 271.638 63.0199 272.172 61.3465C272.59 60.0324 273.17 58.735 273.73 57.4791C273.904 57.0865 274.081 56.6951 274.216 56.3536C274.257 56.3216 274.412 56.2741 274.527 56.2741C275.913 56.2694 277.099 56.2682 278.186 56.2682C279.28 56.2682 280.276 56.2694 281.279 56.2718C282.297 56.2741 283.321 56.2753 284.467 56.2753C285.414 56.2753 286.442 56.2741 287.616 56.2706C287.865 56.2706 287.908 56.3109 287.979 56.4817C288.273 57.1861 288.579 57.8859 288.885 58.5868C289.213 59.3398 289.542 60.0906 289.858 60.8496C290.702 62.8823 290.648 64.43 289.684 65.8674C289.617 65.9646 289.611 66.0903 289.667 66.1959C289.721 66.3003 289.831 66.3631 289.949 66.3631H300.68ZM242.368 33.8796C243.063 33.8974 243.673 33.8998 244.246 33.901C245.754 33.9081 246.947 33.914 248.77 34.1488C252.469 34.6256 255.273 36.7413 256.879 40.2696C259.279 45.5341 259.249 50.8294 256.796 56.0085C255.177 59.424 252.376 61.4603 248.473 62.0628C248.125 62.1174 247.753 62.166 247.386 62.1695C246.357 62.1743 245.618 62.1755 244.896 62.1755C244.49 62.1755 244.088 62.1743 243.643 62.1743H242.368V33.8796ZM238.151 66.1544C241.474 66.1544 244.8 66.1532 248.125 66.1508C250.521 66.1484 252.867 65.7239 255.096 64.8878C263.447 61.7568 268.065 52.9368 266.076 43.9164C264.337 36.0321 257.702 30.47 249.568 30.075C247.416 29.9695 245.241 29.9422 243.082 29.9422C241.736 29.9422 240.399 29.9529 239.077 29.9636C237.737 29.9766 236.398 29.9861 235.058 29.9861C234.913 29.9861 234.779 29.9825 234.639 29.9825C234.485 29.9825 234.323 29.9873 234.126 30.0098L233.941 30.0288C233.827 30.0383 233.729 30.1083 233.68 30.2114C233.633 30.3122 233.642 30.4332 233.705 30.5269C234.655 31.9192 234.731 33.455 234.73 35.0383C234.723 39.8379 234.723 44.6387 234.723 49.4382C234.723 53.4753 234.721 57.5111 234.719 61.5481C234.718 62.1126 234.705 62.7103 234.598 63.2689L234.567 63.4314C234.418 64.2236 234.278 64.9732 233.676 65.463C233.601 65.5246 233.557 65.6136 233.557 65.7108V65.8354C233.557 65.9196 233.591 66.0014 233.65 66.0607C233.711 66.1212 233.793 66.1544 233.878 66.1544H238.151Z" fill="#FFF9BE"/>
<path d="M219.333 66.3667C219.214 66.3667 219.103 66.2991 219.049 66.1923C218.994 66.0868 219.004 65.9575 219.074 65.8603C220.071 64.4786 220.153 62.8704 220.151 61.2089C220.138 52.4126 220.141 43.6152 220.147 34.8189C220.148 33.5819 220.024 32.1339 219.095 30.7819C219.029 30.6846 219.022 30.5565 219.077 30.4522C219.132 30.3478 219.24 30.2814 219.36 30.2814H227.961C228.062 30.2814 228.158 30.3312 228.219 30.4142C228.28 30.4972 228.295 30.604 228.264 30.7C228.182 30.9515 228.093 31.2029 228.006 31.4567C227.799 32.0532 227.583 32.6711 227.426 33.2914C227.324 33.6922 227.327 34.1536 227.328 34.5983L227.329 34.807L227.327 45.355C227.327 50.7784 227.327 56.2042 227.32 61.6287C227.317 63.0436 227.45 64.5367 228.431 65.8567C228.503 65.9528 228.514 66.0832 228.461 66.19C228.406 66.2979 228.295 66.3667 228.176 66.3667H219.333ZM157.246 52.3095C158.173 50.1996 159.034 48.2309 159.899 46.2551C160.743 44.3232 161.593 42.3841 162.507 40.3052C163.405 42.3711 164.199 44.3208 164.971 46.2148C165.765 48.1645 166.584 50.1771 167.515 52.3095H157.246ZM179.01 60.6871L175.926 53.754C172.754 46.6275 169.472 39.2591 166.3 31.9892C165.773 30.7819 165.297 30.2091 164.015 30.2091C162.684 30.2091 162.234 31.2242 162.087 31.5575L160.306 35.5803C157.404 42.1398 154.661 48.3353 151.66 54.9577C151.333 55.6811 151.022 56.4164 150.711 57.1506C149.401 60.2483 148.046 63.4539 145.308 65.8033C145.206 65.8899 145.171 66.031 145.216 66.1567C145.263 66.2813 145.383 66.3655 145.516 66.3655C146.616 66.3655 148.294 66.3607 149.975 66.3584C151.666 66.3536 153.363 66.3512 154.482 66.3512C154.611 66.3512 154.727 66.2742 154.777 66.1532C154.827 66.0346 154.799 65.8982 154.708 65.8057C153.428 64.5213 153.05 63.0199 153.581 61.3465C154.001 60.0301 154.582 58.7314 155.143 57.4755C155.318 57.0841 155.493 56.694 155.628 56.3536C155.669 56.3216 155.823 56.2741 155.939 56.2741C157.325 56.2694 158.51 56.2682 159.598 56.2682C160.692 56.2682 161.686 56.2694 162.691 56.2718C163.707 56.2741 164.733 56.2753 165.877 56.2753C166.826 56.2753 167.852 56.2741 169.029 56.2706C169.278 56.2706 169.319 56.3109 169.389 56.4817C169.686 57.1861 169.992 57.8859 170.295 58.5868C170.625 59.3398 170.953 60.0906 171.269 60.8496C172.113 62.8823 172.06 64.43 171.094 65.8674C171.028 65.9646 171.022 66.0903 171.077 66.1959C171.134 66.3003 171.242 66.3631 171.359 66.3631H182.092C182.129 66.3631 182.158 66.3453 182.192 66.3335C182.152 66.1235 182.169 65.9113 182.216 65.7049C180.669 64.1323 179.722 62.2917 179.01 60.6871ZM123.674 33.8796C124.37 33.8974 124.98 33.8998 125.551 33.901C127.06 33.9081 128.253 33.914 130.076 34.1488C133.775 34.6256 136.578 36.7413 138.186 40.2696C140.584 45.5341 140.556 50.8294 138.102 56.0085C136.482 59.424 133.682 61.4603 129.778 62.0628C129.429 62.1174 129.057 62.166 128.692 62.1695C127.663 62.1743 126.925 62.1755 126.202 62.1755C125.795 62.1755 125.395 62.1743 124.95 62.1743H123.674V33.8796ZM119.457 66.1544C122.781 66.1544 126.106 66.1532 129.43 66.1508C131.826 66.1484 134.172 65.7239 136.402 64.8878C144.753 61.7568 149.37 52.9368 147.38 43.9164C145.643 36.0321 139.011 30.47 130.875 30.075C128.722 29.9695 126.546 29.9422 124.388 29.9422C123.042 29.9422 121.704 29.9529 120.384 29.9636C119.043 29.9766 117.704 29.9861 116.364 29.9861C116.219 29.9861 116.086 29.9825 115.945 29.9825C115.792 29.9825 115.629 29.9873 115.431 30.0098L115.245 30.0288C115.132 30.0383 115.034 30.1083 114.987 30.2114C114.939 30.3122 114.949 30.4332 115.012 30.5269C115.96 31.9192 116.036 33.455 116.036 35.0383C116.029 39.8379 116.029 44.6387 116.028 49.4382C116.028 53.4753 116.028 57.5111 116.024 61.5481C116.024 62.1126 116.01 62.7103 115.903 63.2689L115.874 63.4314C115.724 64.2236 115.584 64.9732 114.982 65.463C114.907 65.5246 114.863 65.6136 114.863 65.7108V65.8354C114.863 65.9196 114.896 66.0014 114.957 66.0607C115.017 66.1212 115.098 66.1544 115.183 66.1544H119.457ZM193.787 47.874C193.26 47.8668 192.71 47.8609 192.098 47.8574V33.506L193.475 33.5048C193.919 33.5037 194.342 33.5025 194.767 33.5025C195.549 33.5025 196.341 33.506 197.315 33.5203C197.871 33.5298 198.749 33.6234 199.351 33.7871C200.98 34.2342 202.11 35.1723 203.128 36.9275C204.242 38.8417 204.599 42.0936 203.128 44.6043C202.008 46.5243 199.989 47.7316 197.73 47.8348C196.857 47.8751 196.116 47.8882 195.397 47.8882C194.862 47.8882 194.341 47.8811 193.787 47.874ZM199.222 54.1999L199.693 54.998C201.326 57.7732 202.616 59.9672 204.017 62.5052C204.767 63.8738 205.76 65.3752 207.42 66.1318C208.4 66.579 210.931 66.6738 213.214 66.6738C214.215 66.6738 215.17 66.6549 215.925 66.6418L216.639 66.6276C216.799 66.6264 216.934 66.5042 216.952 66.3429C216.969 66.1828 216.863 66.0346 216.705 65.9978C215.722 65.7713 213.547 64.0671 211.787 60.9907C210.466 58.6816 209.913 57.6617 209.274 56.4829L208.475 55.0194C207.403 53.0649 205.593 51.6086 203.24 50.8092L202.84 50.674C204.262 50.1818 205.573 49.6553 207.188 48.4646C209.53 46.7402 210.982 44.1109 211.17 41.2504C211.359 38.4112 210.28 35.6408 208.213 33.6495C205.417 30.9562 202.161 30.3431 199.923 30.3039C195.968 30.234 192.311 30.2363 188.439 30.2363C187.036 30.234 185.623 30.2363 184.174 30.234C184.076 30.234 183.979 30.247 183.858 30.2636L183.694 30.285C183.583 30.2992 183.487 30.3703 183.442 30.4723C183.395 30.5743 183.407 30.6929 183.471 30.7854C184.209 31.8481 184.524 33.0364 184.523 34.7596V36.6453C184.52 44.8142 184.516 52.9819 184.528 61.1484C184.529 62.8254 184.448 64.328 183.581 65.6575C183.638 65.878 183.641 66.1058 183.597 66.3335C183.634 66.3477 183.67 66.3655 183.712 66.3655H192.794C192.916 66.3655 193.026 66.2979 193.081 66.19C193.134 66.082 193.124 65.9528 193.051 65.8555C192.055 64.513 191.927 63.0306 191.94 61.6287C191.957 59.6826 191.953 57.7352 191.95 55.7879L191.947 51.675L195.896 51.7058C197.122 51.7129 198.496 52.9665 199.222 54.1999ZM275.834 52.3095C276.77 50.183 277.638 48.1989 278.509 46.2077C279.347 44.2912 280.19 42.3675 281.096 40.3052C281.993 42.3699 282.787 44.3184 283.557 46.2089C284.351 48.1621 285.172 50.1771 286.104 52.3095H275.834ZM300.68 66.3631C300.81 66.3631 300.925 66.286 300.975 66.1662C301.025 66.0465 300.998 65.9089 300.905 65.8187C299.292 64.2224 298.329 62.3285 297.6 60.6871L294.504 53.7326C291.336 46.6133 288.059 39.2508 284.889 31.9892C284.363 30.7819 283.887 30.2091 282.605 30.2091C281.273 30.2091 280.824 31.2242 280.677 31.5575L278.896 35.5803C275.993 42.1398 273.25 48.3353 270.249 54.9577C269.921 55.6811 269.61 56.4164 269.299 57.1506C267.99 60.2483 266.636 63.4539 263.897 65.8033C263.795 65.8899 263.76 66.031 263.806 66.1567C263.851 66.2813 263.972 66.3655 264.105 66.3655C265.204 66.3655 266.882 66.3607 268.564 66.3584C270.255 66.3536 271.951 66.3512 273.072 66.3512C273.199 66.3512 273.316 66.2742 273.366 66.1532C273.416 66.0346 273.388 65.8982 273.296 65.8057C272.016 64.5213 271.638 63.0199 272.172 61.3465C272.59 60.0324 273.17 58.735 273.73 57.4791C273.904 57.0865 274.081 56.6951 274.216 56.3536C274.257 56.3216 274.412 56.2741 274.527 56.2741C275.913 56.2694 277.099 56.2682 278.186 56.2682C279.28 56.2682 280.276 56.2694 281.279 56.2718C282.297 56.2741 283.321 56.2753 284.467 56.2753C285.414 56.2753 286.442 56.2741 287.616 56.2706C287.865 56.2706 287.908 56.3109 287.979 56.4817C288.273 57.1861 288.579 57.8859 288.885 58.5868C289.213 59.3398 289.542 60.0906 289.858 60.8496C290.702 62.8823 290.648 64.43 289.684 65.8674C289.617 65.9646 289.611 66.0903 289.667 66.1959C289.721 66.3003 289.831 66.3631 289.949 66.3631H300.68ZM242.368 33.8796C243.063 33.8974 243.673 33.8998 244.246 33.901C245.754 33.9081 246.947 33.914 248.77 34.1488C252.469 34.6256 255.273 36.7413 256.879 40.2696C259.279 45.5341 259.249 50.8294 256.796 56.0085C255.177 59.424 252.376 61.4603 248.473 62.0628C248.125 62.1174 247.753 62.166 247.386 62.1695C246.357 62.1743 245.618 62.1755 244.896 62.1755C244.49 62.1755 244.088 62.1743 243.643 62.1743H242.368V33.8796ZM238.151 66.1544C241.474 66.1544 244.8 66.1532 248.125 66.1508C250.521 66.1484 252.867 65.7239 255.096 64.8878C263.447 61.7568 268.065 52.9368 266.076 43.9164C264.337 36.0321 257.702 30.47 249.568 30.075C247.416 29.9695 245.241 29.9422 243.082 29.9422C241.736 29.9422 240.399 29.9529 239.077 29.9636C237.737 29.9766 236.398 29.9861 235.058 29.9861C234.913 29.9861 234.779 29.9825 234.639 29.9825C234.485 29.9825 234.323 29.9873 234.126 30.0098L233.941 30.0288C233.827 30.0383 233.729 30.1083 233.68 30.2114C233.633 30.3122 233.642 30.4332 233.705 30.5269C234.655 31.9192 234.731 33.455 234.73 35.0383C234.723 39.8379 234.723 44.6387 234.723 49.4382C234.723 53.4753 234.721 57.5111 234.719 61.5481C234.718 62.1126 234.705 62.7103 234.598 63.2689L234.567 63.4314C234.418 64.2236 234.278 64.9732 233.676 65.463C233.601 65.5246 233.557 65.6136 233.557 65.7108V65.8354C233.557 65.9196 233.591 66.0014 233.65 66.0607C233.711 66.1212 233.793 66.1544 233.878 66.1544H238.151Z" fill="#FFF9BE"/>
</svg>
