<svg width="275" height="49" viewBox="0 0 275 49" fill="none" xmlns="http://www.w3.org/2000/svg">
<g clip-path="url(#clip0_377_1120)">
<path fill-rule="evenodd" clip-rule="evenodd" d="M147.4 0C160.9 0 171.8 11 171.8 24.4C171.8 37.8 160.8 48.8 147.4 48.8C134 48.8 123 37.8 123 24.4C123 11 134 0 147.4 0ZM144.6 20.9C145 19.3 146.2 18.4 149.3 17.6C151.5 17 154.7 15.7 155.4 13.3C154.1 16.2 150.2 15.5 147.8 16.3C145.3 17.1 144.5 18.6 144.6 20.9ZM125.8 23.3C126.5 13.9 133 5.5 142.2 3.3C136.5 6.2 134.8 12.2 136.7 17.5C139.1 23.4 143.7 24.9 148.9 27.3C154.7 30 156.2 35.2 154.4 39.6C151.5 46.2 143.4 47 136.7 43.4C129.8 39.1 125.6 31.6 125.8 23.3ZM146.5 20.8C144.9 21.5 144.8 22.5 146.3 23.4C147.7 24.3 149.3 24.8 150.7 25.6C153.9 27 156.3 30.1 157.1 33.6V33.7C157.5 35.4 157.4 39.8 159.1 40.8C160.5 41.7 163.2 39.5 164.9 37.4C167.6 33.8 169.2 29.3 169.2 24.4C169.2 12.4 159.4 2.6 147.4 2.6C142.6 2.6 143.7 7.1 142.3 10.4C141.9 11.4 139.3 11.8 138.7 13.2C138.8 11.8 140.6 11.1 140.9 10C141.7 7.4 142.1 5.1 144.2 3.3C142.3 4 141.3 5.1 140.3 6.6C139.6 7.7 139.5 8.7 139 9.3C138.6 9.7 138 10.3 137.8 11C137.4 12 137.3 13 137.4 14C137.8 18.9 140.6 22 144.3 23.6C143.3 22.4 142.9 20.1 143 18.4C143.1 16.3 143.9 14.6 145.9 13.4C148.4 11.9 154.8 14.2 156.4 10C157 14.1 156.4 19.6 149.8 20.5C148.4 20.5 147.5 20.4 146.5 20.8Z" fill="#FFF9BE"/>
<path fill-rule="evenodd" clip-rule="evenodd" d="M150.7 38.7006C152.9 40.5006 149.5 43.2006 145.9 43.7006C142.3 44.2006 136.7 42.1006 134.4 38.7006C144.7 43.7006 147.9 36.3006 150.7 38.7006Z" fill="#FFF9BE"/>
<path d="M243.199 33.4992C244.899 33.4992 246.599 33.4992 248.199 33.4992C249.399 33.4992 250.599 33.2992 251.699 32.8992C255.899 31.2992 258.299 26.8992 257.299 22.2992C256.399 18.2992 253.099 15.4992 248.999 15.2992C247.899 15.1992 246.799 15.1992 245.699 15.1992C244.999 15.1992 244.299 15.1992 243.699 15.1992C242.999 15.1992 242.299 15.1992 241.699 15.1992C241.599 15.1992 241.599 15.1992 241.499 15.1992C241.399 15.1992 241.299 15.1992 241.199 15.1992H241.099C240.999 15.1992 240.999 15.1992 240.999 15.2992C240.999 15.3992 240.999 15.3992 240.999 15.4992C241.499 16.1992 241.499 16.9992 241.499 17.7992C241.499 20.1992 241.499 22.6992 241.499 25.0992C241.499 27.0992 241.499 29.1992 241.499 31.1992C241.499 31.4992 241.499 31.7992 241.399 32.0992V32.1992C241.299 32.5992 241.299 32.9992 240.899 33.1992L240.799 33.2992V33.3992V33.4992H240.899H243.199ZM245.399 17.0992C245.799 17.0992 246.099 17.0992 246.299 17.0992C247.099 17.0992 247.699 17.0992 248.599 17.1992C250.499 17.3992 251.899 18.4992 252.699 20.2992C253.899 22.9992 253.899 25.5992 252.699 28.2992C251.899 29.9992 250.499 31.0992 248.499 31.3992C248.299 31.3992 248.099 31.4992 247.999 31.4992C247.499 31.4992 247.099 31.4992 246.699 31.4992C246.499 31.4992 246.299 31.4992 246.099 31.4992H245.499V17.0992H245.399ZM274.899 33.5992C274.999 33.5992 274.999 33.5992 274.999 33.4992C274.999 33.3992 274.999 33.3992 274.999 33.2992C274.199 32.4992 273.699 31.4992 273.299 30.6992L271.699 27.1992C270.099 23.5992 268.399 19.8992 266.799 16.1992C266.499 15.5992 266.299 15.2992 265.599 15.2992C264.899 15.2992 264.699 15.7992 264.599 15.9992L263.699 17.9992C262.199 21.2992 260.799 24.4992 259.299 27.7992C259.099 28.1992 258.999 28.4992 258.799 28.8992C258.099 30.4992 257.499 32.0992 256.099 33.2992C255.999 33.2992 255.999 33.3992 256.099 33.4992C256.099 33.5992 256.199 33.5992 256.299 33.5992C256.899 33.5992 257.699 33.5992 258.599 33.5992C259.499 33.5992 260.299 33.5992 260.899 33.5992C260.999 33.5992 260.999 33.5992 260.999 33.4992C260.999 33.3992 260.999 33.3992 260.999 33.2992C260.399 32.6992 260.199 31.8992 260.399 30.9992C260.599 30.2992 260.899 29.6992 261.199 28.9992C261.299 28.7992 261.399 28.5992 261.399 28.3992C261.399 28.3992 261.499 28.3992 261.599 28.3992C262.299 28.3992 262.899 28.3992 263.499 28.3992C264.099 28.3992 264.599 28.3992 265.099 28.3992C265.599 28.3992 266.099 28.3992 266.699 28.3992C267.199 28.3992 267.699 28.3992 268.299 28.3992C268.399 28.3992 268.399 28.3992 268.499 28.4992C268.599 28.8992 268.799 29.1992 268.999 29.5992C269.199 29.9992 269.299 30.3992 269.499 30.6992C269.899 31.6992 269.899 32.4992 269.399 33.1992C269.399 33.1992 269.399 33.2992 269.399 33.3992C269.399 33.4992 269.499 33.4992 269.499 33.4992H274.899V33.5992ZM262.299 26.4992C262.799 25.3992 263.199 24.3992 263.699 23.3992C264.099 22.3992 264.499 21.4992 264.999 20.3992C265.499 21.3992 265.899 22.3992 266.199 23.3992C266.599 24.3992 266.999 25.3992 267.499 26.4992H262.299ZM223.599 27.3992L223.799 27.7992C224.599 29.1992 225.299 30.2992 225.999 31.5992C226.399 32.2992 226.899 33.0992 227.699 33.3992C228.199 33.5992 229.499 33.6992 230.599 33.6992C231.099 33.6992 231.599 33.6992 231.999 33.6992H232.399C232.499 33.6992 232.499 33.5992 232.599 33.5992C232.599 33.4992 232.599 33.3992 232.499 33.3992C231.999 33.2992 230.899 32.3992 229.999 30.8992C229.299 29.6992 229.099 29.1992 228.699 28.5992L228.299 27.8992C227.799 26.8992 226.799 26.1992 225.699 25.7992L225.499 25.6992C226.199 25.4992 226.899 25.1992 227.699 24.5992C228.899 23.6992 229.599 22.3992 229.699 20.9992C229.799 19.5992 229.199 18.1992 228.199 17.1992C226.799 15.7992 225.099 15.4992 223.999 15.4992C221.999 15.4992 220.199 15.4992 218.199 15.4992C217.499 15.4992 216.799 15.4992 215.999 15.4992C215.999 15.4992 215.899 15.4992 215.799 15.4992H215.699C215.599 15.4992 215.599 15.4992 215.599 15.5992C215.599 15.6992 215.599 15.6992 215.599 15.7992C215.999 16.2992 216.099 16.8992 216.099 17.7992V18.7992C216.099 22.8992 216.099 27.0992 216.099 31.1992C216.099 31.9992 216.099 32.7992 215.599 33.4992C215.599 33.5992 215.599 33.6992 215.599 33.7992C215.599 33.7992 215.599 33.7992 215.699 33.7992H220.299C220.399 33.7992 220.399 33.7992 220.399 33.6992C220.399 33.5992 220.399 33.5992 220.399 33.4992C219.899 32.7992 219.799 32.0992 219.799 31.3992C219.799 30.3992 219.799 29.3992 219.799 28.3992V26.2992H221.799C222.499 26.1992 223.199 26.7992 223.599 27.3992ZM220.799 24.1992C220.499 24.1992 220.299 24.1992 219.899 24.1992V16.8992H220.599C220.799 16.8992 220.999 16.8992 221.299 16.8992C221.699 16.8992 222.099 16.8992 222.599 16.8992C222.899 16.8992 223.299 16.9992 223.599 16.9992C224.399 17.1992 224.999 17.6992 225.499 18.5992C226.099 19.5992 226.199 21.1992 225.499 22.4992C224.899 23.4992 223.899 24.0992 222.799 24.0992C222.399 24.0992 221.999 24.0992 221.599 24.0992C221.399 24.1992 221.099 24.1992 220.799 24.1992ZM183.199 33.4992C184.899 33.4992 186.599 33.4992 188.199 33.4992C189.399 33.4992 190.599 33.2992 191.699 32.8992C195.899 31.2992 198.299 26.8992 197.299 22.2992C196.399 18.2992 193.099 15.4992 188.999 15.2992C187.899 15.1992 186.799 15.1992 185.699 15.1992C184.999 15.1992 184.299 15.1992 183.699 15.1992C182.999 15.1992 182.299 15.1992 181.699 15.1992C181.599 15.1992 181.599 15.1992 181.499 15.1992C181.399 15.1992 181.299 15.1992 181.199 15.1992H181.099C180.999 15.1992 180.999 15.1992 180.999 15.2992C180.999 15.3992 180.999 15.3992 180.999 15.4992C181.499 16.1992 181.499 16.9992 181.499 17.7992C181.499 20.1992 181.499 22.6992 181.499 25.0992C181.499 27.0992 181.499 29.1992 181.499 31.1992C181.499 31.4992 181.499 31.7992 181.399 32.0992V32.1992C181.299 32.5992 181.299 32.9992 180.899 33.1992L180.799 33.2992V33.3992V33.4992H180.899H183.199ZM185.399 17.0992C185.799 17.0992 186.099 17.0992 186.299 17.0992C187.099 17.0992 187.699 17.0992 188.599 17.1992C190.499 17.3992 191.899 18.4992 192.699 20.2992C193.899 22.9992 193.899 25.5992 192.699 28.2992C191.899 29.9992 190.499 31.0992 188.499 31.3992C188.299 31.3992 188.099 31.4992 187.999 31.4992C187.499 31.4992 187.099 31.4992 186.699 31.4992C186.499 31.4992 186.299 31.4992 186.099 31.4992H185.499V17.0992H185.399ZM213.299 30.6992L211.699 27.1992C210.099 23.5992 208.399 19.8992 206.799 16.1992C206.499 15.5992 206.299 15.2992 205.599 15.2992C204.899 15.2992 204.699 15.7992 204.599 15.9992L203.699 17.9992C202.199 21.2992 200.799 24.4992 199.299 27.7992C199.099 28.1992 198.999 28.4992 198.799 28.8992C198.099 30.4992 197.499 32.0992 196.099 33.2992C195.999 33.2992 195.999 33.3992 196.099 33.4992C196.099 33.5992 196.199 33.5992 196.299 33.5992C196.899 33.5992 197.699 33.5992 198.599 33.5992C199.499 33.5992 200.299 33.5992 200.899 33.5992C200.999 33.5992 200.999 33.5992 200.999 33.4992C200.999 33.3992 200.999 33.3992 200.999 33.2992C200.399 32.6992 200.199 31.8992 200.399 30.9992C200.599 30.2992 200.899 29.6992 201.199 28.9992C201.299 28.7992 201.399 28.5992 201.399 28.3992C201.399 28.3992 201.499 28.3992 201.599 28.3992C202.299 28.3992 202.899 28.3992 203.499 28.3992C204.099 28.3992 204.599 28.3992 205.099 28.3992C205.599 28.3992 206.099 28.3992 206.699 28.3992C207.199 28.3992 207.699 28.3992 208.299 28.3992C208.399 28.3992 208.399 28.3992 208.499 28.4992C208.599 28.8992 208.799 29.1992 208.999 29.5992C209.199 29.9992 209.299 30.3992 209.499 30.6992C209.899 31.6992 209.899 32.4992 209.399 33.1992C209.399 33.1992 209.399 33.2992 209.399 33.3992C209.399 33.4992 209.499 33.4992 209.499 33.4992H214.899C214.899 33.4992 214.899 33.4992 214.999 33.4992C214.999 33.3992 214.999 33.2992 214.999 33.1992C214.199 32.3992 213.699 31.4992 213.299 30.6992ZM202.299 26.4992C202.799 25.3992 203.199 24.3992 203.599 23.3992C203.999 22.3992 204.499 21.3992 204.899 20.3992C205.399 21.3992 205.799 22.3992 206.099 23.3992C206.499 24.3992 206.899 25.3992 207.399 26.4992H202.299ZM233.699 33.5992C233.599 33.5992 233.599 33.5992 233.599 33.4992C233.599 33.3992 233.599 33.3992 233.599 33.2992C234.099 32.5992 234.099 31.7992 234.099 30.8992C234.099 26.4992 234.099 21.9992 234.099 17.5992C234.099 16.9992 233.999 16.1992 233.599 15.5992C233.599 15.5992 233.599 15.4992 233.599 15.3992C233.599 15.2992 233.699 15.2992 233.699 15.2992H238.099C238.199 15.2992 238.199 15.2992 238.199 15.3992V15.4992C238.199 15.5992 238.099 15.7992 238.099 15.8992C237.999 16.1992 237.899 16.4992 237.799 16.7992C237.699 16.9992 237.699 17.1992 237.799 17.4992V17.5992V22.8992C237.799 25.5992 237.799 28.3992 237.799 31.0992C237.799 31.7992 237.899 32.5992 238.399 33.1992C238.399 33.1992 238.399 33.2992 238.399 33.3992C238.399 33.4992 238.299 33.4992 238.299 33.4992H233.699V33.5992Z" fill="#FFF9BE"/>
<path d="M243.199 33.4992C244.899 33.4992 246.599 33.4992 248.199 33.4992C249.399 33.4992 250.599 33.2992 251.699 32.8992C255.899 31.2992 258.299 26.8992 257.299 22.2992C256.399 18.2992 253.099 15.4992 248.999 15.2992C247.899 15.1992 246.799 15.1992 245.699 15.1992C244.999 15.1992 244.299 15.1992 243.699 15.1992C242.999 15.1992 242.299 15.1992 241.699 15.1992C241.599 15.1992 241.599 15.1992 241.499 15.1992C241.399 15.1992 241.299 15.1992 241.199 15.1992H241.099C240.999 15.1992 240.999 15.1992 240.999 15.2992C240.999 15.3992 240.999 15.3992 240.999 15.4992C241.499 16.1992 241.499 16.9992 241.499 17.7992C241.499 20.1992 241.499 22.6992 241.499 25.0992C241.499 27.0992 241.499 29.1992 241.499 31.1992C241.499 31.4992 241.499 31.7992 241.399 32.0992V32.1992C241.299 32.5992 241.299 32.9992 240.899 33.1992L240.799 33.2992V33.3992V33.4992H240.899H243.199ZM245.399 17.0992C245.799 17.0992 246.099 17.0992 246.299 17.0992C247.099 17.0992 247.699 17.0992 248.599 17.1992C250.499 17.3992 251.899 18.4992 252.699 20.2992C253.899 22.9992 253.899 25.5992 252.699 28.2992C251.899 29.9992 250.499 31.0992 248.499 31.3992C248.299 31.3992 248.099 31.4992 247.999 31.4992C247.499 31.4992 247.099 31.4992 246.699 31.4992C246.499 31.4992 246.299 31.4992 246.099 31.4992H245.499V17.0992H245.399ZM274.899 33.5992C274.999 33.5992 274.999 33.5992 274.999 33.4992C274.999 33.3992 274.999 33.3992 274.999 33.2992C274.199 32.4992 273.699 31.4992 273.299 30.6992L271.699 27.1992C270.099 23.5992 268.399 19.8992 266.799 16.1992C266.499 15.5992 266.299 15.2992 265.599 15.2992C264.899 15.2992 264.699 15.7992 264.599 15.9992L263.699 17.9992C262.199 21.2992 260.799 24.4992 259.299 27.7992C259.099 28.1992 258.999 28.4992 258.799 28.8992C258.099 30.4992 257.499 32.0992 256.099 33.2992C255.999 33.2992 255.999 33.3992 256.099 33.4992C256.099 33.5992 256.199 33.5992 256.299 33.5992C256.899 33.5992 257.699 33.5992 258.599 33.5992C259.499 33.5992 260.299 33.5992 260.899 33.5992C260.999 33.5992 260.999 33.5992 260.999 33.4992C260.999 33.3992 260.999 33.3992 260.999 33.2992C260.399 32.6992 260.199 31.8992 260.399 30.9992C260.599 30.2992 260.899 29.6992 261.199 28.9992C261.299 28.7992 261.399 28.5992 261.399 28.3992C261.399 28.3992 261.499 28.3992 261.599 28.3992C262.299 28.3992 262.899 28.3992 263.499 28.3992C264.099 28.3992 264.599 28.3992 265.099 28.3992C265.599 28.3992 266.099 28.3992 266.699 28.3992C267.199 28.3992 267.699 28.3992 268.299 28.3992C268.399 28.3992 268.399 28.3992 268.499 28.4992C268.599 28.8992 268.799 29.1992 268.999 29.5992C269.199 29.9992 269.299 30.3992 269.499 30.6992C269.899 31.6992 269.899 32.4992 269.399 33.1992C269.399 33.1992 269.399 33.2992 269.399 33.3992C269.399 33.4992 269.499 33.4992 269.499 33.4992H274.899V33.5992ZM262.299 26.4992C262.799 25.3992 263.199 24.3992 263.699 23.3992C264.099 22.3992 264.499 21.4992 264.999 20.3992C265.499 21.3992 265.899 22.3992 266.199 23.3992C266.599 24.3992 266.999 25.3992 267.499 26.4992H262.299ZM223.599 27.3992L223.799 27.7992C224.599 29.1992 225.299 30.2992 225.999 31.5992C226.399 32.2992 226.899 33.0992 227.699 33.3992C228.199 33.5992 229.499 33.6992 230.599 33.6992C231.099 33.6992 231.599 33.6992 231.999 33.6992H232.399C232.499 33.6992 232.499 33.5992 232.599 33.5992C232.599 33.4992 232.599 33.3992 232.499 33.3992C231.999 33.2992 230.899 32.3992 229.999 30.8992C229.299 29.6992 229.099 29.1992 228.699 28.5992L228.299 27.8992C227.799 26.8992 226.799 26.1992 225.699 25.7992L225.499 25.6992C226.199 25.4992 226.899 25.1992 227.699 24.5992C228.899 23.6992 229.599 22.3992 229.699 20.9992C229.799 19.5992 229.199 18.1992 228.199 17.1992C226.799 15.7992 225.099 15.4992 223.999 15.4992C221.999 15.4992 220.199 15.4992 218.199 15.4992C217.499 15.4992 216.799 15.4992 215.999 15.4992C215.999 15.4992 215.899 15.4992 215.799 15.4992H215.699C215.599 15.4992 215.599 15.4992 215.599 15.5992C215.599 15.6992 215.599 15.6992 215.599 15.7992C215.999 16.2992 216.099 16.8992 216.099 17.7992V18.7992C216.099 22.8992 216.099 27.0992 216.099 31.1992C216.099 31.9992 216.099 32.7992 215.599 33.4992C215.599 33.5992 215.599 33.6992 215.599 33.7992C215.599 33.7992 215.599 33.7992 215.699 33.7992H220.299C220.399 33.7992 220.399 33.7992 220.399 33.6992C220.399 33.5992 220.399 33.5992 220.399 33.4992C219.899 32.7992 219.799 32.0992 219.799 31.3992C219.799 30.3992 219.799 29.3992 219.799 28.3992V26.2992H221.799C222.499 26.1992 223.199 26.7992 223.599 27.3992ZM220.799 24.1992C220.499 24.1992 220.299 24.1992 219.899 24.1992V16.8992H220.599C220.799 16.8992 220.999 16.8992 221.299 16.8992C221.699 16.8992 222.099 16.8992 222.599 16.8992C222.899 16.8992 223.299 16.9992 223.599 16.9992C224.399 17.1992 224.999 17.6992 225.499 18.5992C226.099 19.5992 226.199 21.1992 225.499 22.4992C224.899 23.4992 223.899 24.0992 222.799 24.0992C222.399 24.0992 221.999 24.0992 221.599 24.0992C221.399 24.1992 221.099 24.1992 220.799 24.1992ZM183.199 33.4992C184.899 33.4992 186.599 33.4992 188.199 33.4992C189.399 33.4992 190.599 33.2992 191.699 32.8992C195.899 31.2992 198.299 26.8992 197.299 22.2992C196.399 18.2992 193.099 15.4992 188.999 15.2992C187.899 15.1992 186.799 15.1992 185.699 15.1992C184.999 15.1992 184.299 15.1992 183.699 15.1992C182.999 15.1992 182.299 15.1992 181.699 15.1992C181.599 15.1992 181.599 15.1992 181.499 15.1992C181.399 15.1992 181.299 15.1992 181.199 15.1992H181.099C180.999 15.1992 180.999 15.1992 180.999 15.2992C180.999 15.3992 180.999 15.3992 180.999 15.4992C181.499 16.1992 181.499 16.9992 181.499 17.7992C181.499 20.1992 181.499 22.6992 181.499 25.0992C181.499 27.0992 181.499 29.1992 181.499 31.1992C181.499 31.4992 181.499 31.7992 181.399 32.0992V32.1992C181.299 32.5992 181.299 32.9992 180.899 33.1992L180.799 33.2992V33.3992V33.4992H180.899H183.199ZM185.399 17.0992C185.799 17.0992 186.099 17.0992 186.299 17.0992C187.099 17.0992 187.699 17.0992 188.599 17.1992C190.499 17.3992 191.899 18.4992 192.699 20.2992C193.899 22.9992 193.899 25.5992 192.699 28.2992C191.899 29.9992 190.499 31.0992 188.499 31.3992C188.299 31.3992 188.099 31.4992 187.999 31.4992C187.499 31.4992 187.099 31.4992 186.699 31.4992C186.499 31.4992 186.299 31.4992 186.099 31.4992H185.499V17.0992H185.399ZM213.299 30.6992L211.699 27.1992C210.099 23.5992 208.399 19.8992 206.799 16.1992C206.499 15.5992 206.299 15.2992 205.599 15.2992C204.899 15.2992 204.699 15.7992 204.599 15.9992L203.699 17.9992C202.199 21.2992 200.799 24.4992 199.299 27.7992C199.099 28.1992 198.999 28.4992 198.799 28.8992C198.099 30.4992 197.499 32.0992 196.099 33.2992C195.999 33.2992 195.999 33.3992 196.099 33.4992C196.099 33.5992 196.199 33.5992 196.299 33.5992C196.899 33.5992 197.699 33.5992 198.599 33.5992C199.499 33.5992 200.299 33.5992 200.899 33.5992C200.999 33.5992 200.999 33.5992 200.999 33.4992C200.999 33.3992 200.999 33.3992 200.999 33.2992C200.399 32.6992 200.199 31.8992 200.399 30.9992C200.599 30.2992 200.899 29.6992 201.199 28.9992C201.299 28.7992 201.399 28.5992 201.399 28.3992C201.399 28.3992 201.499 28.3992 201.599 28.3992C202.299 28.3992 202.899 28.3992 203.499 28.3992C204.099 28.3992 204.599 28.3992 205.099 28.3992C205.599 28.3992 206.099 28.3992 206.699 28.3992C207.199 28.3992 207.699 28.3992 208.299 28.3992C208.399 28.3992 208.399 28.3992 208.499 28.4992C208.599 28.8992 208.799 29.1992 208.999 29.5992C209.199 29.9992 209.299 30.3992 209.499 30.6992C209.899 31.6992 209.899 32.4992 209.399 33.1992C209.399 33.1992 209.399 33.2992 209.399 33.3992C209.399 33.4992 209.499 33.4992 209.499 33.4992H214.899C214.899 33.4992 214.899 33.4992 214.999 33.4992C214.999 33.3992 214.999 33.2992 214.999 33.1992C214.199 32.3992 213.699 31.4992 213.299 30.6992ZM202.299 26.4992C202.799 25.3992 203.199 24.3992 203.599 23.3992C203.999 22.3992 204.499 21.3992 204.899 20.3992C205.399 21.3992 205.799 22.3992 206.099 23.3992C206.499 24.3992 206.899 25.3992 207.399 26.4992H202.299ZM233.699 33.5992C233.599 33.5992 233.599 33.5992 233.599 33.4992C233.599 33.3992 233.599 33.3992 233.599 33.2992C234.099 32.5992 234.099 31.7992 234.099 30.8992C234.099 26.4992 234.099 21.9992 234.099 17.5992C234.099 16.9992 233.999 16.1992 233.599 15.5992C233.599 15.5992 233.599 15.4992 233.599 15.3992C233.599 15.2992 233.699 15.2992 233.699 15.2992H238.099C238.199 15.2992 238.199 15.2992 238.199 15.3992V15.4992C238.199 15.5992 238.099 15.7992 238.099 15.8992C237.999 16.1992 237.899 16.4992 237.799 16.7992C237.699 16.9992 237.699 17.1992 237.799 17.4992V17.5992V22.8992C237.799 25.5992 237.799 28.3992 237.799 31.0992C237.799 31.7992 237.899 32.5992 238.399 33.1992C238.399 33.1992 238.399 33.2992 238.399 33.3992C238.399 33.4992 238.299 33.4992 238.299 33.4992H233.699V33.5992Z" fill="#FFF9BE"/>
<path d="M51.0004 23.9992C51.7004 23.7992 52.3004 23.4992 53.1004 22.8992C54.3004 21.9992 55.0004 20.6992 55.1004 19.1992C55.2004 17.7992 54.6004 16.3992 53.6004 15.3992C52.2004 13.9992 50.5004 13.6992 49.4004 13.6992C47.4004 13.6992 45.6004 13.6992 43.6004 13.6992C42.9004 13.6992 42.2004 13.6992 41.4004 13.6992C41.4004 13.6992 41.3004 13.6992 41.2004 13.6992H41.1004C41.0004 13.6992 41.0004 13.6992 40.9004 13.7992C40.9004 13.8992 40.9004 13.8992 40.9004 13.9992C41.3004 14.4992 41.4004 15.0992 41.4004 15.9992V17.3992C41.4004 21.3992 41.4004 25.2992 41.4004 29.2992C41.4004 30.1992 41.4004 30.9992 40.9004 31.6992C40.9004 31.7992 40.9004 31.7992 40.9004 31.8992C40.9004 31.9992 41.0004 31.9992 41.1004 31.9992H45.7004C45.8004 31.9992 45.8004 31.9992 45.9004 31.8992C45.9004 31.7992 45.9004 31.7992 45.9004 31.6992C45.4004 30.9992 45.3004 30.2992 45.3004 29.5992C45.3004 28.5992 45.3004 27.6992 45.3004 26.6992V24.5992H47.3004C49.4004 24.4992 51.0004 23.9992 51.0004 23.9992ZM48.4004 22.4992C47.6004 22.4992 47.1004 22.4992 46.4004 22.4992C46.1004 22.4992 45.9004 22.4992 45.6004 22.4992V15.2992H46.3004C46.9004 15.2992 47.5004 15.2992 48.2004 15.2992C48.5004 15.2992 48.9004 15.3992 49.2004 15.3992C50.0004 15.5992 50.6004 16.0992 51.1004 16.9992C51.7004 17.9992 51.8004 19.5992 51.1004 20.7992C50.5004 21.7992 49.5004 22.3992 48.4004 22.4992Z" fill="#FFF9BE"/>
<path d="M38.4996 31.5996C37.6996 30.7996 37.1996 29.7996 36.7996 28.9996L35.1996 25.4996C33.5996 21.8996 31.9996 18.1996 30.3996 14.4996C30.0996 13.8996 29.8996 13.5996 29.1996 13.5996C28.6996 13.5996 28.3996 13.7996 28.1996 14.2996L27.2996 16.2996C25.7996 19.5996 24.4996 22.6996 22.8996 26.0996C22.6996 26.4996 22.5996 26.7996 22.3996 27.1996C21.6996 28.7996 21.0996 30.3996 19.6996 31.4996C19.5996 31.5996 19.5996 31.5996 19.5996 31.6996C19.5996 31.7996 19.6996 31.7996 19.7996 31.7996C20.3996 31.7996 21.1996 31.7996 21.9996 31.7996C22.8996 31.7996 23.6996 31.7996 24.2996 31.7996C24.3996 31.7996 24.3996 31.7996 24.4996 31.6996C24.4996 31.5996 24.4996 31.4996 24.4996 31.4996C23.8996 30.8996 23.6996 30.0996 23.8996 29.2996C24.0996 28.5996 24.3996 27.9996 24.6996 27.3996C24.7996 27.1996 24.8996 26.9996 24.8996 26.7996H24.9996C26.3996 26.7996 27.3996 26.7996 28.3996 26.7996C29.2996 26.7996 30.2996 26.7996 31.5996 26.7996C31.6996 26.7996 31.6996 26.7996 31.7996 26.8996C31.8996 27.2996 32.0996 27.5996 32.2996 27.9996C32.4996 28.3996 32.5996 28.7996 32.7996 29.0996C33.1996 30.0996 33.1996 30.8996 32.6996 31.5996C32.6996 31.6996 32.6996 31.6996 32.6996 31.7996C32.6996 31.8996 32.7996 31.8996 32.8996 31.8996H38.2996C38.3996 31.8996 38.3996 31.8996 38.4996 31.7996C38.5996 31.6996 38.5996 31.5996 38.4996 31.5996ZM30.9996 24.7996H25.8996C26.3996 23.7996 26.7996 22.7996 27.1996 21.7996C27.5996 20.7996 27.9996 19.8996 28.4996 18.8996C28.8996 19.8996 29.2996 20.8996 29.6996 21.7996C30.0996 22.6996 30.4996 23.6996 30.9996 24.7996Z" fill="#FFF9BE"/>
<path d="M114 31.5996C113.2 30.7996 112.7 29.7996 112.3 28.9996L110.7 25.4996C109.1 21.8996 107.5 18.1996 105.9 14.4996C105.6 13.8996 105.4 13.5996 104.7 13.5996C104.2 13.5996 103.9 13.7996 103.7 14.2996L102.8 16.2996C101.3 19.5996 99.9996 22.6996 98.3996 26.0996C98.1996 26.4996 98.0996 26.7996 97.8996 27.1996C97.1996 28.7996 96.5996 30.3996 95.1996 31.4996C95.0996 31.5996 95.0996 31.5996 95.0996 31.6996C95.0996 31.7996 95.1996 31.7996 95.2996 31.7996C95.8996 31.7996 96.6996 31.7996 97.4996 31.7996C98.3996 31.7996 99.1996 31.7996 99.7996 31.7996C99.8996 31.7996 99.8996 31.7996 99.9996 31.6996C99.9996 31.5996 99.9996 31.4996 99.9996 31.4996C99.3996 30.8996 99.1996 30.0996 99.3996 29.2996C99.5996 28.5996 99.8996 27.9996 100.2 27.3996C100.3 27.1996 100.4 26.9996 100.4 26.7996H100.5C101.9 26.7996 102.9 26.7996 103.9 26.7996C104.8 26.7996 105.8 26.7996 107.1 26.7996C107.2 26.7996 107.2 26.7996 107.3 26.8996C107.4 27.2996 107.6 27.5996 107.8 27.9996C108 28.3996 108.1 28.7996 108.3 29.0996C108.7 30.0996 108.7 30.8996 108.2 31.5996C108.2 31.6996 108.2 31.6996 108.2 31.7996C108.2 31.8996 108.3 31.8996 108.4 31.8996H113.8C113.9 31.8996 113.9 31.8996 114 31.7996C114 31.6996 114 31.5996 114 31.5996ZM106.5 24.7996H101.4C101.9 23.7996 102.3 22.7996 102.7 21.7996C103.1 20.7996 103.5 19.8996 104 18.8996C104.4 19.8996 104.8 20.8996 105.2 21.7996C105.6 22.6996 106 23.6996 106.5 24.7996Z" fill="#FFF9BE"/>
<path d="M73.2992 31.5996C72.7992 30.8996 72.6992 30.1996 72.6992 29.4996C72.6992 26.6996 72.6992 23.7996 72.6992 20.9996V15.8996C72.6992 15.6996 72.6992 15.3996 72.6992 15.1996C72.7992 14.8996 72.8992 14.5996 72.9992 14.2996C72.9992 14.1996 73.0992 13.9996 73.0992 13.8996C73.0992 13.7996 73.0992 13.7996 73.0992 13.6996C73.0992 13.6996 72.9992 13.5996 72.8992 13.5996H68.5992C68.4992 13.5996 68.4992 13.5996 68.3992 13.6996C68.3992 13.7996 68.3992 13.7996 68.3992 13.8996C68.8992 14.5996 68.8992 15.2996 68.8992 15.8996C68.8992 15.9996 68.8992 16.0996 68.8992 16.2996L61.4992 25.7996C61.4992 24.1996 61.4992 22.5996 61.4992 20.9996V15.8996C61.4992 15.6996 61.4992 15.3996 61.4992 15.1996C61.5992 14.8996 61.6992 14.5996 61.7992 14.2996C61.7992 14.1996 61.8992 13.9996 61.8992 13.8996C61.8992 13.7996 61.8992 13.7996 61.8992 13.6996C61.8992 13.6996 61.7992 13.5996 61.6992 13.5996H57.3992C57.2992 13.5996 57.2992 13.5996 57.1992 13.6996C57.1992 13.7996 57.1992 13.7996 57.1992 13.8996C57.6992 14.5996 57.6992 15.2996 57.6992 15.8996C57.6992 20.2996 57.6992 24.7996 57.6992 29.1996C57.6992 30.0996 57.6992 30.7996 57.1992 31.4996C57.1992 31.5996 57.1992 31.5996 57.1992 31.6996C57.1992 31.7996 57.2992 31.7996 57.3992 31.7996H61.8992C61.9992 31.7996 61.9992 31.7996 62.0992 31.6996C62.0992 31.5996 62.0992 31.5996 62.0992 31.4996C61.5992 30.7996 61.4992 30.0996 61.4992 29.3996C61.4992 29.2996 61.4992 29.1996 61.4992 29.0996L68.8992 19.5996C68.8992 22.7996 68.8992 25.9996 68.8992 29.1996C68.8992 30.0996 68.8992 30.7996 68.3992 31.4996C68.3992 31.5996 68.3992 31.5996 68.3992 31.6996C68.3992 31.7996 68.4992 31.7996 68.5992 31.7996H73.0992C73.1992 31.7996 73.1992 31.7996 73.2992 31.6996C73.2992 31.7996 73.2992 31.6996 73.2992 31.5996Z" fill="#FFF9BE"/>
<path d="M17.5 29.7992C17.4 29.6992 15.9 29.4992 15.3 27.9992L10.3 14.3992C10.2 13.9992 9.8 13.7992 9.3 13.6992C8.8 13.6992 8.4 13.8992 8.2 14.3992L2.5 28.1992C2 29.4992 0.2 29.6992 0.1 29.6992C0.1 29.6992 0 29.6992 0 29.7992V29.8992L0.4 34.9992C0.4 35.0992 0.5 35.1992 0.6 35.1992H1.5C1.7 35.1992 1.7 35.0992 1.7 34.9992C1.7 34.8992 1.7 34.8992 1.7 34.7992C1.8 33.7992 2 31.9992 3.6 31.9992H14.1C15.4 31.9992 15.7 33.4992 15.8 34.5992C15.8 34.7992 15.8 34.8992 15.9 34.9992C15.9 35.0992 16 35.1992 16.1 35.1992H16.9C17 35.1992 17.1 35.0992 17.1 34.9992L17.5 29.7992ZM11.6 29.3992H4.3L8.2 19.2992L11.6 29.3992Z" fill="#FFF9BE"/>
<path d="M93.3008 29.7992C93.2008 29.6992 91.7008 29.4992 91.1008 27.9992L86.1008 14.3992C86.0008 13.9992 85.6008 13.7992 85.1008 13.6992C84.6008 13.6992 84.2008 13.8992 84.0008 14.3992L78.3008 28.1992C77.8008 29.4992 76.0008 29.6992 75.9008 29.6992C75.9008 29.6992 75.8008 29.6992 75.8008 29.7992V29.8992L76.2008 35.0992C76.2008 35.1992 76.3008 35.2992 76.4008 35.2992H77.3008C77.5008 35.2992 77.5008 35.1992 77.5008 35.0992C77.5008 34.9992 77.5008 34.9992 77.5008 34.8992C77.6008 33.8992 77.8008 32.0992 79.4008 32.0992H89.9008C91.2008 32.0992 91.5008 33.5992 91.6008 34.6992C91.6008 34.8992 91.6008 34.9992 91.7008 35.0992C91.7008 35.1992 91.8008 35.2992 91.9008 35.2992H92.7008C92.8008 35.2992 92.9008 35.1992 92.9008 35.0992L93.3008 29.7992ZM87.3008 29.3992H80.0008L83.9008 19.2992L87.3008 29.3992Z" fill="#FFF9BE"/>
<path d="M51.0004 23.9992C51.7004 23.7992 52.3004 23.4992 53.1004 22.8992C54.3004 21.9992 55.0004 20.6992 55.1004 19.1992C55.2004 17.7992 54.6004 16.3992 53.6004 15.3992C52.2004 13.9992 50.5004 13.6992 49.4004 13.6992C47.4004 13.6992 45.6004 13.6992 43.6004 13.6992C42.9004 13.6992 42.2004 13.6992 41.4004 13.6992C41.4004 13.6992 41.3004 13.6992 41.2004 13.6992H41.1004C41.0004 13.6992 41.0004 13.6992 40.9004 13.7992C40.9004 13.8992 40.9004 13.8992 40.9004 13.9992C41.3004 14.4992 41.4004 15.0992 41.4004 15.9992V17.3992C41.4004 21.3992 41.4004 25.2992 41.4004 29.2992C41.4004 30.1992 41.4004 30.9992 40.9004 31.6992C40.9004 31.7992 40.9004 31.7992 40.9004 31.8992C40.9004 31.9992 41.0004 31.9992 41.1004 31.9992H45.7004C45.8004 31.9992 45.8004 31.9992 45.9004 31.8992C45.9004 31.7992 45.9004 31.7992 45.9004 31.6992C45.4004 30.9992 45.3004 30.2992 45.3004 29.5992C45.3004 28.5992 45.3004 27.6992 45.3004 26.6992V24.5992H47.3004C49.4004 24.4992 51.0004 23.9992 51.0004 23.9992ZM48.4004 22.4992C47.6004 22.4992 47.1004 22.4992 46.4004 22.4992C46.1004 22.4992 45.9004 22.4992 45.6004 22.4992V15.2992H46.3004C46.9004 15.2992 47.5004 15.2992 48.2004 15.2992C48.5004 15.2992 48.9004 15.3992 49.2004 15.3992C50.0004 15.5992 50.6004 16.0992 51.1004 16.9992C51.7004 17.9992 51.8004 19.5992 51.1004 20.7992C50.5004 21.7992 49.5004 22.3992 48.4004 22.4992Z" fill="#FFF9BE"/>
<path d="M38.4996 31.5996C37.6996 30.7996 37.1996 29.7996 36.7996 28.9996L35.1996 25.4996C33.5996 21.8996 31.9996 18.1996 30.3996 14.4996C30.0996 13.8996 29.8996 13.5996 29.1996 13.5996C28.6996 13.5996 28.3996 13.7996 28.1996 14.2996L27.2996 16.2996C25.7996 19.5996 24.4996 22.6996 22.8996 26.0996C22.6996 26.4996 22.5996 26.7996 22.3996 27.1996C21.6996 28.7996 21.0996 30.3996 19.6996 31.4996C19.5996 31.5996 19.5996 31.5996 19.5996 31.6996C19.5996 31.7996 19.6996 31.7996 19.7996 31.7996C20.3996 31.7996 21.1996 31.7996 21.9996 31.7996C22.8996 31.7996 23.6996 31.7996 24.2996 31.7996C24.3996 31.7996 24.3996 31.7996 24.4996 31.6996C24.4996 31.5996 24.4996 31.4996 24.4996 31.4996C23.8996 30.8996 23.6996 30.0996 23.8996 29.2996C24.0996 28.5996 24.3996 27.9996 24.6996 27.3996C24.7996 27.1996 24.8996 26.9996 24.8996 26.7996H24.9996C26.3996 26.7996 27.3996 26.7996 28.3996 26.7996C29.2996 26.7996 30.2996 26.7996 31.5996 26.7996C31.6996 26.7996 31.6996 26.7996 31.7996 26.8996C31.8996 27.2996 32.0996 27.5996 32.2996 27.9996C32.4996 28.3996 32.5996 28.7996 32.7996 29.0996C33.1996 30.0996 33.1996 30.8996 32.6996 31.5996C32.6996 31.6996 32.6996 31.6996 32.6996 31.7996C32.6996 31.8996 32.7996 31.8996 32.8996 31.8996H38.2996C38.3996 31.8996 38.3996 31.8996 38.4996 31.7996C38.5996 31.6996 38.5996 31.5996 38.4996 31.5996ZM30.9996 24.7996H25.8996C26.3996 23.7996 26.7996 22.7996 27.1996 21.7996C27.5996 20.7996 27.9996 19.8996 28.4996 18.8996C28.8996 19.8996 29.2996 20.8996 29.6996 21.7996C30.0996 22.6996 30.4996 23.6996 30.9996 24.7996Z" fill="#FFF9BE"/>
<path d="M114 31.5996C113.2 30.7996 112.7 29.7996 112.3 28.9996L110.7 25.4996C109.1 21.8996 107.5 18.1996 105.9 14.4996C105.6 13.8996 105.4 13.5996 104.7 13.5996C104.2 13.5996 103.9 13.7996 103.7 14.2996L102.8 16.2996C101.3 19.5996 99.9996 22.6996 98.3996 26.0996C98.1996 26.4996 98.0996 26.7996 97.8996 27.1996C97.1996 28.7996 96.5996 30.3996 95.1996 31.4996C95.0996 31.5996 95.0996 31.5996 95.0996 31.6996C95.0996 31.7996 95.1996 31.7996 95.2996 31.7996C95.8996 31.7996 96.6996 31.7996 97.4996 31.7996C98.3996 31.7996 99.1996 31.7996 99.7996 31.7996C99.8996 31.7996 99.8996 31.7996 99.9996 31.6996C99.9996 31.5996 99.9996 31.4996 99.9996 31.4996C99.3996 30.8996 99.1996 30.0996 99.3996 29.2996C99.5996 28.5996 99.8996 27.9996 100.2 27.3996C100.3 27.1996 100.4 26.9996 100.4 26.7996H100.5C101.9 26.7996 102.9 26.7996 103.9 26.7996C104.8 26.7996 105.8 26.7996 107.1 26.7996C107.2 26.7996 107.2 26.7996 107.3 26.8996C107.4 27.2996 107.6 27.5996 107.8 27.9996C108 28.3996 108.1 28.7996 108.3 29.0996C108.7 30.0996 108.7 30.8996 108.2 31.5996C108.2 31.6996 108.2 31.6996 108.2 31.7996C108.2 31.8996 108.3 31.8996 108.4 31.8996H113.8C113.9 31.8996 113.9 31.8996 114 31.7996C114 31.6996 114 31.5996 114 31.5996ZM106.5 24.7996H101.4C101.9 23.7996 102.3 22.7996 102.7 21.7996C103.1 20.7996 103.5 19.8996 104 18.8996C104.4 19.8996 104.8 20.8996 105.2 21.7996C105.6 22.6996 106 23.6996 106.5 24.7996Z" fill="#FFF9BE"/>
<path d="M73.2992 31.5996C72.7992 30.8996 72.6992 30.1996 72.6992 29.4996C72.6992 26.6996 72.6992 23.7996 72.6992 20.9996V15.8996C72.6992 15.6996 72.6992 15.3996 72.6992 15.1996C72.7992 14.8996 72.8992 14.5996 72.9992 14.2996C72.9992 14.1996 73.0992 13.9996 73.0992 13.8996C73.0992 13.7996 73.0992 13.7996 73.0992 13.6996C73.0992 13.6996 72.9992 13.5996 72.8992 13.5996H68.5992C68.4992 13.5996 68.4992 13.5996 68.3992 13.6996C68.3992 13.7996 68.3992 13.7996 68.3992 13.8996C68.8992 14.5996 68.8992 15.2996 68.8992 15.8996C68.8992 15.9996 68.8992 16.0996 68.8992 16.2996L61.4992 25.7996C61.4992 24.1996 61.4992 22.5996 61.4992 20.9996V15.8996C61.4992 15.6996 61.4992 15.3996 61.4992 15.1996C61.5992 14.8996 61.6992 14.5996 61.7992 14.2996C61.7992 14.1996 61.8992 13.9996 61.8992 13.8996C61.8992 13.7996 61.8992 13.7996 61.8992 13.6996C61.8992 13.6996 61.7992 13.5996 61.6992 13.5996H57.3992C57.2992 13.5996 57.2992 13.5996 57.1992 13.6996C57.1992 13.7996 57.1992 13.7996 57.1992 13.8996C57.6992 14.5996 57.6992 15.2996 57.6992 15.8996C57.6992 20.2996 57.6992 24.7996 57.6992 29.1996C57.6992 30.0996 57.6992 30.7996 57.1992 31.4996C57.1992 31.5996 57.1992 31.5996 57.1992 31.6996C57.1992 31.7996 57.2992 31.7996 57.3992 31.7996H61.8992C61.9992 31.7996 61.9992 31.7996 62.0992 31.6996C62.0992 31.5996 62.0992 31.5996 62.0992 31.4996C61.5992 30.7996 61.4992 30.0996 61.4992 29.3996C61.4992 29.2996 61.4992 29.1996 61.4992 29.0996L68.8992 19.5996C68.8992 22.7996 68.8992 25.9996 68.8992 29.1996C68.8992 30.0996 68.8992 30.7996 68.3992 31.4996C68.3992 31.5996 68.3992 31.5996 68.3992 31.6996C68.3992 31.7996 68.4992 31.7996 68.5992 31.7996H73.0992C73.1992 31.7996 73.1992 31.7996 73.2992 31.6996C73.2992 31.7996 73.2992 31.6996 73.2992 31.5996Z" fill="#FFF9BE"/>
<path d="M17.5 29.7992C17.4 29.6992 15.9 29.4992 15.3 27.9992L10.3 14.3992C10.2 13.9992 9.8 13.7992 9.3 13.6992C8.8 13.6992 8.4 13.8992 8.2 14.3992L2.5 28.1992C2 29.4992 0.2 29.6992 0.1 29.6992C0.1 29.6992 0 29.6992 0 29.7992V29.8992L0.4 34.9992C0.4 35.0992 0.5 35.1992 0.6 35.1992H1.5C1.7 35.1992 1.7 35.0992 1.7 34.9992C1.7 34.8992 1.7 34.8992 1.7 34.7992C1.8 33.7992 2 31.9992 3.6 31.9992H14.1C15.4 31.9992 15.7 33.4992 15.8 34.5992C15.8 34.7992 15.8 34.8992 15.9 34.9992C15.9 35.0992 16 35.1992 16.1 35.1992H16.9C17 35.1992 17.1 35.0992 17.1 34.9992L17.5 29.7992ZM11.6 29.3992H4.3L8.2 19.2992L11.6 29.3992Z" fill="#FFF9BE"/>
<path d="M93.3008 29.7992C93.2008 29.6992 91.7008 29.4992 91.1008 27.9992L86.1008 14.3992C86.0008 13.9992 85.6008 13.7992 85.1008 13.6992C84.6008 13.6992 84.2008 13.8992 84.0008 14.3992L78.3008 28.1992C77.8008 29.4992 76.0008 29.6992 75.9008 29.6992C75.9008 29.6992 75.8008 29.6992 75.8008 29.7992V29.8992L76.2008 35.0992C76.2008 35.1992 76.3008 35.2992 76.4008 35.2992H77.3008C77.5008 35.2992 77.5008 35.1992 77.5008 35.0992C77.5008 34.9992 77.5008 34.9992 77.5008 34.8992C77.6008 33.8992 77.8008 32.0992 79.4008 32.0992H89.9008C91.2008 32.0992 91.5008 33.5992 91.6008 34.6992C91.6008 34.8992 91.6008 34.9992 91.7008 35.0992C91.7008 35.1992 91.8008 35.2992 91.9008 35.2992H92.7008C92.8008 35.2992 92.9008 35.1992 92.9008 35.0992L93.3008 29.7992ZM87.3008 29.3992H80.0008L83.9008 19.2992L87.3008 29.3992Z" fill="#FFF9BE"/>
</g>
<defs>
<clipPath id="clip0_377_1120">
<rect width="274.5" height="48.9" fill="white"/>
</clipPath>
</defs>
</svg>
