<svg width="1920" height="180" viewBox="0 0 1920 180" fill="none" xmlns="http://www.w3.org/2000/svg">
<path d="M1982.45 0C1982.45 2.02864 1980.87 3.60648 1978.84 3.60648C1976.8 3.60648 1975.22 2.02864 1975.22 0H1968.9C1968.9 2.02864 1967.32 3.60648 1965.28 3.60648C1963.25 3.60648 1961.67 2.02864 1961.67 0H1955.35C1955.35 2.02864 1953.77 3.60648 1951.73 3.60648C1949.7 3.60648 1948.12 2.02864 1948.12 0H1941.79C1941.79 2.02864 1940.21 3.60648 1938.18 3.60648C1936.15 3.60648 1934.57 2.02864 1934.57 0H1928.24C1928.24 2.02864 1926.66 3.60648 1924.63 3.60648C1922.6 3.60648 1921.01 2.02864 1921.01 0H1914.69C1914.69 2.02864 1913.11 3.60648 1911.08 3.60648C1909.04 3.60648 1907.46 2.02864 1907.46 0H1901.14C1901.14 2.02864 1899.56 3.60648 1897.52 3.60648C1895.49 3.60648 1893.91 2.02864 1893.91 0H1887.59C1887.59 2.02864 1886.01 3.60648 1883.97 3.60648C1881.94 3.60648 1880.36 2.02864 1880.36 0H1874.03C1874.03 2.02864 1872.45 3.60648 1870.42 3.60648C1868.39 3.60648 1866.81 2.02864 1866.81 0H1860.48C1860.48 2.02864 1858.9 3.60648 1856.87 3.60648C1854.84 3.60648 1853.25 2.02864 1853.25 0H1846.93C1846.93 2.02864 1845.35 3.60648 1843.32 3.60648C1841.28 3.60648 1839.7 2.02864 1839.7 0H1833.38C1833.38 2.02864 1831.8 3.60648 1829.76 3.60648C1827.73 3.60648 1826.15 2.02864 1826.15 0H1819.83C1819.83 2.02864 1818.25 3.60648 1816.21 3.60648C1814.18 3.60648 1812.6 2.02864 1812.6 0H1806.27C1806.27 2.02864 1804.69 3.60648 1802.66 3.60648C1800.63 3.60648 1799.05 2.02864 1799.05 0H1792.72C1792.72 2.02864 1791.14 3.60648 1789.11 3.60648C1787.08 3.60648 1785.49 2.02864 1785.49 0H1779.17C1779.17 2.02864 1777.59 3.60648 1775.56 3.60648C1773.52 3.60648 1771.94 2.02864 1771.94 0H1765.62C1765.62 2.02864 1764.04 3.60648 1762 3.60648C1759.97 3.60648 1758.39 2.02864 1758.39 0H1752.07C1752.07 2.02864 1750.49 3.60648 1748.45 3.60648C1746.42 3.60648 1744.84 2.02864 1744.84 0H1738.51C1738.51 2.02864 1736.93 3.60648 1734.9 3.60648C1732.87 3.60648 1731.29 2.02864 1731.29 0H1729.93H1724.96H1724.74C1724.74 2.02864 1723.16 3.60648 1721.12 3.60648C1719.09 3.60648 1717.51 2.02864 1717.51 0H1715.93H1709.83H1709.6C1709.6 2.02864 1708.02 3.60648 1705.99 3.60648C1703.96 3.60648 1702.38 2.02864 1702.38 0H1702.15H1696.05H1695.83C1695.83 2.02864 1694.24 3.60648 1692.21 3.60648C1690.18 3.60648 1688.6 2.02864 1688.6 0H1688.37H1682.27H1682.05C1682.05 2.02864 1680.47 3.60648 1678.43 3.60648C1676.4 3.60648 1674.82 2.02864 1674.82 0H1674.59H1668.5H1668.27C1668.27 2.02864 1666.69 3.60648 1664.66 3.60648C1662.62 3.60648 1661.04 2.02864 1661.04 0H1660.82H1654.72H1654.94C1654.94 2.02864 1653.36 3.60648 1651.33 3.60648C1649.3 3.60648 1647.72 2.02864 1647.72 0H1647.49H1641.39C1641.39 2.02864 1639.81 3.60648 1637.78 3.60648C1635.74 3.60648 1634.16 2.02864 1634.16 0H1633.94H1627.84C1627.84 2.02864 1626.26 3.60648 1624.23 3.60648C1622.19 3.60648 1620.61 2.02864 1620.61 0H1620.39H1614.29H1614.06C1614.06 2.02864 1612.48 3.60648 1610.45 3.60648C1608.41 3.60648 1606.83 2.02864 1606.83 0H1606.61H1600.74H1600.51C1600.51 2.02864 1598.93 3.60648 1596.9 3.60648C1594.86 3.60648 1593.28 2.02864 1593.28 0H1593.06H1587.18H1586.96C1586.96 2.02864 1585.38 3.60648 1583.34 3.60648C1581.31 3.60648 1579.73 2.02864 1579.73 0H1579.5H1573.63H1573.41C1573.41 2.02864 1571.82 3.60648 1569.79 3.60648C1567.76 3.60648 1566.18 2.02864 1566.18 0H1565.95H1559.85H1559.63C1559.63 2.02864 1558.05 3.60648 1556.01 3.60648C1553.98 3.60648 1552.4 2.02864 1552.4 0H1552.17H1546.08H1545.85C1545.85 2.02864 1544.27 3.60648 1542.24 3.60648C1540.2 3.60648 1538.62 2.02864 1538.62 0H1538.4H1532.3H1532.07C1532.07 2.02864 1530.49 3.60648 1528.46 3.60648C1526.43 3.60648 1524.84 2.02864 1524.84 0H1524.62H1518.52H1518.29C1518.29 2.02864 1516.71 3.60648 1514.68 3.60648C1512.65 3.60648 1511.07 2.02864 1511.07 0H1510.84H1504.74H1504.52C1504.52 2.02864 1502.94 3.60648 1500.9 3.60648C1498.87 3.60648 1497.29 2.02864 1497.29 0H1497.06H1490.96H1490.74C1490.74 2.02864 1489.16 3.60648 1487.12 3.60648C1485.09 3.60648 1483.51 2.02864 1483.51 0H1483.28H1478.77H1476.96C1476.96 2.02864 1475.38 3.60648 1473.35 3.60648C1471.31 3.60648 1469.73 2.02864 1469.73 0H1468.6H1463.41C1463.41 2.02864 1461.83 3.60648 1459.79 3.60648C1457.76 3.60648 1456.18 2.02864 1456.18 0H1449.86C1449.86 2.02864 1448.28 3.60648 1446.24 3.60648C1444.21 3.60648 1442.63 2.02864 1442.63 0H1442.4H1436.3C1436.3 2.02864 1434.72 3.60648 1432.69 3.60648C1430.66 3.60648 1429.08 2.02864 1429.08 0H1422.75C1422.75 2.02864 1421.17 3.60648 1419.14 3.60648C1417.11 3.60648 1415.52 2.02864 1415.52 0H1409.2C1409.2 2.02864 1407.62 3.60648 1405.59 3.60648C1403.55 3.60648 1401.97 2.02864 1401.97 0H1395.65C1395.65 2.02864 1394.07 3.60648 1392.03 3.60648C1390 3.60648 1388.42 2.02864 1388.42 0H1382.1C1382.1 2.02864 1380.52 3.60648 1378.48 3.60648C1376.45 3.60648 1374.87 2.02864 1374.87 0H1368.54C1368.54 2.02864 1366.96 3.60648 1364.93 3.60648C1362.9 3.60648 1361.32 2.02864 1361.32 0H1354.99C1354.99 2.02864 1353.41 3.60648 1351.38 3.60648C1349.35 3.60648 1347.76 2.02864 1347.76 0H1341.44C1341.44 2.02864 1339.86 3.60648 1337.83 3.60648C1335.79 3.60648 1334.21 2.02864 1334.21 0H1327.89C1327.89 2.02864 1326.31 3.60648 1324.27 3.60648C1322.24 3.60648 1320.66 2.02864 1320.66 0H1314.34C1314.34 2.02864 1312.76 3.60648 1310.72 3.60648C1308.69 3.60648 1307.11 2.02864 1307.11 0H1300.78C1300.78 2.02864 1299.2 3.60648 1297.17 3.60648C1295.14 3.60648 1293.56 2.02864 1293.56 0H1287.23C1287.23 2.02864 1285.65 3.60648 1283.62 3.60648C1281.59 3.60648 1280 2.02864 1280 0H1273.68C1273.68 2.02864 1272.1 3.60648 1270.07 3.60648C1268.03 3.60648 1266.45 2.02864 1266.45 0H1259.68C1259.68 2.02864 1258.1 3.60648 1256.06 3.60648C1254.03 3.60648 1252.45 2.02864 1252.45 0H1246.12C1246.12 2.02864 1244.54 3.60648 1242.51 3.60648C1240.48 3.60648 1238.9 2.02864 1238.9 0H1232.57C1232.57 2.02864 1230.99 3.60648 1228.96 3.60648C1226.93 3.60648 1225.35 2.02864 1225.35 0H1219.02C1219.02 2.02864 1217.44 3.60648 1215.41 3.60648C1213.37 3.60648 1211.79 2.02864 1211.79 0H1210.44H1205.47H1205.24C1205.24 2.02864 1203.66 3.60648 1201.63 3.60648C1199.6 3.60648 1198.02 2.02864 1198.02 0H1197.79H1191.69H1191.47C1191.47 2.02864 1189.88 3.60648 1187.85 3.60648C1185.82 3.60648 1184.24 2.02864 1184.24 0H1184.01H1177.91H1177.69C1177.69 2.02864 1176.11 3.60648 1174.07 3.60648C1172.04 3.60648 1170.46 2.02864 1170.46 0H1170.23H1164.14H1163.91C1163.91 2.02864 1162.33 3.60648 1160.3 3.60648C1158.26 3.60648 1156.68 2.02864 1156.68 0H1156.46H1150.36H1150.13C1150.13 2.02864 1148.55 3.60648 1146.52 3.60648C1144.48 3.60648 1142.9 2.02864 1142.9 0H1142.68H1136.58H1136.35C1136.35 2.02864 1134.77 3.60648 1132.74 3.60648C1130.71 3.60648 1129.13 2.02864 1129.13 0H1128.9H1122.8H1122.58C1122.58 2.02864 1120.99 3.60648 1118.96 3.60648C1116.93 3.60648 1115.35 2.02864 1115.35 0H1115.12H1109.02H1108.8C1108.8 2.02864 1107.22 3.60648 1105.18 3.60648C1103.15 3.60648 1101.57 2.02864 1101.57 0H1101.34H1095.25H1095.02C1095.02 2.02864 1093.44 3.60648 1091.41 3.60648C1089.37 3.60648 1087.79 2.02864 1087.79 0H1087.57H1081.47H1081.24C1081.24 2.02864 1079.66 3.60648 1077.63 3.60648C1075.6 3.60648 1074.01 2.02864 1074.01 0H1073.79H1067.69H1067.46C1067.46 2.02864 1065.88 3.60648 1063.85 3.60648C1061.82 3.60648 1060.24 2.02864 1060.24 0H1060.01H1053.91H1053.69C1053.69 2.02864 1052.11 3.60648 1050.07 3.60648C1048.04 3.60648 1046.46 2.02864 1046.46 0H1046.23H1040.13H1039.91C1039.91 2.02864 1038.33 3.60648 1036.29 3.60648C1034.26 3.60648 1032.68 2.02864 1032.68 0H1032.46H1026.36H1026.13C1026.13 2.02864 1024.55 3.60648 1022.52 3.60648C1020.48 3.60648 1018.9 2.02864 1018.9 0H1018.68H1012.58H1012.35C1012.35 2.02864 1010.77 3.60648 1008.74 3.60648C1006.71 3.60648 1005.13 2.02864 1005.13 0H1004.9H998.801H998.575C998.575 2.02864 996.994 3.60648 994.961 3.60648C992.928 3.60648 991.347 2.02864 991.347 0H993.154H992.928H987.733H987.282H987.056C987.056 1.80324 985.701 3.38107 983.668 3.60648C981.861 3.38107 980.506 1.80324 980.506 0H980.054H979.602H973.956H973.504H973.278C973.278 1.80324 971.923 3.38107 969.89 3.60648C968.083 3.38107 966.728 1.80324 966.728 0H966.276H966.05H961.533H960.629H959.952C959.952 1.80324 958.597 3.38107 956.564 3.60648C954.757 3.38107 953.176 1.80324 953.176 0H952.498H946.852H946.174C946.174 1.80324 944.819 3.38107 942.786 3.60648C940.979 3.38107 939.398 1.80324 939.398 0H938.72H933.074H932.396C932.396 1.80324 931.041 3.38107 929.008 3.60648C927.201 3.38107 925.62 1.80324 925.62 0H924.942H924.717H919.296C919.296 2.02864 917.715 3.60648 915.682 3.60648C913.649 3.60648 912.068 2.02864 912.068 0H905.744C905.744 2.02864 904.163 3.60648 902.13 3.60648C900.097 3.60648 898.516 2.02864 898.516 0H892.192C892.192 2.02864 890.611 3.60648 888.578 3.60648C886.545 3.60648 884.964 2.02864 884.964 0H878.64C878.64 2.02864 877.059 3.60648 875.026 3.60648C872.993 3.60648 871.412 2.02864 871.412 0H865.088C865.088 2.02864 863.507 3.60648 861.474 3.60648C859.441 3.60648 857.86 2.02864 857.86 0H851.536C851.536 2.02864 849.955 3.60648 847.922 3.60648C845.889 3.60648 844.308 2.02864 844.308 0H837.984C837.984 2.02864 836.403 3.60648 834.37 3.60648C832.337 3.60648 830.756 2.02864 830.756 0H824.432C824.432 2.02864 822.851 3.60648 820.818 3.60648C818.785 3.60648 817.204 2.02864 817.204 0H810.88C810.88 2.02864 809.299 3.60648 807.266 3.60648C805.233 3.60648 803.652 2.02864 803.652 0H797.328C797.328 2.02864 795.747 3.60648 793.714 3.60648C791.681 3.60648 790.1 2.02864 790.1 0H783.098C783.098 2.02864 781.517 3.60648 779.484 3.60648C777.452 3.60648 775.871 2.02864 775.871 0H769.546C769.546 2.02864 767.965 3.60648 765.932 3.60648C763.9 3.60648 762.319 2.02864 762.319 0H755.994C755.994 2.02864 754.413 3.60648 752.38 3.60648C750.348 3.60648 748.767 2.02864 748.767 0H742.442C742.442 2.02864 740.861 3.60648 738.828 3.60648C736.796 3.60648 735.215 2.02864 735.215 0H733.859H728.89H728.664C728.664 2.02864 727.083 3.60648 725.051 3.60648C723.018 3.60648 721.437 2.02864 721.437 0H721.211H715.112H714.887C714.887 2.02864 713.306 3.60648 711.273 3.60648C709.24 3.60648 707.659 2.02864 707.659 0H707.433H701.335H701.109C701.109 2.02864 699.528 3.60648 697.495 3.60648C695.462 3.60648 693.881 2.02864 693.881 0H693.655H687.557H687.331C687.331 2.02864 685.75 3.60648 683.717 3.60648C681.684 3.60648 680.103 2.02864 680.103 0H679.877H673.779H673.553C673.553 2.02864 671.972 3.60648 669.939 3.60648C667.906 3.60648 666.325 2.02864 666.325 0H666.099H660.001H659.775C659.775 2.02864 658.194 3.60648 656.161 3.60648C654.128 3.60648 652.547 2.02864 652.547 0H652.322H646.223H645.997C645.997 2.02864 644.416 3.60648 642.383 3.60648C640.351 3.60648 638.77 2.02864 638.77 0H638.544H632.445H632.219C632.219 2.02864 630.638 3.60648 628.606 3.60648C626.573 3.60648 624.992 2.02864 624.992 0H624.766H618.667H618.442C618.442 2.02864 616.86 3.60648 614.828 3.60648C612.795 3.60648 611.214 2.02864 611.214 0H610.988H604.89H604.664C604.664 2.02864 603.083 3.60648 601.05 3.60648C599.017 3.60648 597.436 2.02864 597.436 0H597.21H591.112H590.886C590.886 2.02864 589.305 3.60648 587.272 3.60648C585.239 3.60648 583.658 2.02864 583.658 0H583.432H577.334H577.108C577.108 2.02864 575.527 3.60648 573.494 3.60648C571.461 3.60648 569.88 2.02864 569.88 0H569.654H563.556H563.33C563.33 2.02864 561.749 3.60648 559.716 3.60648C557.683 3.60648 556.102 2.02864 556.102 0H555.876H549.778H549.552C549.552 2.02864 547.971 3.60648 545.938 3.60648C543.906 3.60648 542.324 2.02864 542.324 0H542.099H536H535.774C535.774 2.02864 534.193 3.60648 532.16 3.60648C530.128 3.60648 528.547 2.02864 528.547 0H528.321H522.222H521.996C521.996 2.02864 520.415 3.60648 518.383 3.60648C516.35 3.60648 514.769 2.02864 514.769 0H516.576H510.477H510.251C510.251 2.02864 508.67 3.60648 506.638 3.60648C504.605 3.60648 503.024 2.02864 503.024 0H496.925H496.699C496.699 2.02864 495.118 3.60648 493.086 3.60648C491.053 3.60648 489.472 2.02864 489.472 0H489.246H484.728H482.922C482.922 2.02864 481.34 3.60648 479.308 3.60648C477.275 3.60648 475.694 2.02864 475.694 0H474.564H469.37C469.37 2.02864 467.788 3.60648 465.756 3.60648C463.723 3.60648 462.142 2.02864 462.142 0H455.818C455.818 2.02864 454.236 3.60648 452.204 3.60648C450.171 3.60648 448.59 2.02864 448.59 0H448.364H442.04C442.04 2.02864 440.459 3.60648 438.426 3.60648C436.393 3.60648 434.812 2.02864 434.812 0H428.488C428.488 2.02864 426.907 3.60648 424.874 3.60648C422.841 3.60648 421.26 2.02864 421.26 0H414.936C414.936 2.02864 413.355 3.60648 411.322 3.60648C409.289 3.60648 407.708 2.02864 407.708 0H401.384C401.384 2.02864 399.803 3.60648 397.77 3.60648C395.737 3.60648 394.156 2.02864 394.156 0H387.832C387.832 2.02864 386.251 3.60648 384.218 3.60648C382.185 3.60648 380.604 2.02864 380.604 0H374.28C374.28 2.02864 372.699 3.60648 370.666 3.60648C368.633 3.60648 367.052 2.02864 367.052 0H360.728C360.728 2.02864 359.147 3.60648 357.114 3.60648C355.081 3.60648 353.5 2.02864 353.5 0H347.176C347.176 2.02864 345.595 3.60648 343.562 3.60648C341.529 3.60648 339.948 2.02864 339.948 0H333.624C333.624 2.02864 332.043 3.60648 330.01 3.60648C327.977 3.60648 326.396 2.02864 326.396 0H320.072C320.072 2.02864 318.491 3.60648 316.458 3.60648C314.425 3.60648 312.844 2.02864 312.844 0H306.52C306.52 2.02864 304.939 3.60648 302.906 3.60648C300.873 3.60648 299.292 2.02864 299.292 0H292.968C292.968 2.02864 291.387 3.60648 289.354 3.60648C287.321 3.60648 285.74 2.02864 285.74 0H279.416C279.416 2.02864 277.835 3.60648 275.802 3.60648C273.769 3.60648 272.188 2.02864 272.188 0H265.864C265.864 2.02864 264.283 3.60648 262.25 3.60648C260.217 3.60648 258.636 2.02864 258.636 0H252.312C252.312 2.02864 250.731 3.60648 248.698 3.60648C246.665 3.60648 245.084 2.02864 245.084 0H238.76C238.76 2.02864 237.179 3.60648 235.146 3.60648C233.113 3.60648 231.532 2.02864 231.532 0H225.208C225.208 2.02864 223.627 3.60648 221.594 3.60648C219.561 3.60648 217.98 2.02864 217.98 0H216.625H211.656H211.43C211.43 2.02864 209.849 3.60648 207.816 3.60648C205.783 3.60648 204.202 2.02864 204.202 0H203.976H197.878H197.652C197.652 2.02864 196.071 3.60648 194.038 3.60648C192.005 3.60648 190.424 2.02864 190.424 0H190.198H184.1H183.874C183.874 2.02864 182.293 3.60648 180.26 3.60648C178.227 3.60648 176.646 2.02864 176.646 0H175.517H169.419H169.193C169.193 2.02864 167.612 3.60648 165.579 3.60648C163.546 3.60648 161.965 2.02864 161.965 0H155.867H155.641C155.641 2.02864 154.06 3.60648 152.027 3.60648C149.994 3.60648 148.413 2.02864 148.413 0H142.315H142.089C142.089 2.02864 140.508 3.60648 138.475 3.60648C136.442 3.60648 134.861 2.02864 134.861 0H134.635H128.537H128.311C128.311 2.02864 126.73 3.60648 124.697 3.60648C122.664 3.60648 121.083 2.02864 121.083 0H120.857H114.759H114.533C114.533 2.02864 112.952 3.60648 110.919 3.60648C108.886 3.60648 107.305 2.02864 107.305 0H107.079H100.981H100.755C100.755 2.02864 99.1741 3.60648 97.1413 3.60648C95.1085 3.60648 93.5274 2.02864 93.5274 0H93.3016H87.2032H87.429C87.429 2.02864 85.848 3.60648 83.8152 3.60648C81.7824 3.60648 80.2013 2.02864 80.2013 0H79.9754H73.877C73.877 2.02864 72.296 3.60648 70.2632 3.60648C68.2304 3.60648 66.6493 2.02864 66.6493 0H66.4234H60.325H60.0992C60.0992 2.02864 58.5181 3.60648 56.4853 3.60648C54.4525 3.60648 52.8714 2.02864 52.8714 0H52.6456H46.773H46.5472C46.5472 2.02864 44.9661 3.60648 42.9333 3.60648C40.9005 3.60648 39.3195 2.02864 39.3195 0H39.0936H33.2211H32.9952C32.9952 2.02864 31.4141 3.60648 29.3813 3.60648C27.3485 3.60648 25.7675 2.02864 25.7675 0H25.5416H19.6691H19.4432C19.4432 2.02864 17.8621 3.60648 15.8293 3.60648C13.7965 3.60648 12.2155 2.02864 12.2155 0H11.9896H5.89119H5.66532C5.66532 2.02864 4.08426 3.60648 2.05146 3.60648C0.0186581 3.60648 -1.56241 2.02864 -1.56241 0H-1.78828H-7.88668H-8.11254C-8.11254 2.02864 -9.69361 3.60648 -11.7264 3.60648C-13.7592 3.60648 -15.3403 2.02864 -15.3403 0H-15.5661H-21.6645H-21.8904C-21.8904 2.02864 -23.4715 3.60648 -25.5043 3.60648C-27.5371 3.60648 -29.1181 2.02864 -29.1181 0H-29.344H-33.8613H-35.6683C-35.6683 2.02864 -37.2493 3.60648 -39.2821 3.60648C-41.3149 3.60648 -42.896 2.02864 -42.896 0H-48.7685C-48.7685 2.02864 -50.3496 3.60648 -52.3824 3.60648C-54.4152 3.60648 -55.9963 2.02864 -55.9963 0H-62.5464C-62.5464 2.02864 -64.1275 3.60648 -66.1603 3.60648C-68.1931 3.60648 -69.7741 2.02864 -69.7741 0H-70V179.648H-69.7741C-69.7741 177.619 -68.1931 176.041 -66.1603 176.041C-64.1275 176.041 -62.5464 177.619 -62.5464 179.648H-56.2221C-56.2221 177.619 -54.6411 176.041 -52.6083 176.041C-50.5755 176.041 -48.9944 177.619 -48.9944 179.648H-42.6701C-42.6701 177.619 -41.0891 176.041 -39.0563 176.041C-37.0235 176.041 -35.4424 177.619 -35.4424 179.648H-33.6355H-29.1181H-28.8923C-28.8923 177.619 -27.3112 176.041 -25.2784 176.041C-23.2456 176.041 -21.6645 177.619 -21.6645 179.648H-21.4387H-15.3403H-15.1144C-15.1144 177.619 -13.5333 176.041 -11.5005 176.041C-9.46774 176.041 -7.88668 177.619 -7.88668 179.648H-7.66081H-1.56241H-1.33654C-1.33654 177.619 0.244521 176.041 2.27732 176.041C4.31012 176.041 5.89119 177.619 5.89119 179.648H6.11706H12.2155H12.4413C12.4413 177.619 14.0224 176.041 16.0552 176.041C18.088 176.041 19.6691 177.619 19.6691 179.648H25.7675H25.9933C25.9933 177.619 27.5744 176.041 29.6072 176.041C31.64 176.041 33.2211 177.619 33.2211 179.648H39.3195H39.5453C39.5453 177.619 41.1264 176.041 43.1592 176.041C45.192 176.041 46.773 177.619 46.773 179.648H52.8714H53.0973C53.0973 177.619 54.6784 176.041 56.7112 176.041C58.744 176.041 60.325 177.619 60.325 179.648H60.5509H66.6493H66.8752C66.8752 177.619 68.4562 176.041 70.489 176.041C72.5218 176.041 74.1029 177.619 74.1029 179.648H74.3288H80.4272H80.653C80.653 177.619 82.2341 176.041 84.2669 176.041C86.2997 176.041 87.8808 177.619 87.8808 179.648H88.1066H94.205H94.4309C94.4309 177.619 96.012 176.041 98.0448 176.041C100.078 176.041 101.659 177.619 101.659 179.648H101.885H107.983H107.757C107.757 177.619 109.338 176.041 111.371 176.041C113.404 176.041 114.985 177.619 114.985 179.648H115.211H121.309C121.309 177.619 122.89 176.041 124.923 176.041C126.956 176.041 128.537 177.619 128.537 179.648H128.763H134.861C134.861 177.619 136.442 176.041 138.475 176.041C140.508 176.041 142.089 177.619 142.089 179.648H142.315H148.413H148.639C148.639 177.619 150.22 176.041 152.253 176.041C154.286 176.041 155.867 177.619 155.867 179.648H156.092H162.191H162.417C162.417 177.619 163.998 176.041 166.031 176.041C168.063 176.041 169.644 177.619 169.644 179.648H169.87H175.969H176.195C176.195 177.619 177.776 176.041 179.808 176.041C181.841 176.041 183.422 177.619 183.422 179.648H183.648H189.747H189.972C189.972 177.619 191.554 176.041 193.586 176.041C195.619 176.041 197.2 177.619 197.2 179.648H197.426H203.524H203.75C203.75 177.619 205.331 176.041 207.364 176.041C209.397 176.041 210.978 177.619 210.978 179.648H211.204H216.173H217.528C217.528 177.619 219.109 176.041 221.142 176.041C223.175 176.041 224.756 177.619 224.756 179.648H231.08C231.08 177.619 232.661 176.041 234.694 176.041C236.727 176.041 238.308 177.619 238.308 179.648H244.632C244.632 177.619 246.213 176.041 248.246 176.041C250.279 176.041 251.86 177.619 251.86 179.648H258.184C258.184 177.619 259.765 176.041 261.798 176.041C263.831 176.041 265.412 177.619 265.412 179.648H271.736C271.736 177.619 273.317 176.041 275.35 176.041C277.383 176.041 278.964 177.619 278.964 179.648H285.288C285.288 177.619 286.869 176.041 288.902 176.041C290.935 176.041 292.516 177.619 292.516 179.648H298.84C298.84 177.619 300.421 176.041 302.454 176.041C304.487 176.041 306.068 177.619 306.068 179.648H312.392C312.392 177.619 313.973 176.041 316.006 176.041C318.039 176.041 319.62 177.619 319.62 179.648H325.944C325.944 177.619 327.525 176.041 329.558 176.041C331.591 176.041 333.172 177.619 333.172 179.648H339.496C339.496 177.619 341.077 176.041 343.11 176.041C345.143 176.041 346.724 177.619 346.724 179.648H353.048C353.048 177.619 354.629 176.041 356.662 176.041C358.695 176.041 360.276 177.619 360.276 179.648H366.6C366.6 177.619 368.181 176.041 370.214 176.041C372.247 176.041 373.828 177.619 373.828 179.648H380.152C380.152 177.619 381.733 176.041 383.766 176.041C385.799 176.041 387.38 177.619 387.38 179.648H393.704C393.704 177.619 395.285 176.041 397.318 176.041C399.351 176.041 400.932 177.619 400.932 179.648H407.256C407.256 177.619 408.837 176.041 410.87 176.041C412.903 176.041 414.484 177.619 414.484 179.648H420.808C420.808 177.619 422.389 176.041 424.422 176.041C426.455 176.041 428.036 177.619 428.036 179.648H434.36C434.36 177.619 435.941 176.041 437.974 176.041C440.007 176.041 441.588 177.619 441.588 179.648H447.686H447.912C447.912 177.619 449.493 176.041 451.526 176.041C453.559 176.041 455.14 177.619 455.14 179.648H461.464C461.464 177.619 463.045 176.041 465.078 176.041C467.111 176.041 468.692 177.619 468.692 179.648H473.887H475.016C475.016 177.619 476.597 176.041 478.63 176.041C480.663 176.041 482.244 177.619 482.244 179.648H484.051H488.568H488.794C488.794 177.619 490.375 176.041 492.408 176.041C494.441 176.041 496.022 177.619 496.022 179.648H496.248H502.346H502.572C502.572 177.619 504.153 176.041 506.186 176.041C508.219 176.041 509.8 177.619 509.8 179.648H510.026H516.124H516.35C516.35 177.619 517.931 176.041 519.964 176.041C521.996 176.041 523.578 177.619 523.578 179.648H523.803H529.902H530.128C530.128 177.619 531.709 176.041 533.742 176.041C535.774 176.041 537.355 177.619 537.355 179.648H537.581H543.68H543.906C543.906 177.619 545.487 176.041 547.519 176.041C549.552 176.041 551.133 177.619 551.133 179.648H551.359H557.458H557.683C557.683 177.619 559.264 176.041 561.297 176.041C563.33 176.041 564.911 177.619 564.911 179.648H565.137H571.235H571.461C571.461 177.619 573.042 176.041 575.075 176.041C577.108 176.041 578.689 177.619 578.689 179.648H578.915H585.013H585.239C585.239 177.619 586.82 176.041 588.853 176.041C590.886 176.041 592.467 177.619 592.467 179.648H592.693H598.791H599.017C599.017 177.619 600.598 176.041 602.631 176.041C604.664 176.041 606.245 177.619 606.245 179.648H606.471H612.569H612.795C612.795 177.619 614.376 176.041 616.409 176.041C618.442 176.041 620.023 177.619 620.023 179.648H620.248H626.347H626.573C626.573 177.619 628.154 176.041 630.187 176.041C632.219 176.041 633.8 177.619 633.8 179.648H634.026H640.125H640.351C640.351 177.619 641.932 176.041 643.964 176.041C645.997 176.041 647.578 177.619 647.578 179.648H647.804H653.903H654.128C654.128 177.619 655.71 176.041 657.742 176.041C659.775 176.041 661.356 177.619 661.356 179.648H661.582H667.68H667.906C667.906 177.619 669.487 176.041 671.52 176.041C673.553 176.041 675.134 177.619 675.134 179.648H675.36H681.458H681.684C681.684 177.619 683.265 176.041 685.298 176.041C687.331 176.041 688.912 177.619 688.912 179.648H689.138H695.236H695.462C695.462 177.619 697.043 176.041 699.076 176.041C701.109 176.041 702.69 177.619 702.69 179.648H702.916H709.014H709.24C709.24 177.619 710.821 176.041 712.854 176.041C714.887 176.041 716.468 177.619 716.468 179.648H716.694H722.792H723.018C723.018 177.619 724.599 176.041 726.632 176.041C728.664 176.041 730.246 177.619 730.246 179.648H730.471H735.44H736.796C736.796 177.619 738.377 176.041 740.41 176.041C742.442 176.041 744.023 177.619 744.023 179.648H750.348C750.348 177.619 751.929 176.041 753.961 176.041C755.994 176.041 757.575 177.619 757.575 179.648H763.9C763.9 177.619 765.481 176.041 767.513 176.041C769.546 176.041 771.127 177.619 771.127 179.648H777.452C777.452 177.619 779.033 176.041 781.065 176.041C783.098 176.041 784.679 177.619 784.679 179.648H791.004C791.004 177.619 792.585 176.041 794.617 176.041C796.65 176.041 798.231 177.619 798.231 179.648H804.556C804.556 177.619 806.137 176.041 808.169 176.041C810.202 176.041 811.783 177.619 811.783 179.648H818.108C818.108 177.619 819.689 176.041 821.721 176.041C823.754 176.041 825.335 177.619 825.335 179.648H831.66C831.66 177.619 833.241 176.041 835.273 176.041C837.306 176.041 838.887 177.619 838.887 179.648H845.212C845.212 177.619 846.793 176.041 848.825 176.041C850.858 176.041 852.439 177.619 852.439 179.648H858.764C858.764 177.619 860.345 176.041 862.377 176.041C864.41 176.041 865.991 177.619 865.991 179.648H872.316C872.316 177.619 873.897 176.041 875.929 176.041C877.962 176.041 879.543 177.619 879.543 179.648H885.868C885.868 177.619 887.449 176.041 889.481 176.041C891.514 176.041 893.095 177.619 893.095 179.648H899.42C899.42 177.619 901.001 176.041 903.033 176.041C905.066 176.041 906.647 177.619 906.647 179.648H912.972C912.972 177.619 914.553 176.041 916.585 176.041C918.618 176.041 920.199 177.619 920.199 179.648H925.394H925.62H926.298C926.298 177.844 927.653 176.266 929.686 176.041C931.493 176.266 933.074 177.844 933.074 179.648H933.751H939.398H940.076C940.076 177.844 941.431 176.266 943.464 176.041C945.271 176.266 946.852 177.844 946.852 179.648H947.529H953.176H953.853C953.853 177.844 955.209 176.266 957.241 176.041C959.048 176.266 960.629 177.844 960.629 179.648H961.307H962.21H966.728H966.954H967.405C967.405 177.844 968.761 176.266 970.568 176.041C972.375 176.266 973.956 177.844 973.956 179.648H974.181H974.633H980.28H980.506H980.957C980.957 177.844 982.313 176.266 984.12 176.041C985.927 176.266 987.508 177.844 987.508 179.648H987.733H988.185H993.38H993.606H993.832C993.832 177.619 995.413 176.041 997.446 176.041C999.478 176.041 1001.06 177.619 1001.06 179.648H1001.29H1007.38H1007.61C1007.61 177.619 1009.19 176.041 1011.22 176.041C1013.26 176.041 1014.84 177.619 1014.84 179.648H1015.06H1021.16H1021.39C1021.39 177.619 1022.97 176.041 1025 176.041C1027.03 176.041 1028.62 177.619 1028.62 179.648H1028.84H1034.94H1035.17C1035.17 177.619 1036.75 176.041 1038.78 176.041C1040.81 176.041 1042.39 177.619 1042.39 179.648H1042.62H1048.72H1048.94C1048.94 177.619 1050.52 176.041 1052.56 176.041C1054.59 176.041 1056.17 177.619 1056.17 179.648H1056.4H1062.5H1062.72C1062.72 177.619 1064.3 176.041 1066.34 176.041C1068.37 176.041 1069.95 177.619 1069.95 179.648H1070.17H1076.27H1076.5C1076.5 177.619 1078.08 176.041 1080.11 176.041C1082.15 176.041 1083.73 177.619 1083.73 179.648H1083.95H1090.05H1090.28C1090.28 177.619 1091.86 176.041 1093.89 176.041C1095.92 176.041 1097.5 177.619 1097.5 179.648H1097.73H1103.83H1104.05C1104.05 177.619 1105.64 176.041 1107.67 176.041C1109.7 176.041 1111.28 177.619 1111.28 179.648H1111.51H1117.61H1117.83C1117.83 177.619 1119.41 176.041 1121.45 176.041C1123.48 176.041 1125.06 177.619 1125.06 179.648H1125.29H1131.38H1131.61C1131.61 177.619 1133.19 176.041 1135.22 176.041C1137.26 176.041 1138.84 177.619 1138.84 179.648H1139.06H1145.16H1145.39C1145.39 177.619 1146.97 176.041 1149 176.041C1151.04 176.041 1152.62 177.619 1152.62 179.648H1152.84H1158.94H1159.17C1159.17 177.619 1160.75 176.041 1162.78 176.041C1164.81 176.041 1166.39 177.619 1166.39 179.648H1166.62H1172.72H1172.94C1172.94 177.619 1174.53 176.041 1176.56 176.041C1178.59 176.041 1180.17 177.619 1180.17 179.648H1180.4H1186.5H1186.72C1186.72 177.619 1188.3 176.041 1190.34 176.041C1192.37 176.041 1193.95 177.619 1193.95 179.648H1194.18H1200.27H1200.5C1200.5 177.619 1202.08 176.041 1204.11 176.041C1206.15 176.041 1207.73 177.619 1207.73 179.648H1207.95H1212.92H1214.28C1214.28 177.619 1215.86 176.041 1217.89 176.041C1219.92 176.041 1221.51 177.619 1221.51 179.648H1227.83C1227.83 177.619 1229.41 176.041 1231.44 176.041C1233.48 176.041 1235.06 177.619 1235.06 179.648H1241.38C1241.38 177.619 1242.96 176.041 1245 176.041C1247.03 176.041 1248.61 177.619 1248.61 179.648H1254.93C1254.93 177.619 1256.51 176.041 1258.55 176.041C1260.58 176.041 1262.16 177.619 1262.16 179.648H1268.49C1268.49 177.619 1270.07 176.041 1272.1 176.041C1274.13 176.041 1275.71 177.619 1275.71 179.648H1282.04C1282.04 177.619 1283.62 176.041 1285.65 176.041C1287.68 176.041 1289.27 177.619 1289.27 179.648H1295.59C1295.59 177.619 1297.17 176.041 1299.2 176.041C1301.24 176.041 1302.82 177.619 1302.82 179.648H1309.14C1309.14 177.619 1310.72 176.041 1312.76 176.041C1314.79 176.041 1316.37 177.619 1316.37 179.648H1322.69C1322.69 177.619 1324.27 176.041 1326.31 176.041C1328.34 176.041 1329.92 177.619 1329.92 179.648H1336.25C1336.25 177.619 1337.83 176.041 1339.86 176.041C1341.89 176.041 1343.47 177.619 1343.47 179.648H1349.8C1349.8 177.619 1351.38 176.041 1353.41 176.041C1355.44 176.041 1357.03 177.619 1357.03 179.648H1363.35C1363.35 177.619 1364.93 176.041 1366.96 176.041C1369 176.041 1370.58 177.619 1370.58 179.648H1376.9C1376.9 177.619 1378.48 176.041 1380.52 176.041C1382.55 176.041 1384.13 177.619 1384.13 179.648H1390.45C1390.45 177.619 1392.03 176.041 1394.07 176.041C1396.1 176.041 1397.68 177.619 1397.68 179.648H1404.01C1404.01 177.619 1405.59 176.041 1407.62 176.041C1409.65 176.041 1411.23 177.619 1411.23 179.648H1417.56C1417.56 177.619 1419.14 176.041 1421.17 176.041C1423.2 176.041 1424.79 177.619 1424.79 179.648H1431.11C1431.11 177.619 1432.69 176.041 1434.72 176.041C1436.76 176.041 1438.34 177.619 1438.34 179.648H1444.44H1444.66C1444.66 177.619 1446.24 176.041 1448.28 176.041C1450.31 176.041 1451.89 177.619 1451.89 179.648H1458.21C1458.21 177.619 1459.79 176.041 1461.83 176.041C1463.86 176.041 1465.44 177.619 1465.44 179.648H1470.64H1471.77C1471.77 177.619 1473.35 176.041 1475.38 176.041C1477.41 176.041 1478.99 177.619 1478.99 179.648H1480.8H1485.32H1485.54C1485.54 177.619 1487.12 176.041 1489.16 176.041C1491.19 176.041 1492.77 177.619 1492.77 179.648H1493H1499.1H1499.32C1499.32 177.619 1500.9 176.041 1502.94 176.041C1504.97 176.041 1506.55 177.619 1506.55 179.648H1506.78H1512.87H1513.1C1513.1 177.619 1514.68 176.041 1516.71 176.041C1518.75 176.041 1520.33 177.619 1520.33 179.648H1520.55H1526.65H1526.88C1526.88 177.619 1528.46 176.041 1530.49 176.041C1532.52 176.041 1534.1 177.619 1534.1 179.648H1534.33H1540.43H1540.66C1540.66 177.619 1542.24 176.041 1544.27 176.041C1546.3 176.041 1547.88 177.619 1547.88 179.648H1548.11H1554.21H1554.43C1554.43 177.619 1556.01 176.041 1558.05 176.041C1560.08 176.041 1561.66 177.619 1561.66 179.648H1561.89H1567.98H1568.21C1568.21 177.619 1569.79 176.041 1571.82 176.041C1573.86 176.041 1575.44 177.619 1575.44 179.648H1575.66H1581.76H1581.99C1581.99 177.619 1583.57 176.041 1585.6 176.041C1587.64 176.041 1589.22 177.619 1589.22 179.648H1589.44H1595.54H1595.77C1595.77 177.619 1597.35 176.041 1599.38 176.041C1601.41 176.041 1602.99 177.619 1602.99 179.648H1603.22H1609.32H1609.54C1609.54 177.619 1611.13 176.041 1613.16 176.041C1615.19 176.041 1616.77 177.619 1616.77 179.648H1617H1623.1H1623.32C1623.32 177.619 1624.9 176.041 1626.94 176.041C1628.97 176.041 1630.55 177.619 1630.55 179.648H1630.78H1636.87H1637.1C1637.1 177.619 1638.68 176.041 1640.71 176.041C1642.75 176.041 1644.33 177.619 1644.33 179.648H1644.55H1650.65H1650.88C1650.88 177.619 1652.46 176.041 1654.49 176.041C1656.52 176.041 1658.11 177.619 1658.11 179.648H1658.33H1664.43H1664.66C1664.66 177.619 1666.24 176.041 1668.27 176.041C1670.3 176.041 1671.88 177.619 1671.88 179.648H1672.11H1678.21H1678.43C1678.43 177.619 1680.01 176.041 1682.05 176.041C1684.08 176.041 1685.66 177.619 1685.66 179.648H1685.89H1691.99H1692.21C1692.21 177.619 1693.79 176.041 1695.83 176.041C1697.86 176.041 1699.44 177.619 1699.44 179.648H1699.67H1705.76H1705.99C1705.99 177.619 1707.57 176.041 1709.6 176.041C1711.64 176.041 1713.22 177.619 1713.22 179.648H1713.44H1719.54H1719.77C1719.77 177.619 1721.35 176.041 1723.38 176.041C1725.41 176.041 1726.99 177.619 1726.99 179.648H1727.22H1732.19H1733.55C1733.55 177.619 1735.13 176.041 1737.16 176.041C1739.19 176.041 1740.77 177.619 1740.77 179.648H1747.1C1747.1 177.619 1748.68 176.041 1750.71 176.041C1752.74 176.041 1754.32 177.619 1754.32 179.648H1760.65C1760.65 177.619 1762.23 176.041 1764.26 176.041C1766.3 176.041 1767.88 177.619 1767.88 179.648H1774.2C1774.2 177.619 1775.78 176.041 1777.81 176.041C1779.85 176.041 1781.43 177.619 1781.43 179.648H1787.75C1787.75 177.619 1789.33 176.041 1791.37 176.041C1793.4 176.041 1794.98 177.619 1794.98 179.648H1801.31C1801.31 177.619 1802.89 176.041 1804.92 176.041C1806.95 176.041 1808.53 177.619 1808.53 179.648H1814.86C1814.86 177.619 1816.44 176.041 1818.47 176.041C1820.5 176.041 1822.08 177.619 1822.08 179.648H1828.41C1828.41 177.619 1829.99 176.041 1832.02 176.041C1834.06 176.041 1835.64 177.619 1835.64 179.648H1841.96C1841.96 177.619 1843.54 176.041 1845.57 176.041C1847.61 176.041 1849.19 177.619 1849.19 179.648H1855.51C1855.51 177.619 1857.09 176.041 1859.13 176.041C1861.16 176.041 1862.74 177.619 1862.74 179.648H1869.06C1869.06 177.619 1870.65 176.041 1872.68 176.041C1874.71 176.041 1876.29 177.619 1876.29 179.648H1882.62C1882.62 177.619 1884.2 176.041 1886.23 176.041C1888.26 176.041 1889.84 177.619 1889.84 179.648H1896.17C1896.17 177.619 1897.75 176.041 1899.78 176.041C1901.82 176.041 1903.4 177.619 1903.4 179.648H1909.72C1909.72 177.619 1911.3 176.041 1913.33 176.041C1915.37 176.041 1916.95 177.619 1916.95 179.648H1923.27C1923.27 177.619 1924.85 176.041 1926.89 176.041C1928.92 176.041 1930.5 177.619 1930.5 179.648H1936.82C1936.82 177.619 1938.41 176.041 1940.44 176.041C1942.47 176.041 1944.05 177.619 1944.05 179.648H1950.38C1950.38 177.619 1951.96 176.041 1953.99 176.041C1956.02 176.041 1957.6 177.619 1957.6 179.648H1963.93C1963.93 177.619 1965.51 176.041 1967.54 176.041C1969.58 176.041 1971.16 177.619 1971.16 179.648H1977.48C1977.48 177.619 1979.06 176.041 1981.09 176.041C1983.13 176.041 1984.71 177.619 1984.71 179.648H1989.9V161.615V18.0324V0H1982.45Z" fill="#9E561E"/>
</svg>
