<svg width="666" height="317" viewBox="0 0 666 317" fill="none" xmlns="http://www.w3.org/2000/svg">
<g clip-path="url(#clip0_178_2083)">
<path d="M384.827 11.421C384.828 9.6101 385.375 7.84169 386.397 6.34739C387.419 4.85308 388.869 3.70255 390.555 3.04648C392.242 2.39041 394.087 2.2594 395.849 2.6706C397.611 3.08179 399.208 4.01603 400.431 5.35095L397.717 7.91748C396.653 6.96186 395.267 6.44303 393.837 6.46447C393.196 6.45536 392.561 6.57947 391.971 6.82895C391.38 7.07842 390.848 7.44783 390.408 7.91377C389.968 8.37971 389.63 8.93204 389.414 9.53576C389.198 10.1395 389.11 10.7814 389.155 11.421C389.11 12.0599 389.198 12.7013 389.414 13.3043C389.63 13.9073 389.969 14.4588 390.409 14.9237C390.849 15.3886 391.381 15.7567 391.971 16.0047C392.562 16.2526 393.197 16.375 393.837 16.3639C395.246 16.3858 396.612 15.8769 397.663 14.9381L400.377 17.5046C399.157 18.8467 397.56 19.7874 395.795 20.2028C394.031 20.6182 392.182 20.4887 390.492 19.8315C388.803 19.1742 387.352 18.0201 386.331 16.5211C385.31 15.0221 384.767 13.2487 384.773 11.4346L384.827 11.421ZM408.491 20.2477H412.779V6.66816H417.284V2.59431H404V6.66816H408.491V20.2477ZM478.126 20.4242C479.379 20.421 480.617 20.1587 481.764 19.654C482.91 19.1493 483.94 18.4129 484.789 17.491L482.075 14.9245C481.012 15.8811 479.624 16.3959 478.194 16.3639C477.555 16.3729 476.921 16.2491 476.331 16.0005C475.742 15.7518 475.211 15.3837 474.771 14.9192C474.331 14.4548 473.992 13.9041 473.776 13.302C473.559 12.6999 473.47 12.0594 473.513 11.421C473.47 10.7819 473.559 10.1408 473.776 9.53801C473.992 8.9352 474.331 8.38371 474.771 7.91821C475.21 7.45271 475.741 7.08326 476.331 6.83308C476.92 6.5829 477.554 6.4574 478.194 6.46447C479.624 6.44303 481.01 6.96186 482.075 7.91748L484.789 5.35095C483.939 4.43093 482.909 3.69664 481.763 3.19421C480.616 2.69177 479.378 2.43205 478.126 2.43136C475.803 2.52172 473.604 3.50909 471.992 5.18637C470.38 6.86365 469.48 9.10051 469.48 11.4278C469.48 13.7551 470.38 15.9919 471.992 17.6692C473.604 19.3465 475.803 20.3338 478.126 20.4242ZM147.386 20.2477H151.673V6.66816H156.178V2.59431H142.881V6.66816H147.386V20.2477ZM354.799 15.78C355.373 15.823 355.95 15.7475 356.494 15.5583C357.038 15.3691 357.537 15.0702 357.961 14.6801V20.2477H362.289V2.59431H358.001V9.05816C358.057 9.40646 358.034 9.76286 357.933 10.1009C357.832 10.439 357.657 10.75 357.42 11.0109C357.182 11.2717 356.89 11.4758 356.563 11.608C356.236 11.7401 355.884 11.7968 355.532 11.7741C353.999 11.7741 352.723 11.1766 352.723 9.05816V2.60789H348.435V8.8273C348.395 14.069 351.57 15.78 354.799 15.78ZM181.416 20.2477H176.667L183.859 2.59431H186.423L193.533 20.2477H188.771L187.862 17.8034H182.325L181.416 20.2477ZM183.818 13.7431H186.383L185.026 10.321L183.818 13.7431ZM165.242 20.2477H160.968V2.59431H166.898C172.054 2.59431 174.795 5.7855 174.795 9.54702C174.795 13.3085 172.081 16.4997 166.898 16.4997H165.229L165.242 20.2477ZM165.242 12.453H167.237C169.055 12.453 170.765 11.5975 170.765 9.5606C170.765 7.52367 169.055 6.641 167.237 6.641H165.242V12.453ZM614.67 23.4932H610.382V16.1874H612.729L618.293 2.60789H620.857L626.285 16.1874H628.619V23.4932H624.344V20.2477H614.67V23.4932ZM617.384 16.1874H621.739L619.582 10.4433L617.384 16.1874ZM270.021 10.5383V20.2477H274.309V2.59431H271.731L264.431 12.2901V2.60789H260.156V20.2612H262.721L270.021 10.5383ZM290.008 10.5383V20.2477H294.282V2.59431H291.731L284.404 12.3037V2.60789H280.13V20.2612H282.694L290.008 10.5383ZM251.337 23.4932H255.624V16.1874H253.426V2.60789H249.152V16.1874H243.806V2.60789H239.532V20.2612H251.337V23.4932ZM229.423 10.5383V20.2477H233.697V2.59431H231.133L223.887 12.3037V2.60789H219.545V20.2612H222.123L229.423 10.5383ZM333.903 20.2477H329.154L336.345 2.59431H338.91L346.02 20.2477H341.257L340.348 17.8034H334.812L333.903 20.2477ZM336.305 13.7431H338.869L337.58 10.321L336.305 13.7431ZM314.595 13.39H315.558C315.944 13.3679 316.327 13.4639 316.657 13.6652C316.986 13.8666 317.247 14.1638 317.403 14.5171L321.053 20.2477H325.884L321.447 13.2678C321.025 12.4305 320.376 11.7292 319.574 11.2445C320.304 10.7502 320.931 10.1183 321.42 9.38406L325.721 2.59431H320.918L317.39 8.14833C317.229 8.49963 316.968 8.79545 316.64 8.99846C316.311 9.20147 315.93 9.30257 315.544 9.28901H314.608V2.60789H310.334V20.2612H314.608L314.595 13.39ZM201.023 23.4932H196.749V16.1874H199.083L204.646 2.60789H207.224L212.652 16.1874H214.986V23.4932H210.711V20.2477H200.983L201.023 23.4932ZM203.737 16.1874H208.093L205.922 10.4433L203.737 16.1874ZM428.98 20.2612H422.101V2.60789H429.102C434.326 2.60789 435.167 5.77192 435.167 7.38788C435.211 8.14957 435.03 8.90737 434.647 9.56666C434.263 10.226 433.694 10.7576 433.01 11.0951C433.841 11.36 434.56 11.8956 435.052 12.6167C435.543 13.3377 435.78 14.2027 435.724 15.0739C435.683 17.8441 434.123 20.2477 428.953 20.2477L428.98 20.2612ZM426.388 9.39764H429.591C429.951 9.39764 430.296 9.25457 430.55 8.99991C430.805 8.74524 430.948 8.39984 430.948 8.03969C430.948 7.67954 430.805 7.33414 430.55 7.07948C430.296 6.82481 429.951 6.68174 429.591 6.68174H426.388V9.39764ZM426.388 16.1874H429.889C430.113 16.2169 430.341 16.1982 430.557 16.1325C430.773 16.0669 430.973 15.9558 431.143 15.8067C431.313 15.6575 431.449 15.4739 431.542 15.2679C431.636 15.0619 431.684 14.8383 431.684 14.6122C431.684 14.386 431.636 14.1625 431.542 13.9565C431.449 13.7505 431.313 13.5668 431.143 13.4177C430.973 13.2686 430.773 13.1575 430.557 13.0918C430.341 13.0261 430.113 13.0074 429.889 13.037H426.388V16.1874ZM528.874 8.56929C528.855 7.74754 529.004 6.93056 529.313 6.16901C529.622 5.40746 530.084 4.71757 530.671 4.14209C531.257 3.56662 531.956 3.11784 532.723 2.82356C533.49 2.52929 534.309 2.39579 535.129 2.43136C538.942 2.43136 541.914 5.47317 541.914 10.1445V11.1222C541.914 16.7713 539.01 20.3156 534.831 20.4242H534.614C533.594 20.4435 532.582 20.2438 531.645 19.8386C530.709 19.4333 529.87 18.832 529.186 18.0749L531.9 15.5084C532.657 16.0502 533.561 16.3485 534.491 16.3639H534.614C536.133 16.3639 537.558 15.101 537.789 12.6024C537.409 13.1655 536.889 13.6187 536.279 13.9167C535.669 14.2146 534.992 14.3468 534.315 14.2998C533.57 14.3188 532.828 14.1815 532.139 13.8967C531.45 13.612 530.828 13.1861 530.313 12.6464C529.798 12.1067 529.402 11.4652 529.149 10.763C528.897 10.0609 528.794 9.31363 528.847 8.56929H528.874ZM533.148 8.56929C533.148 9.16714 533.385 9.74051 533.808 10.1633C534.23 10.586 534.803 10.8235 535.401 10.8235C535.998 10.8235 536.571 10.586 536.993 10.1633C537.416 9.74051 537.653 9.16714 537.653 8.56929C537.653 7.97144 537.416 7.39808 536.993 6.97534C536.571 6.55259 535.998 6.3151 535.401 6.3151C534.803 6.3151 534.23 6.55259 533.808 6.97534C533.385 7.39808 533.148 7.97144 533.148 8.56929ZM512.021 8.56929C512.002 7.74754 512.152 6.93056 512.461 6.16901C512.77 5.40746 513.232 4.71757 513.818 4.14209C514.405 3.56662 515.103 3.11784 515.87 2.82356C516.637 2.52929 517.456 2.39579 518.277 2.43136C522.09 2.43136 525.061 5.47317 525.061 10.1445V11.1222C525.061 16.7713 522.157 20.3156 517.978 20.4242H517.788C516.752 20.4573 515.722 20.2643 514.768 19.8586C513.815 19.4529 512.961 18.8443 512.266 18.0749L515.061 15.5084C515.818 16.0502 516.722 16.3485 517.652 16.3639H517.802C519.321 16.3639 520.746 15.101 520.977 12.6024C520.596 13.1635 520.075 13.6152 519.465 13.9129C518.856 14.2106 518.18 14.344 517.503 14.2998C516.754 14.3246 516.009 14.1916 515.315 13.9094C514.621 13.6272 513.994 13.2022 513.474 12.6619C512.955 12.1216 512.555 11.478 512.3 10.773C512.045 10.0679 511.941 9.31715 511.994 8.56929H512.021ZM516.296 8.56929C516.296 9.16714 516.533 9.74051 516.955 10.1633C517.378 10.586 517.951 10.8235 518.548 10.8235C519.145 10.8235 519.718 10.586 520.141 10.1633C520.563 9.74051 520.801 9.16714 520.801 8.56929C520.801 7.97144 520.563 7.39808 520.141 6.97534C519.718 6.55259 519.145 6.3151 518.548 6.3151C517.951 6.3151 517.378 6.55259 516.955 6.97534C516.533 7.39808 516.296 7.97144 516.296 8.56929ZM636.638 20.2477H631.875L639.08 2.59431H641.645L648.741 20.2477H643.992L643.083 17.8034H637.547L636.638 20.2477ZM639.026 13.7431H641.604L640.315 10.321L639.026 13.7431ZM559.214 16.2146H552.945L554.126 15.2097C557.477 12.4938 558.97 10.484 558.97 7.7681C558.97 5.0522 557.179 2.4721 552.904 2.43136H552.742C550.188 2.60795 547.797 3.7486 546.052 5.62254L548.766 8.20265C549.73 7.25858 550.971 6.64927 552.307 6.46447H552.47C552.767 6.4361 553.066 6.47271 553.346 6.57177C553.627 6.67083 553.883 6.82995 554.096 7.03805C554.309 7.24616 554.474 7.49824 554.58 7.77676C554.686 8.05528 554.73 8.35354 554.709 8.65077C554.709 9.85935 554.003 10.742 552.674 11.8555L545.699 17.654V20.2477H559.187L559.214 16.2146ZM578.536 6.7089H585.877V2.63505H574.248V20.2884H578.536V6.7089ZM589.391 11.4889C589.37 9.70702 589.878 7.95895 590.851 6.46669C591.824 4.97443 593.219 3.80532 594.857 3.10783C596.496 2.41035 598.304 2.21597 600.054 2.54937C601.803 2.88277 603.413 3.72892 604.681 4.98034C605.949 6.23177 606.816 7.83201 607.173 9.57782C607.53 11.3236 607.361 13.1363 606.686 14.7855C606.012 16.4347 604.863 17.8461 603.385 18.8404C601.907 19.8347 600.168 20.3671 598.387 20.3699C597.209 20.3735 596.042 20.1448 594.953 19.697C593.863 19.2492 592.873 18.5911 592.037 17.7601C591.202 16.9291 590.538 15.9416 590.084 14.8539C589.63 13.7663 589.395 12.5997 589.391 11.421V11.4889ZM593.665 11.4889C593.631 12.1281 593.727 12.7675 593.948 13.3683C594.169 13.969 594.509 14.5185 594.949 14.9831C595.389 15.4477 595.919 15.8177 596.507 16.0706C597.094 16.3234 597.727 16.4538 598.367 16.4538C599.006 16.4538 599.639 16.3234 600.227 16.0706C600.814 15.8177 601.344 15.4477 601.784 14.9831C602.224 14.5185 602.565 13.969 602.786 13.3683C603.007 12.7675 603.103 12.1281 603.068 11.4889C603.103 10.8497 603.007 10.2102 602.786 9.60949C602.565 9.00874 602.224 8.45931 601.784 7.9947C601.344 7.5301 600.814 7.16008 600.227 6.90721C599.639 6.65434 599.006 6.52393 598.367 6.52393C597.727 6.52393 597.094 6.65434 596.507 6.90721C595.919 7.16008 595.389 7.5301 594.949 7.9947C594.509 8.45931 594.169 9.00874 593.948 9.60949C593.727 10.2102 593.631 10.8497 593.665 11.4889ZM448.478 2.67579L455.589 20.3291H450.826L449.917 17.8848H444.381L443.472 20.3291H438.709L445.914 2.67579H448.478ZM448.478 13.811L447.189 10.3889L445.914 13.811H448.478ZM368.572 20.3156H380.634V16.2417H372.846V13.5258H379.929V9.45196H372.819V6.73606H380.607V2.66221H368.544L368.572 20.3156ZM502.659 10.1309V20.3156H506.933V2.66221H504.369L498.33 9.94082L501.044 12.0592L502.659 10.1309ZM321.216 249.619C321.786 250.028 322.406 250.361 323.062 250.61C321.786 248.669 320.945 245.613 320.945 240.358V204.956L321.067 62.059H317.417L317.295 202.036V237.438C317.295 244.907 318.991 248.003 321.216 249.619ZM581.738 292.449C584.291 292.238 586.666 291.056 588.374 289.147C590.083 287.237 590.995 284.745 590.924 282.183C590.924 281.232 590.517 280.825 589.567 280.825C586.977 280.769 584.469 281.735 582.583 283.513C580.697 285.291 579.585 287.739 579.486 290.33C579.513 292.517 579.635 292.639 581.752 292.449H581.738ZM607.315 286.012H654.386C654.864 285.943 655.302 285.705 655.618 285.339C655.935 284.974 656.109 284.506 656.109 284.023C656.109 283.539 655.935 283.072 655.618 282.706C655.302 282.341 654.864 282.102 654.386 282.033H607.329C606.851 282.102 606.413 282.341 606.097 282.706C605.78 283.072 605.606 283.539 605.606 284.023C605.606 284.506 605.78 284.974 606.097 285.339C606.413 285.705 606.851 285.943 607.329 286.012H607.315ZM580.368 61.8553H576.677V268.997H555.36V271.917H580.368V61.8553ZM552.416 290.344C552.416 292.517 552.511 292.639 554.628 292.449C557.18 292.238 559.555 291.056 561.264 289.147C562.972 287.237 563.885 284.745 563.814 282.183C563.814 281.232 563.407 280.825 562.457 280.825C559.871 280.78 557.371 281.752 555.494 283.532C553.617 285.312 552.511 287.758 552.416 290.344ZM639.379 271.917H663.694V61.801H660.044V268.997H639.379V271.917ZM519.009 145.519C516.296 140.915 510.773 141.01 500.61 147.501L500.909 228.15C501.696 238.063 505.698 248.94 511.234 251.235C507.639 246.808 505.156 238.688 504.559 231.11L504.26 150.462C511.099 146.048 515.821 144.609 519.009 145.519ZM614.426 61.801V169.541C614.426 181.436 616.04 186.827 620.206 187.561C618.727 184.75 618.076 179.888 618.076 172.46V61.801H614.426ZM505.332 269.567H479.89V272.487H508.982C508.982 272.487 501.75 267.435 499.823 256.11C498.269 253.729 496.908 251.227 495.752 248.628C496.159 263.131 505.332 269.513 505.332 269.513V269.567ZM340.348 262.316V255.024C332.207 266.444 319.642 271.02 312.084 268.997C309.887 268.385 307.799 267.431 305.897 266.173C308.636 268.892 312.021 270.869 315.734 271.917C322.234 273.668 332.438 270.477 340.348 262.262V262.316ZM610.776 205.363C608.049 204.734 605.452 203.641 603.096 202.132C606.224 205.201 610.149 207.332 614.426 208.283C618.646 209.302 625.891 207.849 635.729 201.493V196.062C624.019 204.535 615.497 206.409 610.776 205.309V205.363ZM411.313 93.4276V239.597C411.422 244.965 410.501 250.303 408.6 255.322H413.24C414.425 251.159 415.005 246.846 414.963 242.517V96.2929C414.963 88.0094 417.324 78.8976 425.506 78.8976L433.648 78.8025V75.8557C432.671 75.8557 422.074 75.978 421.924 75.978C413.593 76.0459 411.246 85.0898 411.246 93.3733L411.313 93.4276ZM617.194 289.027C616.715 289.095 616.278 289.334 615.961 289.7C615.645 290.065 615.471 290.533 615.471 291.016C615.471 291.5 615.645 291.967 615.961 292.333C616.278 292.698 616.715 292.937 617.194 293.006H664.264C664.742 292.937 665.18 292.698 665.496 292.333C665.813 291.967 665.987 291.5 665.987 291.016C665.987 290.533 665.813 290.065 665.496 289.7C665.18 289.334 664.742 289.095 664.264 289.027H617.194ZM500.99 62.3849V132.346C502.238 131.45 503.46 130.663 504.64 129.956V62.3849H500.99ZM540.177 295.952C539.213 295.952 538.82 296.36 538.82 297.31C538.761 299.901 539.726 302.41 541.504 304.294C543.282 306.178 545.73 307.284 548.318 307.373C550.191 307.468 550.272 307.373 550.258 305.458C550.166 302.863 549.057 300.409 547.17 298.628C545.283 296.846 542.77 295.88 540.177 295.939V295.952ZM523.569 280.893C522.195 280.862 520.831 281.117 519.561 281.64C518.291 282.162 517.142 282.943 516.188 283.931C515.233 284.919 514.493 286.094 514.015 287.383C513.536 288.671 513.328 290.044 513.405 291.417C513.405 292.191 513.785 292.476 514.532 292.49C517.151 292.578 519.699 291.63 521.625 289.85C523.55 288.071 524.697 285.604 524.817 282.984C524.749 282.033 525.21 280.866 523.569 280.879V280.893ZM526.947 296.265C526.947 296.754 526.947 297.27 526.947 297.799C526.963 299.083 527.232 300.351 527.739 301.531C528.246 302.71 528.981 303.778 529.901 304.673C530.822 305.567 531.909 306.271 533.102 306.744C534.295 307.216 535.57 307.449 536.852 307.427C537.884 307.427 538.386 307.142 538.359 305.974C538.325 303.858 537.68 301.796 536.5 300.04C534.491 297.079 530.095 295.301 526.947 296.251V296.265ZM526.947 290.358C526.947 292.53 527.029 292.653 529.145 292.462C531.699 292.255 534.076 291.074 535.785 289.164C537.495 287.253 538.406 284.759 538.331 282.196C538.331 281.246 537.924 280.838 536.975 280.838C534.393 280.794 531.896 281.765 530.021 283.542C528.146 285.319 527.043 287.761 526.947 290.344V290.358ZM514.735 295.952C513.772 295.952 513.378 296.36 513.378 297.31C513.32 299.901 514.284 302.41 516.062 304.294C517.84 306.178 520.289 307.284 522.877 307.373C524.735 307.468 524.817 307.373 524.803 305.458C524.711 302.859 523.598 300.401 521.705 298.618C519.812 296.836 517.293 295.873 514.695 295.939L514.735 295.952ZM549.363 239.801V159.682C549.363 144.405 543.596 136.257 536.975 131.939C541.927 136.719 545.713 144.392 545.713 156.762V236.882C545.713 257.495 535.781 267.096 527.029 269.472C522.185 270.83 515.699 270.178 509.389 265.942C516.757 272.731 524.885 274.008 530.679 272.392C539.39 270.002 549.322 260.401 549.322 239.788L549.363 239.801ZM486.118 296.142V297.623C486.122 298.914 486.38 300.192 486.878 301.384C487.376 302.576 488.104 303.657 489.021 304.567C489.937 305.476 491.024 306.196 492.218 306.684C493.413 307.173 494.692 307.421 495.983 307.413C497.421 307.413 497.543 307.291 497.53 305.798C497.576 303.429 496.728 301.131 495.155 299.361C494.068 298.061 492.653 297.076 491.056 296.507C489.46 295.939 487.741 295.808 486.078 296.129L486.118 296.142ZM494.64 281.069C492.985 281.55 491.388 282.211 489.877 283.038C488.659 284.011 487.683 285.253 487.026 286.666C486.37 288.08 486.049 289.627 486.091 291.186C486.091 292.232 486.512 292.544 487.448 292.544C489.908 292.581 492.294 291.706 494.146 290.085C495.998 288.465 497.184 286.216 497.476 283.772C497.788 280.974 497.299 280.485 494.599 281.096L494.64 281.069ZM509.403 280.906C506.812 280.984 504.355 282.074 502.557 283.942C500.759 285.809 499.763 288.307 499.782 290.901C499.782 292.259 499.959 292.49 501.383 292.49C503.994 292.454 506.487 291.394 508.324 289.537C510.161 287.681 511.197 285.176 511.207 282.563C511.153 281.096 510.936 280.838 509.362 280.893L509.403 280.906ZM501.451 296.034C499.959 296.034 499.714 296.197 499.742 297.623C499.737 298.937 499.997 300.24 500.506 301.452C501.014 302.664 501.76 303.762 502.701 304.681C503.641 305.599 504.756 306.319 505.979 306.797C507.203 307.276 508.51 307.504 509.823 307.468C510.719 307.468 511.18 307.155 511.18 306.205C511.156 305.112 511.02 304.024 510.773 302.959C510.203 300.936 508.979 299.159 507.293 297.905C505.606 296.652 503.552 295.994 501.451 296.034ZM549.051 280.947C547.677 280.917 546.312 281.171 545.041 281.694C543.77 282.217 542.621 282.996 541.666 283.985C540.71 284.973 539.969 286.148 539.489 287.436C539.008 288.724 538.799 290.098 538.874 291.471C538.874 292.245 539.268 292.53 540.014 292.544C542.633 292.632 545.182 291.684 547.107 289.905C549.032 288.125 550.179 285.658 550.299 283.038C550.231 282.033 550.679 280.866 549.051 280.879V280.947ZM589.215 294.255C590.103 295.505 591.277 296.524 592.639 297.227C594.001 297.931 595.511 298.298 597.044 298.298C598.576 298.298 600.087 297.931 601.449 297.227C602.811 296.524 603.985 295.505 604.873 294.255C600.789 288.443 592.308 289.244 589.215 294.187V294.255ZM654.223 303.543H607.153C606.667 303.6 606.22 303.834 605.895 304.199C605.57 304.565 605.39 305.037 605.39 305.526C605.39 306.015 605.57 306.487 605.895 306.853C606.22 307.218 606.667 307.452 607.153 307.509H654.223C654.708 307.452 655.156 307.218 655.481 306.853C655.806 306.487 655.985 306.015 655.985 305.526C655.985 305.037 655.806 304.565 655.481 304.199C655.156 303.834 654.708 303.6 654.223 303.543ZM579.594 296.319C579.594 296.808 579.594 297.324 579.594 297.853C579.61 299.136 579.879 300.403 580.385 301.582C580.891 302.76 581.625 303.828 582.544 304.722C583.462 305.616 584.549 306.321 585.74 306.794C586.931 307.268 588.204 307.501 589.486 307.481C590.531 307.481 591.033 307.196 590.992 306.028C590.964 303.913 590.323 301.852 589.147 300.094C587.098 297.079 582.688 295.301 579.54 296.251L579.594 296.319ZM664.318 296.047H617.194C616.708 296.104 616.26 296.338 615.936 296.703C615.611 297.069 615.431 297.541 615.431 298.03C615.431 298.519 615.611 298.991 615.936 299.357C616.26 299.722 616.708 299.956 617.194 300.013H664.264C664.749 299.956 665.197 299.722 665.522 299.357C665.847 298.991 666.026 298.519 666.026 298.03C666.026 297.541 665.847 297.069 665.522 296.703C665.197 296.338 664.749 296.104 664.264 296.047H664.318ZM567.355 296.047C566.392 296.047 565.998 296.455 565.998 297.405C565.94 299.996 566.904 302.505 568.682 304.389C570.46 306.273 572.909 307.379 575.497 307.468C577.369 307.563 577.45 307.468 577.437 305.553C577.404 304.255 577.115 302.977 576.587 301.791C576.059 300.605 575.303 299.535 574.361 298.642C573.42 297.749 572.312 297.051 571.1 296.587C569.889 296.123 568.598 295.903 567.301 295.939L567.355 296.047ZM552.43 296.36C552.43 296.849 552.43 297.365 552.43 297.894C552.445 299.177 552.714 300.444 553.22 301.623C553.726 302.801 554.46 303.868 555.379 304.763C556.298 305.657 557.384 306.361 558.575 306.835C559.766 307.308 561.039 307.542 562.321 307.522C563.366 307.522 563.868 307.237 563.827 306.069C563.799 303.954 563.158 301.893 561.982 300.135C559.974 297.079 555.577 295.301 552.416 296.251L552.43 296.36ZM475.358 258.147H471.206C468.398 276.194 472.862 295.491 476.756 302.145L464.666 302.606L467.271 305.567L480.406 305.064C476.267 298.071 471.532 277.023 475.358 258.147ZM576.175 280.879C574.801 280.849 573.436 281.103 572.165 281.626C570.895 282.149 569.745 282.929 568.79 283.917C567.834 284.905 567.093 286.08 566.613 287.368C566.132 288.656 565.923 290.03 565.998 291.403C565.998 292.177 566.392 292.462 567.138 292.476C569.757 292.565 572.306 291.616 574.231 289.837C576.156 288.058 577.303 285.59 577.423 282.97C577.355 282.033 577.803 280.866 576.175 280.879ZM146.911 270.694C144.805 270.104 142.804 269.187 140.981 267.979C143.646 270.639 146.942 272.578 150.561 273.614C156.735 275.298 164.442 276.411 172.271 268.495C172.271 268.495 176.559 263.321 178.73 249.755C167.698 274.402 155.73 273.098 146.911 270.694ZM202.258 212.561C202.258 212.561 202.529 171.578 202.529 140.589C202.529 111.027 196.926 85.8095 181.946 70.9807C180.654 69.712 179.25 68.5621 177.753 67.5451C177.956 67.7352 178.16 67.871 178.35 68.0611C193.276 82.8899 198.934 108.107 198.934 137.67C198.934 168.658 198.676 209.641 198.676 209.641V268.495H177.291C176.772 269.547 176.12 270.528 175.351 271.414H202.258V212.561ZM159.055 146.469C160.615 144.364 161.077 143.101 166.884 143.197C167.545 143.219 168.197 143.357 168.811 143.604C168.208 142.65 167.389 141.851 166.42 141.273C165.451 140.695 164.359 140.354 163.234 140.277C157.427 140.182 156.965 141.445 155.405 143.55C154.048 145.383 152.433 149.267 152.433 157.319L152.325 197.949H152.447L152.338 239.122C152.338 246.577 154.509 249.728 156.707 251.344C157.268 251.755 157.873 252.102 158.512 252.376C157.155 250.42 155.988 247.324 155.988 242.042L156.083 200.869H156.043V160.239C156.043 152.186 157.698 148.302 159.055 146.469ZM169.734 129.006C171.425 130.617 172.899 132.443 174.116 134.438C174.116 133.827 174.116 133.27 174.116 132.686C172.794 131.303 171.324 130.069 169.734 129.006ZM162.949 80.5543C156.165 73.1534 147.454 75.9644 140.072 83.2701L141.741 88.2674C148.295 80.853 156.246 76.7927 163.003 80.5271L162.949 80.5543ZM458.248 255.295H461.898V62.059C460.691 61.8731 459.468 61.8049 458.248 61.8553V255.295ZM243.86 62.0182H238.229C234.589 67.4106 232.266 73.5829 231.445 80.0382C234.552 70.7634 239.057 65.1823 243.874 62.0046L243.86 62.0182ZM239.193 199.035C250.902 207.468 261.31 209.383 266.045 208.242C278.094 205.363 285.639 195.301 285.639 174.687V131.858C285.747 131.858 285.951 94.6498 285.951 94.6498C285.951 78.5716 279.79 69.2289 272.857 64.7749C278.162 69.9622 282.355 78.6124 282.355 91.7845C282.355 91.7845 282.151 128.992 282.057 128.992V171.809C282.057 192.422 274.499 202.485 262.45 205.363C257.728 206.504 247.307 204.589 235.597 196.157V269.051H215.121V271.971H239.206L239.193 199.035ZM235.678 103.843L235.542 128.015L235.339 181.464C236.614 182.278 237.808 182.998 238.962 183.663L239.152 130.893C239.152 130.893 239.274 106.736 239.274 106.722C239.274 93.6449 246.56 76.6977 255.285 80.3234C254.773 79.6011 254.15 78.9641 253.44 78.4358C243.996 71.4831 235.692 89.8562 235.692 103.83L235.678 103.843ZM57.8855 230.852V48.6832C57.8855 38.2677 59.4323 33.5692 60.7485 31.4236C61.4134 30.3101 63.1773 27.4312 69.2698 26.277H76.8005V23.3574H65.6197C59.5273 24.5116 57.7634 27.4312 57.0985 28.504C55.7823 30.6496 54.2762 35.3073 54.2762 45.7636V227.946C54.4336 234.951 53.2831 241.923 50.884 248.506H55.4838C57.1659 242.775 57.9755 236.824 57.8855 230.852ZM364.623 268.983H343.998V271.903H368.273V61.8553H364.623V268.983ZM102.527 271.917C102.432 270.966 102.337 270.016 102.256 268.997H27.8305C25.8223 286.039 28.916 297.161 33.0816 304.304L18.4951 304.847L21.1003 307.807L36.7181 307.223C32.566 300.094 29.4588 288.973 31.4805 271.917H102.527ZM362.845 291.96H142.243C141.758 292.017 141.31 292.25 140.985 292.616C140.66 292.981 140.481 293.453 140.481 293.943C140.481 294.432 140.66 294.904 140.985 295.269C141.31 295.635 141.758 295.868 142.243 295.925H200.358C223.778 296.672 241.065 298.763 267.361 302.308C315.002 308.717 336.183 316.729 350.349 316.96C324.147 308.731 294.255 299.266 249.668 296.034H362.832C363.317 295.977 363.765 295.743 364.09 295.378C364.415 295.013 364.594 294.54 364.594 294.051C364.594 293.562 364.415 293.09 364.09 292.724C363.765 292.359 363.317 292.126 362.832 292.069L362.845 291.96ZM389.63 273.75C389.047 290.344 393.213 297.392 395.981 302.117L384.013 302.566C384.813 303.584 385.641 304.562 386.496 305.539L399.631 305.037C396.917 300.311 392.697 293.264 393.28 276.669H452.101C451.993 275.732 451.884 274.782 451.789 273.75H389.63ZM449.686 291.96H397.256C397.758 293.318 398.206 294.608 398.613 295.939H449.659C450.137 295.87 450.575 295.631 450.891 295.266C451.208 294.9 451.382 294.433 451.382 293.949C451.382 293.466 451.208 292.998 450.891 292.633C450.575 292.268 450.137 292.029 449.659 291.96H449.686ZM121.578 5.70402H117.928V23.3574H104.874V248.506H108.552V26.277H121.578V5.70402ZM129.719 251.778L129.597 251.357H125.635C122.107 272.976 127.467 296.278 132.134 304.317L117.548 304.861L120.167 307.821L135.784 307.237C130.899 298.913 125.282 274.076 129.692 251.778H129.719ZM203.968 290.833C250.238 288.47 273.712 273.41 287.688 258.405C255.706 279.779 207.876 292.978 160.48 285.048C144.401 282.332 141.09 285.048 138.213 285.808C165.934 290.168 185.066 291.797 203.941 290.833H203.968Z" fill="#C69766"/>
<path d="M363.184 57.6175V267.679H338.896V253.706C330.755 265.126 318.19 269.716 310.646 267.679C301.609 265.248 291.337 255.647 291.337 235.088V197.88H291.419L291.636 173.614V57.8212H315.978L315.856 200.718V235.591C315.856 235.767 315.856 235.957 315.856 236.134C315.856 243.589 317.552 246.699 319.778 248.355C326.087 252.932 334.106 246.59 338.896 237.75V57.6175H363.184ZM450.351 272.527H388.192C387.608 289.121 391.774 296.169 394.528 300.908L381.407 301.397C373.985 292.964 368.639 284.504 368.87 254.045H370.81C378.639 253.923 380.661 252.117 381.665 251.017C382.669 249.917 384.691 246.617 384.691 238.008V92.7205C384.691 69.1194 398.043 57.9434 420.336 57.9434L432.019 57.8484C432.019 57.6718 456.755 57.441 456.755 57.8484V253.936H470.216C466.389 272.771 471.165 293.86 475.263 300.881L462.128 301.37C456.362 294.675 451.979 290.696 450.351 272.527ZM432.073 254.004V74.5512C431.083 74.5512 420.499 74.6598 420.336 74.6598C412.195 74.6598 409.793 83.7852 409.793 92.0552V238.279C409.899 243.646 408.978 248.984 407.08 254.004H432.073ZM634.439 57.5768L634.697 179.602C618.292 190.058 612.987 189.8 612.987 168.182V57.5768H589.242V170.436C589.242 191.05 597.288 201.112 609.337 204.005C614.059 205.132 622.58 203.231 634.29 194.784V267.679H658.606V57.5768H634.439ZM26.3919 267.679C24.3701 284.721 27.4774 295.856 31.6294 302.986L16.0117 303.583C7.17835 293.548 1.08594 288.646 1.08594 247.228H8.14174C13.5693 247.228 20.6115 246.441 23.0675 242.706C23.9766 241.443 25.7813 237.709 25.7813 225.949V44.812C25.8491 8.67697 46.9487 1.09961 64.6425 1.09961C66.7321 1.09961 116.489 1.46626 116.489 1.46626V22.0528H103.422V247.215L124.671 247.147C120.112 269.553 125.784 294.675 130.669 302.986L115.051 303.583C107.941 295.517 102.622 290.75 100.817 267.693L26.3919 267.679ZM49.4589 247.215H75.3483V22.0528H64.1811C58.0887 23.1935 56.3247 26.1266 55.6599 27.1858C54.303 29.3314 52.7968 33.9756 52.7968 44.4454V226.628C52.9706 233.639 51.834 240.621 49.4453 247.215H49.4589ZM550.272 57.6175V267.679H575.32V57.6175H550.272ZM544.234 235.509C544.234 256.109 534.301 265.71 525.549 268.1C516.797 270.49 502.998 266.552 494.273 247.147C494.721 261.704 503.893 268.1 503.893 268.1H474.802V199.483V58.1471H499.524V131.042C511.234 122.595 520.135 122.894 524.749 124.361C533.691 127.077 544.166 134.776 544.166 155.39L544.234 235.509ZM519.81 157.549C519.81 141.81 515.522 135.673 499.117 146.129L499.429 226.777C500.474 240.099 507.34 255.159 515.915 248.736C518.073 247.12 519.715 244.023 519.715 236.514L519.81 157.549ZM280.564 127.647V170.45C280.564 191.063 273.019 201.126 260.97 204.018C256.235 205.145 245.827 203.244 234.117 194.798V267.693H210.033V109.491L210.141 57.7805H239.219C239.219 57.7805 232.15 64.2579 229.979 78.7201C237.523 56.3954 253.046 55.3633 261.839 57.7805C270.631 60.1976 280.835 69.8119 280.835 90.3713C280.876 90.412 280.672 127.647 280.564 127.647ZM256.452 109.491V89.3257C256.452 81.8705 254.308 78.7608 252.11 77.1041C242.612 70.1242 234.307 88.5109 234.307 102.471L234.185 126.642L233.982 180.091C250.387 190.561 256.479 189.76 256.479 168.141L256.452 109.491ZM197.237 208.323V267.19H170.249C170.249 267.19 174.387 263.116 177.332 248.437C166.26 273.084 154.265 271.793 145.472 269.376C136.679 266.959 126.476 257.345 126.476 236.786V208.323H126.408L126.516 156.721C126.516 133.269 137.209 121.414 154.767 121.414C162.908 121.414 169.842 128.204 172.718 133.079C172.718 67.5306 151.225 67.5306 136.693 84.0568L129.447 61.5013C130.424 61.5013 159.557 49.6056 176.857 66.7429C191.783 81.5854 197.441 106.789 197.441 136.352C197.441 167.34 197.169 208.323 197.169 208.323H197.237ZM173.166 208.323L173.071 164.678C173.071 156.422 170.262 139.108 161.863 138.972C156.056 138.864 155.594 140.127 154.034 142.231C152.677 144.078 151.062 147.948 151.062 156.015L150.954 196.631H151.062L150.967 237.79C150.967 245.259 153.139 248.396 155.337 250.012C164.835 256.992 172.976 238.673 172.976 224.713L173.166 208.323Z" fill="#FFF9BE"/>
<path d="M363.184 57.6175V267.679H338.896V253.706C330.755 265.126 318.19 269.716 310.646 267.679C301.609 265.248 291.337 255.647 291.337 235.088V197.88H291.419L291.636 173.614V57.8212H315.978L315.856 200.718V235.591C315.856 235.767 315.856 235.957 315.856 236.134C315.856 243.589 317.552 246.699 319.778 248.355C326.087 252.932 334.106 246.59 338.896 237.75V57.6175H363.184ZM450.351 272.527H388.192C387.608 289.121 391.774 296.169 394.528 300.908L381.407 301.397C373.985 292.964 368.639 284.504 368.87 254.045H370.81C378.639 253.923 380.661 252.117 381.665 251.017C382.669 249.917 384.691 246.617 384.691 238.008V92.7205C384.691 69.1194 398.043 57.9434 420.336 57.9434L432.019 57.8484C432.019 57.6718 456.755 57.441 456.755 57.8484V253.936H470.216C466.389 272.771 471.165 293.86 475.263 300.881L462.128 301.37C456.362 294.675 451.979 290.696 450.351 272.527ZM432.073 254.004V74.5512C431.083 74.5512 420.499 74.6598 420.336 74.6598C412.195 74.6598 409.793 83.7852 409.793 92.0552V238.279C409.899 243.646 408.978 248.984 407.08 254.004H432.073ZM634.439 57.5768L634.697 179.602C618.292 190.058 612.987 189.8 612.987 168.182V57.5768H589.242V170.436C589.242 191.05 597.288 201.112 609.337 204.005C614.059 205.132 622.58 203.231 634.29 194.784V267.679H658.606V57.5768H634.439ZM26.3919 267.679C24.3701 284.721 27.4774 295.856 31.6294 302.986L16.0117 303.583C7.17835 293.548 1.08594 288.646 1.08594 247.228H8.14174C13.5693 247.228 20.6115 246.441 23.0675 242.706C23.9766 241.443 25.7813 237.709 25.7813 225.949V44.812C25.8491 8.67697 46.9487 1.09961 64.6425 1.09961C66.7321 1.09961 116.489 1.46626 116.489 1.46626V22.0528H103.422V247.215L124.671 247.147C120.112 269.553 125.784 294.675 130.668 302.986L115.051 303.583C107.941 295.517 102.622 290.751 100.817 267.692L26.3919 267.679ZM49.4589 247.215H75.3483V22.0528H64.1811C58.0887 23.1935 56.3247 26.1266 55.6599 27.1858C54.303 29.3314 52.7968 33.9756 52.7968 44.4454V226.628C52.9706 233.639 51.834 240.621 49.4453 247.215H49.4589ZM550.272 57.6175V267.679H575.32V57.6175H550.272ZM544.234 235.509C544.234 256.109 534.301 265.71 525.549 268.1C516.797 270.49 502.998 266.552 494.273 247.147C494.721 261.704 503.893 268.1 503.893 268.1H474.802V199.483V58.1471H499.524V131.042C511.234 122.595 520.135 122.894 524.749 124.361C533.691 127.077 544.166 134.776 544.166 155.39L544.234 235.509ZM519.81 157.549C519.81 141.81 515.522 135.673 499.117 146.129L499.429 226.777C500.474 240.099 507.34 255.159 515.915 248.735C518.073 247.12 519.715 244.023 519.715 236.514L519.81 157.549ZM280.564 127.647V170.45C280.564 191.063 273.019 201.126 260.97 204.018C256.235 205.145 245.827 203.244 234.117 194.798V267.692H210.033V109.491L210.141 57.7805H239.219C239.219 57.7805 232.15 64.2579 229.979 78.7201C237.523 56.3954 253.046 55.3633 261.839 57.7805C270.631 60.1976 280.835 69.8119 280.835 90.3713C280.876 90.412 280.672 127.647 280.564 127.647ZM256.452 109.491V89.3257C256.452 81.8705 254.308 78.7608 252.11 77.1041C242.612 70.1242 234.307 88.5109 234.307 102.471L234.185 126.642L233.982 180.091C250.386 190.561 256.479 189.76 256.479 168.141L256.452 109.491ZM197.237 208.323V267.19H170.249C170.249 267.19 174.387 263.116 177.332 248.437C166.26 273.084 154.265 271.793 145.472 269.376C136.679 266.959 126.476 257.345 126.476 236.786V208.323H126.408L126.516 156.721C126.516 133.269 137.209 121.414 154.767 121.414C162.908 121.414 169.842 128.204 172.718 133.079C172.718 67.5306 151.225 67.5306 136.693 84.0568L129.447 61.5013C130.424 61.5013 159.557 49.6056 176.857 66.7429C191.783 81.5853 197.441 106.789 197.441 136.352C197.441 167.34 197.169 208.323 197.169 208.323H197.237ZM173.166 208.323L173.071 164.678C173.071 156.422 170.262 139.108 161.863 138.972C156.056 138.864 155.594 140.127 154.034 142.231C152.677 144.078 151.062 147.948 151.062 156.015L150.954 196.631H151.062L150.968 237.79C150.968 245.259 153.139 248.396 155.337 250.012C164.835 256.992 172.976 238.673 172.976 224.713L173.166 208.323Z" stroke="#FEFEFE" stroke-width="0.81" stroke-linecap="round" stroke-linejoin="round"/>
<path d="M363.184 57.6175V267.679H338.896V253.706C330.755 265.126 318.19 269.716 310.646 267.679C301.609 265.248 291.337 255.647 291.337 235.088V197.88H291.419L291.636 173.614V57.8212H315.978L315.856 200.718V235.591C315.856 235.767 315.856 235.957 315.856 236.134C315.856 243.589 317.552 246.699 319.778 248.355C326.087 252.932 334.106 246.59 338.896 237.75V57.6175H363.184ZM450.351 272.527H388.192C387.608 289.121 391.774 296.169 394.528 300.908L381.407 301.397C373.985 292.964 368.639 284.504 368.87 254.045H370.81C378.639 253.923 380.661 252.117 381.665 251.017C382.669 249.917 384.691 246.617 384.691 238.008V92.7205C384.691 69.1194 398.043 57.9434 420.336 57.9434L432.019 57.8484C432.019 57.6718 456.755 57.441 456.755 57.8484V253.936H470.216C466.389 272.771 471.165 293.86 475.263 300.881L462.128 301.37C456.362 294.675 451.979 290.696 450.351 272.527ZM432.073 254.004V74.5512C431.083 74.5512 420.499 74.6598 420.336 74.6598C412.195 74.6598 409.793 83.7852 409.793 92.0552V238.279C409.899 243.646 408.978 248.984 407.08 254.004H432.073ZM634.439 57.5768L634.697 179.602C618.292 190.058 612.987 189.8 612.987 168.182V57.5768H589.242V170.436C589.242 191.05 597.288 201.112 609.337 204.005C614.059 205.132 622.58 203.231 634.29 194.784V267.679H658.606V57.5768H634.439ZM26.3919 267.679C24.3701 284.721 27.4774 295.856 31.6294 302.986L16.0117 303.583C7.17835 293.548 1.08594 288.646 1.08594 247.228H8.14174C13.5693 247.228 20.6115 246.441 23.0675 242.706C23.9766 241.443 25.7813 237.709 25.7813 225.949V44.812C25.8491 8.67697 46.9487 1.09961 64.6425 1.09961C66.7321 1.09961 116.489 1.46626 116.489 1.46626V22.0528H103.422V247.215L124.671 247.147C120.112 269.553 125.784 294.675 130.668 302.986L115.051 303.583C107.941 295.517 102.622 290.751 100.817 267.692L26.3919 267.679ZM49.4589 247.215H75.3483V22.0528H64.1811C58.0887 23.1935 56.3247 26.1266 55.6599 27.1858C54.303 29.3314 52.7968 33.9756 52.7968 44.4454V226.628C52.9706 233.639 51.834 240.621 49.4453 247.215H49.4589ZM550.272 57.6175V267.679H575.32V57.6175H550.272ZM544.234 235.509C544.234 256.109 534.301 265.71 525.549 268.1C516.797 270.49 502.998 266.552 494.273 247.147C494.721 261.704 503.893 268.1 503.893 268.1H474.802V199.483V58.1471H499.524V131.042C511.234 122.595 520.135 122.894 524.749 124.361C533.691 127.077 544.166 134.776 544.166 155.39L544.234 235.509ZM519.81 157.549C519.81 141.81 515.522 135.673 499.117 146.129L499.429 226.777C500.474 240.099 507.34 255.159 515.915 248.735C518.073 247.12 519.715 244.023 519.715 236.514L519.81 157.549ZM280.564 127.647V170.45C280.564 191.063 273.019 201.126 260.97 204.018C256.235 205.145 245.827 203.244 234.117 194.798V267.692H210.033V109.491L210.141 57.7805H239.219C239.219 57.7805 232.15 64.2579 229.979 78.7201C237.523 56.3954 253.046 55.3633 261.839 57.7805C270.631 60.1976 280.835 69.8119 280.835 90.3713C280.876 90.412 280.672 127.647 280.564 127.647ZM256.452 109.491V89.3257C256.452 81.8705 254.308 78.7608 252.11 77.1041C242.612 70.1242 234.307 88.5109 234.307 102.471L234.185 126.642L233.982 180.091C250.386 190.561 256.479 189.76 256.479 168.141L256.452 109.491ZM197.237 208.323V267.19H170.249C170.249 267.19 174.387 263.116 177.332 248.437C166.26 273.084 154.265 271.793 145.472 269.376C136.679 266.959 126.476 257.345 126.476 236.786V208.323H126.408L126.516 156.721C126.516 133.269 137.209 121.414 154.767 121.414C162.908 121.414 169.842 128.204 172.718 133.079C172.718 67.5306 151.225 67.5306 136.693 84.0568L129.447 61.5013C130.424 61.5013 159.557 49.6056 176.857 66.7429C191.783 81.5853 197.441 106.789 197.441 136.352C197.441 167.34 197.169 208.323 197.169 208.323H197.237ZM173.166 208.323L173.071 164.678C173.071 156.422 170.262 139.108 161.863 138.972C156.056 138.864 155.594 140.127 154.034 142.231C152.677 144.078 151.062 147.948 151.062 156.015L150.954 196.631H151.062L150.968 237.79C150.968 245.259 153.139 248.396 155.337 250.012C164.835 256.992 172.976 238.673 172.976 224.713L173.166 208.323Z" stroke="#FFF9BE" stroke-width="1.63" stroke-linecap="round" stroke-linejoin="round"/>
</g>
<defs>
<clipPath id="clip0_178_2083">
<rect width="666" height="317" fill="white"/>
</clipPath>
</defs>
</svg>
