<svg width="199" height="143" viewBox="0 0 199 143" fill="none" xmlns="http://www.w3.org/2000/svg">
<g clip-path="url(#clip0_377_1081)">
<path d="M114.46 3.39292C114.46 1.90603 115.655 0.710058 117.139 0.710058C117.914 0.710058 118.624 1.0333 119.108 1.5828L118.269 2.35857C117.946 2.06765 117.559 1.93836 117.107 1.93836C116.332 1.93836 115.719 2.52018 115.719 3.42525C115.719 4.33031 116.332 4.87981 117.107 4.87981C117.559 4.87981 117.946 4.75052 118.269 4.45961L119.108 5.23537C118.624 5.75255 117.914 6.10811 117.139 6.10811C115.655 6.07579 114.46 4.87981 114.46 3.39292ZM121.497 6.01114H122.788V1.97068H124.144V0.774705H120.174V1.97068H121.497V6.01114ZM142.188 6.07579C142.963 6.07579 143.673 5.75255 144.157 5.20305L143.318 4.42728C142.995 4.7182 142.607 4.84749 142.156 4.84749C141.381 4.84749 140.768 4.26566 140.768 3.39292C140.768 2.48786 141.381 1.90603 142.156 1.90603C142.607 1.90603 142.995 2.06765 143.318 2.32624L144.157 1.55047C143.673 1.0333 142.963 0.677734 142.188 0.677734C140.703 0.677734 139.509 1.87371 139.509 3.3606C139.541 4.87981 140.735 6.07579 142.188 6.07579ZM43.8338 6.01114H45.1249V1.97068H46.4807V0.774705H42.5426V1.97068H43.8661V6.01114H43.8338ZM105.519 4.68587C105.971 4.68587 106.261 4.55658 106.455 4.36263V6.01114H107.714V0.774705H106.455V2.6818C106.455 3.29595 106.068 3.4899 105.713 3.4899C105.261 3.4899 104.873 3.29595 104.873 2.6818V0.774705H103.614V2.61716C103.614 4.20102 104.551 4.68587 105.519 4.68587ZM53.9694 6.01114H52.5491L54.6795 0.774705H55.4542L57.5523 6.01114H56.1321L55.8738 5.30002H54.2276L53.9694 6.01114ZM54.6795 4.10405H55.4542L55.0669 3.06969L54.6795 4.10405ZM49.1598 6.01114H47.9009V0.774705H49.6763C51.2257 0.774705 52.0326 1.71209 52.0326 2.84342C52.0326 3.97475 51.2257 4.91214 49.6763 4.91214H49.1921V6.01114H49.1598ZM49.1598 3.71616H49.7408C50.2896 3.71616 50.806 3.45757 50.806 2.84342C50.806 2.2616 50.2896 1.97068 49.7408 1.97068H49.1598V3.71616ZM182.795 6.98085H181.504V4.81517H182.214L183.86 0.774705H184.635L186.249 4.81517H186.959V6.98085H185.7V6.01114H182.795V6.98085ZM183.602 4.81517H184.893L184.247 3.10201L183.602 4.81517ZM80.309 3.13433V6.01114H81.5679V0.774705H80.7932L78.6305 3.65151V0.774705H77.3716V6.01114H78.1463L80.309 3.13433ZM86.2484 3.13433V6.01114H87.5073V0.774705H86.7326L84.5699 3.65151V0.774705H83.311V6.01114H84.0857L86.2484 3.13433ZM74.757 6.98085H76.0159V4.81517H75.3703V0.774705H74.1115V4.81517H72.5298V0.774705H71.2709V6.01114H74.7893V6.98085H74.757ZM68.2367 3.13433V6.01114H69.4956V0.774705H68.7532L66.5905 3.65151V0.774705H65.3316V6.01114H66.1063L68.2367 3.13433ZM99.3214 6.01114H97.9011L100.064 0.774705H100.838L102.937 6.01114H101.516L101.258 5.30002H99.6119L99.3214 6.01114ZM100.032 4.10405H100.806L100.419 3.06969L100.032 4.10405ZM93.5757 3.97475H93.8662C94.1244 3.97475 94.2536 4.07172 94.415 4.29799L95.5124 6.01114H96.965L95.6416 3.94243C95.351 3.4899 95.1897 3.39292 95.0928 3.32828C95.1897 3.26363 95.351 3.16666 95.6416 2.77877L96.9327 0.774705H95.5124L94.4795 2.42321C94.3181 2.6818 94.189 2.74645 93.9308 2.74645H93.6403V0.774705H92.3814V6.01114H93.6403V3.97475H93.5757ZM59.7796 6.98085H58.5207V4.81517H59.2309L60.8771 0.774705H61.6518L63.2657 4.81517H63.9759V6.98085H62.717V6.01114H59.8119V6.98085H59.7796ZM60.5866 4.81517H61.8777L61.2322 3.10201L60.5866 4.81517ZM127.565 6.01114H125.532V0.774705H127.63C129.179 0.774705 129.438 1.71209 129.438 2.19695C129.438 2.8111 129.115 3.13433 128.792 3.29595C129.276 3.42525 129.599 3.87778 129.599 4.49193C129.567 5.30002 129.115 6.01114 127.565 6.01114ZM126.791 2.77877H127.727C128.114 2.77877 128.179 2.52018 128.179 2.35857C128.179 2.22927 128.114 1.93836 127.727 1.93836H126.791V2.77877ZM126.791 4.81517H127.824C128.243 4.81517 128.34 4.55658 128.34 4.33031C128.34 4.13637 128.211 3.87778 127.824 3.87778H126.791V4.81517ZM157.294 2.55251C157.294 1.67977 157.908 0.710058 159.167 0.710058C160.296 0.710058 161.2 1.61512 161.2 3.00504V3.29595C161.2 4.97679 160.329 6.04347 159.102 6.07579H159.038C158.198 6.07579 157.714 5.72023 157.391 5.36467L158.231 4.5889C158.553 4.78284 158.747 4.84749 159.005 4.84749H159.038C159.489 4.84749 159.909 4.45961 159.974 3.71616C159.78 4.00707 159.425 4.23334 158.941 4.23334C158.069 4.26566 157.294 3.68384 157.294 2.55251ZM158.553 2.55251C158.553 2.94039 158.844 3.16666 159.231 3.16666C159.619 3.16666 159.909 2.90807 159.909 2.55251C159.909 2.16462 159.619 1.93836 159.231 1.93836C158.844 1.93836 158.553 2.16462 158.553 2.55251ZM152.259 2.55251C152.259 1.67977 152.872 0.710058 154.131 0.710058C155.261 0.710058 156.165 1.61512 156.165 3.00504V3.29595C156.165 4.97679 155.293 6.04347 154.067 6.07579H154.002C153.163 6.07579 152.679 5.72023 152.356 5.36467L153.195 4.5889C153.518 4.78284 153.711 4.84749 153.97 4.84749H154.002C154.454 4.84749 154.874 4.45961 154.938 3.71616C154.744 4.00707 154.389 4.23334 153.905 4.23334C153.034 4.26566 152.259 3.68384 152.259 2.55251ZM153.55 2.55251C153.55 2.94039 153.841 3.16666 154.228 3.16666C154.615 3.16666 154.906 2.90807 154.906 2.55251C154.906 2.16462 154.615 1.93836 154.228 1.93836C153.841 1.93836 153.55 2.16462 153.55 2.55251ZM189.347 6.01114H187.927L190.058 0.774705H190.832L192.93 6.01114H191.51L191.252 5.30002H189.606L189.347 6.01114ZM190.058 4.10405H190.832L190.445 3.06969L190.058 4.10405ZM166.3 4.81517H164.428L164.783 4.52425C165.784 3.71616 166.236 3.13433 166.236 2.32624C166.236 1.55047 165.719 0.742382 164.428 0.742382H164.396C163.75 0.742382 163.105 1.06562 162.395 1.67977L163.201 2.45554C163.718 2.06765 164.008 1.93836 164.267 1.93836H164.299C164.686 1.93836 164.977 2.16462 164.977 2.58483C164.977 2.94039 164.751 3.19898 164.364 3.52222L162.265 5.23537V6.01114H166.268V4.81517H166.3ZM172.046 1.97068H174.241V0.774705H170.787V6.01114H172.046V1.97068ZM175.306 3.39292C175.306 1.90603 176.5 0.710058 177.985 0.710058C179.47 0.710058 180.664 1.90603 180.664 3.39292C180.664 4.87981 179.47 6.07579 177.985 6.07579C176.5 6.07579 175.306 4.87981 175.306 3.39292ZM176.565 3.39292C176.565 4.29799 177.178 4.84749 177.953 4.84749C178.728 4.84749 179.341 4.29799 179.341 3.39292C179.341 2.48786 178.728 1.90603 177.953 1.90603C177.178 1.90603 176.565 2.48786 176.565 3.39292ZM133.408 0.774705L135.506 6.01114H134.086L133.828 5.30002H132.181L131.923 6.01114H130.503L132.633 0.774705H133.408ZM133.376 4.10405L132.988 3.06969L132.601 4.10405H133.376ZM109.618 6.01114H113.201V4.81517H110.877V4.00707H112.975V2.77877H110.877V1.97068H113.201V0.774705H109.618V6.01114ZM149.483 3.00504V6.04347H150.742V0.774705H149.967L148.159 2.94039L148.966 3.55454L149.483 3.00504ZM95.5447 74.2788C95.7384 74.4081 95.8998 74.505 96.0935 74.5697C95.7061 73.9879 95.4479 73.0828 95.4479 71.5313V60.9937L95.4802 18.4558H94.3827V60.121V70.6585C94.3827 72.8889 94.8669 73.7939 95.5447 74.2788ZM173.014 87.0466C174.596 86.9173 175.79 85.5597 175.758 83.9759C175.758 83.685 175.629 83.588 175.371 83.588C173.757 83.588 172.401 84.8163 172.369 86.4001C172.369 87.0466 172.401 87.0789 173.014 87.0466ZM180.632 85.1072H194.641C194.932 85.1072 195.158 84.8486 195.158 84.5254C195.158 84.2021 194.932 83.9436 194.641 83.9436H180.632C180.342 83.9436 180.116 84.2021 180.116 84.5254C180.116 84.8486 180.342 85.1072 180.632 85.1072ZM172.595 18.3911H171.497V80.0324H165.138V80.9051H172.562V18.3911H172.595ZM164.299 86.4001C164.299 87.0466 164.331 87.079 164.945 87.0143C166.526 86.885 167.721 85.5274 167.688 83.9436C167.688 83.6526 167.559 83.5557 167.301 83.5557C165.687 83.588 164.331 84.8163 164.299 86.4001ZM190.154 80.9051H197.385V18.3911H196.287V80.0647H190.154V80.9051ZM154.357 43.3127C153.55 41.9551 151.904 41.9874 148.87 43.8945L148.966 67.8787C149.192 70.8201 150.387 74.0525 152.033 74.7313C150.968 73.406 150.225 70.9818 150.064 68.7514L149.967 44.7672C152.001 43.4743 153.421 43.0218 154.357 43.3127ZM182.73 18.3911V50.4562C182.73 53.9795 183.214 55.5957 184.441 55.8219C183.989 54.9815 183.796 53.527 183.796 51.329V18.3911H182.73ZM150.29 80.194H142.737V81.0667H151.387C151.387 81.0667 149.225 79.5475 148.676 76.1859C148.256 75.5394 147.837 74.796 147.449 73.9555C147.578 78.3192 150.29 80.194 150.29 80.194ZM101.226 78.0606V75.895C98.7726 79.2889 95.0605 80.6465 92.8333 80.0647C92.22 79.9031 91.6067 79.6122 90.9934 79.2243C91.8972 80.1294 92.9301 80.6789 93.9308 80.9374C95.8352 81.4546 98.8695 80.4849 101.226 78.0606ZM181.665 61.0907C180.826 60.8968 180.083 60.5735 179.373 60.121C180.309 61.0584 181.439 61.6402 182.73 61.9634C183.989 62.2544 186.152 61.8342 189.057 59.9594V58.3432C185.603 60.8644 183.053 61.4463 181.665 61.0907ZM122.304 27.7973V71.305C122.304 73.0828 122.046 74.6343 121.497 75.9919H122.885C123.208 74.8606 123.401 73.6 123.401 72.1777V28.67C123.401 26.2134 124.112 23.4983 126.533 23.4983C126.565 23.4983 127.921 23.4659 128.921 23.4659V22.5932C128.631 22.5932 125.467 22.6255 125.435 22.6255C123.014 22.5932 122.304 25.3084 122.304 27.7973ZM183.57 86.0123C183.279 86.0123 183.053 86.2709 183.053 86.5941C183.053 86.9173 183.279 87.1759 183.57 87.1759H197.579C197.869 87.1759 198.095 86.9173 198.095 86.5941C198.095 86.2709 197.869 86.0123 197.579 86.0123H183.57ZM148.999 18.5527V39.3692C149.386 39.1106 149.741 38.852 150.096 38.6581V18.5527H148.999ZM160.651 88.081C160.361 88.081 160.264 88.2103 160.264 88.5012C160.232 90.1174 161.458 91.4103 163.105 91.5073C163.653 91.5396 163.686 91.5073 163.686 90.9255C163.653 89.3416 162.233 88.0163 160.651 88.081ZM155.713 83.588C153.937 83.6203 152.614 84.9779 152.679 86.7234C152.679 86.9497 152.808 87.0466 153.001 87.0466C154.615 87.0789 156.003 85.8507 156.068 84.2021C156.068 83.9436 156.197 83.588 155.713 83.588ZM156.713 88.178C156.713 88.3073 156.713 88.4689 156.713 88.6305C156.681 90.1497 158.005 91.5073 159.651 91.5073C159.974 91.5073 160.103 91.4103 160.103 91.0871C160.07 90.4406 159.909 89.8588 159.554 89.3093C158.973 88.4042 157.65 87.887 156.713 88.178ZM156.713 86.4001C156.713 87.0466 156.746 87.079 157.359 87.0143C158.941 86.885 160.135 85.5274 160.103 83.9436C160.103 83.6526 159.974 83.5557 159.715 83.5557C158.101 83.588 156.746 84.8163 156.713 86.4001ZM153.066 88.081C152.775 88.081 152.679 88.2103 152.679 88.5012C152.646 90.1174 153.873 91.4103 155.519 91.5073C156.068 91.5396 156.1 91.5073 156.1 90.9255C156.068 89.3416 154.68 88.0163 153.066 88.081ZM163.363 71.3696V47.5148C163.363 42.9571 161.652 40.5328 159.683 39.2722C161.168 40.6945 162.298 42.9894 162.298 46.6743V70.5292C162.298 76.6707 159.328 79.5152 156.746 80.2587C155.293 80.6465 153.389 80.4526 151.484 79.192C153.679 81.2284 156.1 81.5839 157.811 81.0991C160.425 80.3556 163.363 77.4788 163.363 71.3696ZM144.577 88.1133C144.577 88.2749 144.577 88.4365 144.577 88.5658C144.577 90.182 145.9 91.475 147.514 91.475C147.934 91.475 147.966 91.4426 147.966 90.9901C147.966 90.279 147.74 89.6002 147.256 89.083C146.546 88.3073 145.674 87.984 144.577 88.1133ZM147.094 83.6526C146.675 83.7496 145.739 84.1698 145.674 84.2345C144.932 84.8809 144.544 85.6567 144.544 86.6587C144.544 86.982 144.673 87.0466 144.964 87.0466C146.449 87.0143 147.74 86.0446 147.934 84.4284C148.063 83.6203 147.901 83.4587 147.094 83.6526ZM151.484 83.588C149.87 83.6526 148.611 84.9456 148.611 86.5618C148.611 86.982 148.676 87.0466 149.096 87.0466C150.677 87.0466 152.033 85.689 152.001 84.1052C152.033 83.6203 151.968 83.588 151.484 83.588ZM149.128 88.081C148.676 88.0487 148.611 88.1456 148.611 88.5658C148.644 90.3113 150.032 91.5073 151.613 91.5073C151.872 91.5073 152.033 91.4103 152.001 91.1194C151.968 90.7962 151.968 90.4729 151.872 90.1497C151.484 88.8568 150.484 88.1133 149.128 88.081ZM163.298 83.588C161.523 83.6203 160.2 84.9779 160.264 86.7234C160.264 86.9497 160.393 87.0466 160.587 87.0466C162.201 87.0789 163.589 85.8507 163.653 84.2021C163.653 83.9436 163.783 83.588 163.298 83.588ZM175.242 87.5638C176.21 89.0507 178.631 89.277 179.89 87.5638C178.695 85.8506 176.178 86.0769 175.242 87.5638ZM194.577 90.3113H180.568C180.277 90.3113 180.051 90.5699 180.051 90.8932C180.051 91.2164 180.277 91.475 180.568 91.475H194.577C194.867 91.475 195.093 91.2164 195.093 90.8932C195.093 90.5699 194.867 90.3113 194.577 90.3113ZM172.369 88.178C172.369 88.3073 172.369 88.4689 172.369 88.6305C172.336 90.1497 173.66 91.5073 175.306 91.5073C175.629 91.5073 175.758 91.4103 175.758 91.0871C175.726 90.4406 175.564 89.8588 175.209 89.3093C174.628 88.4042 173.305 87.887 172.369 88.178ZM197.579 88.081H183.57C183.279 88.081 183.053 88.3396 183.053 88.6628C183.053 88.986 183.279 89.2446 183.57 89.2446H197.579C197.869 89.2446 198.095 88.986 198.095 88.6628C198.063 88.3396 197.837 88.081 197.579 88.081ZM168.721 88.081C168.431 88.081 168.334 88.2103 168.334 88.5012C168.302 90.1174 169.528 91.4103 171.174 91.5073C171.723 91.5396 171.755 91.5073 171.755 90.9255C171.723 89.3416 170.303 88.0163 168.721 88.081ZM164.299 88.178C164.299 88.3073 164.299 88.4689 164.299 88.6305C164.267 90.1497 165.59 91.5073 167.236 91.5073C167.559 91.5073 167.688 91.4103 167.688 91.0871C167.656 90.4406 167.495 89.8588 167.14 89.3093C166.559 88.4042 165.235 87.887 164.299 88.178ZM141.381 76.8323H140.154C139.315 82.1981 140.638 87.9517 141.801 89.9234L138.218 90.0527C138.476 90.3436 138.734 90.6346 138.992 90.9255L142.898 90.7638C141.671 88.6951 140.251 82.4243 141.381 76.8323ZM171.368 83.588C169.593 83.6203 168.269 84.9779 168.334 86.7234C168.334 86.9497 168.463 87.0466 168.657 87.0466C170.271 87.0789 171.659 85.8507 171.723 84.2021C171.723 83.9436 171.852 83.588 171.368 83.588ZM43.7047 80.5496C43.1236 80.3879 42.5103 80.1294 41.9293 79.7415C42.8331 80.6142 43.8338 81.1637 44.7699 81.4223C46.6098 81.9395 48.9016 82.2627 51.2257 79.9031C51.2257 79.9031 52.4845 78.3516 53.1624 74.3111C49.8699 81.6486 46.3193 81.2607 43.7047 80.5496ZM60.1669 63.2564C60.1669 63.2564 60.2315 51.0704 60.2315 41.8258C60.2315 33.0337 58.553 25.5347 54.0985 21.1063C53.7111 20.7184 53.2592 20.3952 52.8396 20.0719C52.9042 20.1366 52.9687 20.1689 53.0333 20.2336C57.4878 24.6619 59.1663 32.161 59.1663 40.953C59.1663 50.1653 59.1017 62.3837 59.1017 62.3837V79.9031H52.7751C52.42 80.5496 52.194 80.7758 52.194 80.7758H60.1992V63.2564H60.1669ZM47.3199 43.5713C47.7718 42.9571 47.9332 42.5692 49.644 42.6016C49.8377 42.6016 50.0313 42.6662 50.225 42.7309C49.7731 42.149 49.2244 41.7611 48.5788 41.7288C46.8357 41.6965 46.7066 42.0844 46.2547 42.6985C45.8351 43.248 45.3832 44.4117 45.3832 46.8036L45.3509 58.8927H45.3832L45.3509 71.1434C45.3509 73.3737 45.9965 74.3111 46.642 74.7959C46.8357 74.9252 46.9971 75.0222 47.1908 75.0869C46.7712 74.505 46.4484 73.6 46.4484 72.0161L46.4807 59.7654H46.4484L46.4807 47.6764C46.4161 45.2844 46.9003 44.1208 47.3199 43.5713ZM50.4832 38.3672C51.032 38.9167 51.4839 39.4662 51.7744 39.9833C51.7744 39.7894 51.7744 39.6278 51.7744 39.4662C51.3871 39.0783 50.9674 38.7227 50.4832 38.3672ZM48.4819 23.9508C46.4806 21.7528 43.8661 22.5932 41.6711 24.7589L42.1553 26.2781C44.092 24.0478 46.4806 22.8518 48.4819 23.9508ZM136.281 75.9596H137.378V18.4558C137.378 18.4234 136.959 18.4234 136.281 18.3911V75.9596ZM72.5298 18.4558H70.8513C70.1734 19.3932 69.2373 21.171 68.8177 23.8215C69.7538 21.074 71.1095 19.3932 72.5298 18.4558ZM71.1418 59.2159C74.6279 61.7372 77.7267 62.2867 79.1147 61.9634C82.6977 61.0907 84.9572 58.1169 84.9572 51.9754V39.2399C84.9895 39.2399 85.054 28.1529 85.054 28.1529C85.054 23.369 83.2141 20.5891 81.1483 19.2315C82.73 20.7831 83.9566 23.3366 83.9566 27.2801C83.9566 27.2801 83.892 38.3672 83.8597 38.3672V51.1027C83.8597 57.2442 81.6002 60.218 78.0172 61.0907C76.5969 61.4139 73.4982 60.8644 70.0443 58.3432V80.0324H63.9759V80.9051H71.1418V59.2159ZM70.1089 30.9004L70.0766 38.1086C70.0766 38.1086 70.0766 38.1086 70.0443 38.1086L69.9798 54.0118C70.3671 54.2381 70.7222 54.4644 71.045 54.6583L71.1095 38.949C71.1095 38.949 71.1095 38.949 71.1418 38.949C71.1418 38.949 71.1741 31.7731 71.1741 31.7408C71.1741 27.862 73.3368 22.8195 75.9191 23.8861C75.7577 23.6599 75.564 23.4659 75.3703 23.3366C72.5621 21.2679 70.1089 26.7306 70.1089 30.9004ZM17.2036 68.7191V14.4799C17.2036 11.3769 17.6555 9.98696 18.0429 9.34048C18.2365 9.01725 18.753 8.14451 20.5929 7.82127H22.8201V6.94853H19.5277C17.7201 7.30409 17.2036 8.14451 16.9776 8.46774C16.5903 9.11422 16.1384 10.5041 16.1384 13.6072V67.814C16.1384 70.206 15.8156 72.2424 15.1377 73.9555H16.4935C16.9776 72.4686 17.2036 70.7232 17.2036 68.7191ZM108.456 80.0647H108.424H102.452H102.323V80.9374H103.518H109.489H109.522V18.3911H108.456V80.0647ZM30.5025 80.9051C30.4703 80.6142 30.438 80.3556 30.438 80.0324H8.26232C7.64902 85.1072 8.58511 88.4042 9.81171 90.5376L5.48633 90.7315C5.74456 91.0224 6.00279 91.3134 6.26102 91.6043L10.9092 91.4426C9.6826 89.3093 8.74651 86.0123 9.35981 80.9374H30.5025V80.9051ZM107.908 86.885H42.3167C42.0261 86.885 41.8002 87.1436 41.8002 87.4668C41.8002 87.7901 42.0261 88.0487 42.3167 88.0487H59.6182C66.5905 88.2749 71.6905 88.8891 79.5343 89.9558C93.7048 91.8629 99.9992 94.2548 104.228 94.3195C96.4485 91.8629 87.5395 89.0507 74.2729 88.0487H74.5311H74.8216H107.908C108.198 88.0487 108.424 87.7901 108.424 87.4668C108.424 87.1436 108.198 86.885 107.908 86.885ZM115.88 81.487C115.719 86.4325 116.946 88.5335 117.753 89.9234L114.202 90.0527C114.428 90.3436 114.686 90.6346 114.944 90.9255L118.85 90.7638C118.043 89.3416 116.784 87.2729 116.978 82.3274H134.473C134.441 82.0365 134.409 81.7779 134.376 81.4546L115.88 81.487ZM133.731 86.885H118.14C118.301 87.2729 118.431 87.6608 118.56 88.081H133.731C134.021 88.081 134.247 87.8224 134.247 87.4992C134.247 87.1436 134.021 86.885 133.731 86.885ZM36.1514 1.67977H35.0539V6.94853H31.1804V73.9555H32.2779V7.82127H36.1514V1.67977ZM38.5723 74.9252C38.5723 74.8929 38.54 74.8606 38.54 74.7959H37.3457C36.2805 81.2284 37.8944 88.178 39.2824 90.5376L34.9571 90.6992C35.2153 90.9901 35.4735 91.281 35.7317 91.5719L40.3799 91.4103C38.9274 88.9537 37.2489 81.5516 38.5723 74.9252ZM60.6511 86.5618C74.402 85.8506 81.4065 81.39 85.5705 76.897C76.0482 83.2648 61.8454 87.1759 47.7395 84.8163C42.9622 84.0082 41.9616 84.784 41.1223 85.0426C49.3535 86.3355 55.0346 86.8204 60.6511 86.5618Z" fill="#C69766"/>
<path d="M108.005 17.1629V79.6769H107.973H102.001H100.807V75.5072C98.3536 78.9011 94.6415 80.2587 92.4142 79.6769C89.7351 78.9658 86.6686 76.089 86.6686 69.9475V58.8605C86.6686 58.8605 86.6686 58.8605 86.7009 58.8605L86.7654 51.6523V17.1952H93.9959L93.9314 59.7332V70.1091C93.9314 70.1737 93.9314 70.2061 93.9314 70.2707C93.9314 72.5011 94.4478 73.4061 95.0934 73.891C96.9656 75.2486 99.3542 73.3738 100.775 70.7233V17.1629H108.005ZM133.957 81.0992H115.461C115.3 86.0447 116.527 88.1457 117.334 89.5356L113.428 89.6973C111.233 87.176 109.619 84.6548 109.716 75.6041H110.297C112.621 75.5718 113.234 75.0223 113.557 74.6991C113.88 74.3435 114.461 73.3738 114.461 70.8202V27.6035C114.461 20.5892 118.431 17.2599 125.048 17.2599C125.081 17.2599 127.082 17.2276 128.534 17.2276C128.534 17.1629 135.894 17.0983 135.894 17.2276V75.6041H139.897C138.767 81.1961 140.187 87.4992 141.381 89.568L137.476 89.7296C135.733 87.7255 134.409 86.4972 133.957 81.0992ZM128.502 75.6041V22.1731C128.212 22.1731 125.048 22.2054 125.016 22.2054C122.595 22.2054 121.885 24.9206 121.885 27.3772V70.8849C121.885 72.6627 121.627 74.2142 121.078 75.5718H128.502V75.6041ZM188.702 17.1306L188.767 53.4301C183.893 56.5332 182.311 56.4685 182.311 50.0361V17.1306H175.242V50.7149C175.242 56.8564 177.631 59.8302 181.214 60.7029C182.634 61.0261 185.152 60.4766 188.638 57.9554V79.6446H195.868V17.1306H188.702ZM7.84327 79.6446C7.22997 84.7194 8.16606 88.0164 9.39266 90.1498L4.74449 90.3114C2.12989 87.3699 0.322266 85.8831 0.322266 73.5677H2.4204C4.03435 73.5677 6.13248 73.3415 6.8749 72.2101C7.13313 71.8223 7.68188 70.7233 7.68188 67.2323V13.3164C7.68188 2.58492 13.9763 0.322266 19.2378 0.322266C19.8511 0.322266 34.6671 0.419237 34.6671 0.419237V6.52841H30.7936V73.5354L37.1203 73.5031C35.7646 80.1618 37.4431 87.6285 38.8957 90.1175L34.2475 90.2791C32.1494 87.8871 30.5677 86.4649 30.0189 79.6123H7.84327V79.6446ZM14.7187 73.5677H22.4334V6.56074H19.0764C17.2687 6.9163 16.7523 7.75671 16.5263 8.07995C16.139 8.72642 15.6871 10.1163 15.6871 13.2194V67.4262C15.6871 69.8505 15.3643 71.8869 14.7187 73.5677ZM163.654 17.1629V79.6769H171.078V17.1629H163.654ZM161.879 70.1091C161.879 76.2506 158.909 79.0951 156.327 79.8385C153.744 80.5497 149.613 79.386 147.03 73.6001C147.159 77.9314 149.903 79.8385 149.903 79.8385H141.252V59.3776V17.2922H148.612V38.9814C152.098 36.4601 154.745 36.5248 156.101 37.0096C158.748 37.8501 161.879 40.1127 161.879 46.2542V70.1091ZM154.616 46.9007C154.616 42.2138 153.325 40.4036 148.451 43.5067L148.547 67.4909C148.87 71.4667 150.904 75.9274 153.454 74.0203C154.099 73.5354 154.584 72.6303 154.584 70.4L154.616 46.9007ZM83.4407 37.9794V50.7149C83.4407 56.8564 81.1812 59.8302 77.5982 60.7029C76.1779 61.0261 73.0791 60.4766 69.6253 57.9554V79.6446H62.4593V32.5813L62.4916 17.1952H71.1424C71.1424 17.1952 69.0443 19.1347 68.3987 23.4337C70.6259 16.775 75.2418 16.4841 77.8887 17.1952C80.5356 17.9064 83.5375 20.7832 83.5375 26.9247C83.5375 26.8923 83.473 37.9794 83.4407 37.9794ZM76.2425 32.5813V26.5691C76.2425 24.3388 75.5969 23.4337 74.9513 22.9488C72.143 20.8801 69.6576 26.3428 69.6576 30.5126L69.6253 37.7208C69.6253 37.7208 69.6253 37.7208 69.593 37.7208L69.5284 53.624C74.4026 56.7271 76.2102 56.5008 76.2102 50.0684V32.5813H76.2425ZM58.6504 61.9959V79.5153H50.6452C50.6452 79.5153 51.8718 78.3193 52.7434 73.9233C49.4509 81.2608 45.9002 80.8729 43.2533 80.1618C40.6065 79.4506 37.6045 76.5738 37.6045 70.4323V61.9635H37.5722L37.6045 46.5775C37.6045 39.5955 40.8001 36.0723 45.997 36.0723C48.418 36.0723 50.4838 38.1087 51.3231 39.5309C51.3231 20.0397 44.9318 20.0397 40.6065 24.9529L38.476 18.2296C38.7665 18.2619 47.4173 14.674 52.582 19.7811C57.0365 24.2095 58.715 31.7086 58.715 40.5006C58.715 49.8098 58.6504 61.9959 58.6504 61.9959ZM51.4845 61.9959L51.4522 49.0017C51.4522 46.5451 50.6129 41.4057 48.1275 41.341C46.3844 41.3087 46.2553 41.6966 45.8034 42.3107C45.3837 42.8602 44.9318 44.0239 44.9318 46.4158L44.8673 58.5049H44.8996L44.8673 70.7556C44.8673 72.9859 45.5129 73.9233 46.1584 74.4081C48.9667 76.4769 51.4199 71.0465 51.4199 66.8767L51.4845 61.9959Z" fill="#FFF9BE"/>
<path d="M108.005 17.1629V79.6769H107.973H102.001H100.807V75.5072C98.3536 78.9011 94.6415 80.2587 92.4142 79.6769C89.7351 78.9658 86.6686 76.089 86.6686 69.9475V58.8605C86.6686 58.8605 86.6686 58.8605 86.7009 58.8605L86.7654 51.6523V17.1952H93.9959L93.9314 59.7332V70.1091C93.9314 70.1737 93.9314 70.2061 93.9314 70.2707C93.9314 72.5011 94.4478 73.4061 95.0934 73.891C96.9656 75.2486 99.3542 73.3738 100.775 70.7233V17.1629H108.005ZM133.957 81.0992H115.461C115.3 86.0447 116.527 88.1457 117.334 89.5356L113.428 89.6973C111.233 87.176 109.619 84.6548 109.716 75.6041H110.297C112.621 75.5718 113.234 75.0223 113.557 74.6991C113.88 74.3435 114.461 73.3738 114.461 70.8202V27.6035C114.461 20.5892 118.431 17.2599 125.048 17.2599C125.081 17.2599 127.082 17.2276 128.534 17.2276C128.534 17.1629 135.894 17.0983 135.894 17.2276V75.6041H139.897C138.767 81.1961 140.187 87.4992 141.381 89.568L137.476 89.7296C135.733 87.7255 134.409 86.4972 133.957 81.0992ZM128.502 75.6041V22.1731C128.212 22.1731 125.048 22.2054 125.016 22.2054C122.595 22.2054 121.885 24.9206 121.885 27.3772V70.8849C121.885 72.6627 121.627 74.2142 121.078 75.5718H128.502V75.6041ZM188.702 17.1306L188.767 53.4301C183.893 56.5332 182.311 56.4685 182.311 50.0361V17.1306H175.242V50.7149C175.242 56.8564 177.631 59.8302 181.214 60.7029C182.634 61.0261 185.152 60.4766 188.638 57.9554V79.6446H195.868V17.1306H188.702ZM7.84327 79.6446C7.22997 84.7194 8.16606 88.0164 9.39266 90.1498L4.74449 90.3114C2.12989 87.3699 0.322266 85.8831 0.322266 73.5677H2.4204C4.03435 73.5677 6.13248 73.3415 6.8749 72.2101C7.13313 71.8223 7.68188 70.7233 7.68188 67.2323V13.3164C7.68188 2.58492 13.9763 0.322266 19.2378 0.322266C19.8511 0.322266 34.6671 0.419237 34.6671 0.419237V6.52841H30.7936V73.5354L37.1203 73.5031C35.7646 80.1618 37.4431 87.6285 38.8957 90.1175L34.2475 90.2791C32.1494 87.8871 30.5677 86.4649 30.0189 79.6123H7.84327V79.6446ZM14.7187 73.5677H22.4334V6.56074H19.0764C17.2687 6.9163 16.7523 7.75671 16.5263 8.07995C16.139 8.72642 15.6871 10.1163 15.6871 13.2194V67.4262C15.6871 69.8505 15.3643 71.8869 14.7187 73.5677ZM163.654 17.1629V79.6769H171.078V17.1629H163.654ZM161.879 70.1091C161.879 76.2506 158.909 79.0951 156.327 79.8385C153.744 80.5497 149.613 79.386 147.03 73.6001C147.159 77.9314 149.903 79.8385 149.903 79.8385H141.252V59.3776V17.2922H148.612V38.9814C152.098 36.4601 154.745 36.5248 156.101 37.0096C158.748 37.8501 161.879 40.1127 161.879 46.2542V70.1091ZM154.616 46.9007C154.616 42.2138 153.325 40.4036 148.451 43.5067L148.547 67.4909C148.87 71.4667 150.904 75.9274 153.454 74.0203C154.099 73.5354 154.584 72.6304 154.584 70.4L154.616 46.9007ZM83.4407 37.9794V50.7149C83.4407 56.8564 81.1812 59.8302 77.5982 60.7029C76.1779 61.0261 73.0791 60.4766 69.6253 57.9554V79.6446H62.4593V32.5813L62.4916 17.1952H71.1424C71.1424 17.1952 69.0442 19.1347 68.3987 23.4337C70.6259 16.775 75.2418 16.4841 77.8887 17.1952C80.5356 17.9064 83.5375 20.7832 83.5375 26.9247C83.5375 26.8923 83.473 37.9794 83.4407 37.9794ZM76.2425 32.5813V26.5691C76.2425 24.3388 75.5969 23.4337 74.9513 22.9488C72.143 20.8801 69.6576 26.3428 69.6576 30.5126L69.6253 37.7208C69.6253 37.7208 69.6253 37.7208 69.593 37.7208L69.5284 53.624C74.4026 56.7271 76.2102 56.5008 76.2102 50.0684V32.5813H76.2425ZM58.6504 61.9959V79.5153H50.6452C50.6452 79.5153 51.8718 78.3193 52.7434 73.9233C49.4509 81.2608 45.9002 80.8729 43.2533 80.1618C40.6065 79.4506 37.6045 76.5738 37.6045 70.4323V61.9635H37.5722L37.6045 46.5775C37.6045 39.5955 40.8001 36.0723 45.997 36.0723C48.418 36.0723 50.4838 38.1087 51.3231 39.5309C51.3231 20.0397 44.9318 20.0397 40.6065 24.9529L38.476 18.2296C38.7665 18.2619 47.4173 14.674 52.582 19.7811C57.0365 24.2095 58.715 31.7086 58.715 40.5006C58.715 49.8098 58.6504 61.9959 58.6504 61.9959ZM51.4845 61.9959L51.4522 49.0017C51.4522 46.5451 50.6129 41.4057 48.1275 41.341C46.3844 41.3087 46.2553 41.6966 45.8034 42.3107C45.3837 42.8602 44.9318 44.0239 44.9318 46.4158L44.8673 58.5049H44.8996L44.8673 70.7556C44.8673 72.9859 45.5129 73.9233 46.1584 74.4082C48.9667 76.4769 51.4199 71.0465 51.4199 66.8767L51.4845 61.9959Z" stroke="#FFF9BE" stroke-width="2.0331" stroke-miterlimit="10" stroke-linecap="round" stroke-linejoin="round"/>
<path d="M71.4975 131.267C70.4 129.553 69.593 129.004 67.8499 129.004H65.9455V142.645H57.4238V107.541H65.9455V120.794H67.7854C69.5285 120.794 70.3354 120.18 71.4329 118.531L78.4375 107.541H87.992L79.4381 121.02C77.5336 123.638 76.4362 124.285 75.7906 124.737C76.5007 125.125 77.5982 125.739 79.5027 128.745L88.3794 142.645H78.7602L71.4975 131.267Z" fill="#FFF9BE"/>
<path d="M111.91 107.541C122.272 107.541 123.983 113.844 123.983 117.077C123.983 121.085 121.884 123.347 119.69 124.446C122.853 125.254 125.048 128.422 125.048 132.366C125.048 137.893 121.949 142.645 111.684 142.645H97.998V107.541H111.91ZM106.52 120.988H112.879C115.396 120.988 115.945 119.242 115.945 118.272C115.945 117.303 115.429 115.557 112.879 115.557H106.52V120.988ZM106.52 134.596H113.492C116.203 134.596 117.043 132.883 117.043 131.428C117.043 130.038 116.139 128.325 113.492 128.325H106.52V134.596Z" fill="#FFF9BE"/>
<path d="M140.671 142.645H131.213L145.545 107.541H150.645L164.783 142.645H155.325L153.518 137.796H142.511L140.671 142.645ZM145.416 129.715H150.516L147.966 122.895L145.416 129.715Z" fill="#FFF9BE"/>
<path d="M199 113.035L193.48 118.142C191.382 116.235 188.735 115.233 185.765 115.233C180.568 115.233 176.437 119.08 176.437 125.124C176.437 131.136 180.536 134.951 185.765 134.951C188.735 134.951 191.382 134.013 193.48 132.106L199 137.213C195.707 140.769 190.994 143.031 185.765 143.031C175.888 143.031 167.947 135.015 167.947 125.124C167.947 115.233 175.92 107.217 185.765 107.217C190.994 107.217 195.707 109.447 199 113.035Z" fill="#FFF9BE"/>
</g>
<defs>
<clipPath id="clip0_377_1081">
<rect width="199" height="143" fill="white"/>
</clipPath>
</defs>
</svg>
