<svg width="288" height="290" viewBox="0 0 288 290" fill="none" xmlns="http://www.w3.org/2000/svg">
<path d="M284.113 180.167C301.854 103.96 254.48 27.7953 178.3 10.0483C102.121 -7.69864 25.9836 39.6926 8.24314 115.9C-9.49738 192.107 37.8767 268.272 114.056 286.018C190.235 303.765 266.373 256.374 284.113 180.167Z" fill="#F18700"/>
<path d="M284.113 180.167C301.854 103.96 254.48 27.7953 178.3 10.0483C102.121 -7.69864 25.9836 39.6926 8.24314 115.9C-9.49738 192.107 37.8767 268.272 114.056 286.018C190.235 303.765 266.373 256.374 284.113 180.167Z" fill="black"/>
<path d="M141.632 283.366C219.853 283.366 283.263 219.932 283.263 141.683C283.263 63.4336 219.853 0 141.632 0C63.4106 0 0 63.4336 0 141.683C0 219.932 63.4106 283.366 141.632 283.366Z" fill="#AF6500"/>
<path d="M49.7367 67.7602C48.7894 67.7602 48.3157 67.7602 47.842 68.234L47.3683 69.1817L52.5788 73.4464L50.2104 76.7634L36.9473 66.3386L39.3157 63.0216L44.5262 66.8124L44.9999 66.3386C45.4736 65.8647 45.4736 65.3909 45.4736 64.4432L43.5788 58.283L46.4209 54.4922L48.7894 61.6C49.2631 63.0216 49.2631 63.4955 49.2631 63.9693C49.7367 63.9693 50.2104 63.4955 52.1052 63.9693L60.1578 64.917L57.3157 68.7079L49.7367 67.7602Z" fill="black"/>
<path d="M54.9468 45.9627C58.7363 42.6458 61.1047 44.0673 62.5257 45.4889C63.9468 46.9105 63.9468 48.332 63.4731 49.2797C64.8942 48.332 66.7889 48.8059 67.7363 50.2275C69.631 52.1229 70.1047 54.966 66.3152 58.283L61.5784 62.5477L50.21 50.2275L54.9468 45.9627ZM57.3152 52.5967L59.6836 50.7013C60.631 49.7536 60.1573 49.2797 59.6836 48.8059C59.21 48.332 58.7363 47.8582 57.7889 48.8059L55.4205 50.7013L57.3152 52.5967ZM61.5784 57.3353L63.9468 54.966C64.8942 54.0183 64.4205 53.0706 64.4205 52.5967C63.9468 52.1229 62.9994 51.649 62.0521 52.5967L59.6836 54.966L61.5784 57.3353Z" fill="black"/>
<path d="M75.7889 50.7014L71.9994 53.0707L68.21 35.0641L70.1047 33.6426L85.2626 44.0674L81.4731 46.4367L79.5784 45.0151L75.3152 47.8583L75.7889 50.7014ZM73.8942 44.0674L75.7889 43.1197L72.9468 41.2243L73.8942 44.0674Z" fill="black"/>
<path d="M92.3685 24.6389L90.9475 28.4297C89.5264 27.9559 88.1054 27.9559 87.158 28.9036C84.7896 29.8513 83.8422 32.6944 85.2632 35.0637C86.6843 37.433 89.0527 38.3807 91.4211 37.433C92.8422 36.9591 93.7896 36.0114 94.2632 34.5899L97.579 35.5376C97.1054 37.9068 95.2106 39.8023 93.3159 40.75C89.0527 42.6454 83.8422 41.2238 81.9475 36.9591C80.0527 32.6944 81.4738 27.482 85.7369 25.5866C87.6317 24.165 90.0001 24.165 92.3685 24.6389Z" fill="black"/>
<path d="M113.685 21.7973C117.474 20.8496 119.842 22.745 120.79 25.5881C121.737 28.9051 120.316 31.2744 116.527 32.2221L108.948 34.1176L105.158 17.5326L116.527 14.6895L117.474 18.4803L110.369 20.3757L110.842 22.2712L113.685 21.7973ZM115.579 28.4313C117 27.9574 117.474 27.4836 117 26.5359C117 25.5881 116.053 25.1143 114.632 25.5881L111.316 26.5359L112.263 29.379L115.579 28.4313Z" fill="black"/>
<path d="M129.316 12.794C134.053 12.3202 137.369 15.1633 137.369 18.4803C137.842 22.2712 135.474 25.5882 130.263 26.062H128.842L129.316 29.8529L125.053 30.3267L123.632 13.7418L129.316 12.794ZM130.263 22.2712C132.158 22.2712 133.579 21.3235 133.579 18.9542C133.579 17.0587 131.684 16.111 129.79 16.5849H127.895L128.369 22.2712H130.263Z" fill="black"/>
<path d="M157.737 21.3226C157.264 26.0612 153.474 29.8521 148.737 29.3782C144 28.9043 140.211 25.1135 140.685 20.3749C141.158 15.6364 144.948 11.8455 149.685 12.3194C154.421 12.7932 158.211 16.5841 157.737 21.3226ZM144.474 20.8488C144.474 23.6919 146.369 25.5873 148.737 26.0612C151.106 26.0612 153.474 24.6396 153.474 21.7965C153.474 18.9534 151.579 17.0579 149.211 16.5841C146.842 16.1102 144.948 18.0056 144.474 20.8488Z" fill="black"/>
<path d="M175.264 28.4298C174.79 27.4821 174.79 27.0082 173.843 27.0082H173.369L171.948 33.1683L168.158 32.2206L169.579 26.0605H169.106C168.158 26.0605 167.685 26.0605 167.211 26.5344L162.474 30.7991L158.211 29.8513L163.895 24.6389C165.316 23.6912 165.79 23.2174 166.264 23.2174C165.79 22.7435 165.79 22.2696 164.843 20.8481L162.474 13.7402L166.737 14.6879L168.632 20.8481C169.106 21.7958 169.106 22.2696 170.053 22.2696H170.527L171.948 16.1095L175.737 17.0572L174.316 23.2174H174.79C175.737 23.2174 176.211 23.2174 176.685 22.7435L181.421 18.4788L185.685 19.4265L180 24.6389C178.579 25.5866 178.106 25.5866 177.632 26.0605C178.106 26.5344 178.106 26.5344 179.053 28.4298L181.421 36.0115L177.158 35.0638L175.264 28.4298Z" fill="black"/>
<path d="M198 32.2205L196.579 35.5375L190.421 33.1682L189.473 35.5375L196.105 38.8545L194.21 42.1715L183.789 37.4329L190.894 22.2695L201.315 27.0081L199.894 30.3251L193.263 27.0081L192.315 29.3774L198 32.2205Z" fill="black"/>
<path d="M205.105 48.807L208.421 43.1207L204.158 40.2776L200.842 45.9639L197.526 43.5946L206.526 29.3789L209.842 31.7482L206.526 37.4345L210.79 40.2776L214.105 34.5913L217.895 36.4867L208.895 50.7024L205.105 48.807Z" fill="black"/>
<path d="M218.842 59.2316L225 52.1237L213.157 54.9669L211.263 53.5453L222.631 40.2773L225.473 43.1205L219.315 50.2283L230.684 47.859L232.578 49.2806L221.21 62.0747L218.842 59.2316Z" fill="black"/>
<path d="M229.737 71.078L232.579 68.7087L232.105 68.2348C231.158 67.2871 230.684 67.2871 228.316 67.2871H226.421L223.579 63.9701L225.948 63.4963C227.842 63.0224 228.79 63.0224 229.737 63.4963C229.263 61.127 229.737 59.2316 231.632 57.81C234.474 55.4407 238.263 55.4407 241.579 59.2316L245.369 63.9701L232.105 74.395L229.737 71.078ZM238.263 61.127C237.316 59.7054 235.421 59.2316 234.474 60.6531C233.053 61.6008 233.053 63.4963 234.474 64.9178L235.895 66.8133L240.158 63.4963L238.263 61.127Z" fill="black"/>
<path d="M32.2102 94.2968C30.3154 93.3491 29.8417 91.4537 30.7891 90.0321C31.7365 88.1367 33.6312 87.6629 35.0523 88.6106C36.947 89.5583 37.4207 91.4537 36.4733 92.8753C35.9996 94.7707 34.1049 95.2446 32.2102 94.2968Z" fill="black"/>
<path d="M26.9999 109.934C25.1051 109.461 24.1578 107.565 24.6315 105.67C25.1051 103.774 26.9999 102.827 28.8946 103.3C30.7893 103.774 31.7367 105.67 31.263 107.565C30.7893 109.461 28.8946 110.408 26.9999 109.934Z" fill="black"/>
<path d="M23.6839 125.572C21.7892 125.098 20.3681 123.676 20.8418 121.781C21.3155 119.885 22.7365 118.464 24.6313 118.938C26.526 119.411 27.9471 120.833 27.4734 122.728C27.4734 124.624 25.5786 126.045 23.6839 125.572Z" fill="black"/>
<path d="M22.7367 141.683C20.842 141.683 19.4209 140.261 19.4209 138.366C19.4209 136.47 20.842 135.049 22.7367 135.049C24.6314 135.049 26.0525 136.47 26.0525 138.366C26.0525 140.261 24.6314 141.683 22.7367 141.683Z" fill="black"/>
<path d="M23.684 157.794C21.7893 157.794 20.3682 156.846 19.8945 154.951C19.8945 153.056 20.8419 151.634 22.7366 151.16C24.6314 151.16 26.0524 152.108 26.5261 154.003C26.9998 156.373 25.5787 157.794 23.684 157.794Z" fill="black"/>
<path d="M27.0001 173.905C25.1053 174.379 23.2106 173.431 22.7369 171.536C22.2632 169.64 23.2106 167.745 25.1053 167.271C27.0001 166.797 28.8948 167.745 29.3685 169.64C29.8422 171.536 28.8948 173.431 27.0001 173.905Z" fill="black"/>
<path d="M34.5785 190.49C35.9996 194.28 35.0522 196.65 31.7364 198.071C28.8943 199.493 26.0522 198.545 24.6312 194.754L21.7891 188.12L37.4206 181.486L42.1575 191.911L37.8943 193.807L35.0522 187.173L33.1575 187.646L34.5785 190.49ZM27.947 193.333C28.4206 194.754 29.368 194.754 30.3154 194.28C31.2627 193.807 31.7364 193.333 30.7891 191.911L29.368 188.594L26.5259 190.016L27.947 193.333Z" fill="black"/>
<path d="M44.0524 208.969L40.7366 210.865L36.9472 205.178L34.5787 206.6L38.3682 212.76L35.0524 214.655L28.8945 204.704L43.1051 195.701L49.2629 205.652L45.9472 207.548L42.6314 201.387L40.263 202.809L44.0524 208.969Z" fill="black"/>
<path d="M40.7366 221.763L37.8945 218.446L55.4208 212.76L56.8419 214.655L48.3156 230.766L45.4735 227.449L50.2103 218.92L40.7366 221.763Z" fill="black"/>
<path d="M68.6845 237.874C65.8424 241.665 60.1582 241.665 56.8424 238.822C53.0529 235.505 53.0529 230.293 55.895 226.502C59.2108 222.711 64.4213 222.711 68.2108 225.554C71.5266 228.871 72.0003 234.083 68.6845 237.874ZM59.2108 229.345C57.3161 231.714 57.7898 234.083 59.6845 235.979C61.5792 237.874 64.4213 237.4 66.3161 235.505C68.2108 233.136 67.7371 230.766 65.8424 228.871C63.474 226.976 61.1056 226.976 59.2108 229.345Z" fill="black"/>
<path d="M81.4732 235.98C85.7363 238.823 86.21 242.614 84.3153 245.457C82.4205 248.3 78.6311 249.722 74.3679 246.879L72.9469 246.405L71.0521 249.722L67.7363 247.352L76.7363 233.137L81.4732 235.98ZM76.7363 244.035C78.1574 244.983 80.0521 244.983 80.9995 243.562C81.9469 242.14 80.9995 240.245 79.5784 239.297L78.1574 238.349L75.3153 243.088L76.7363 244.035Z" fill="black"/>
<path d="M84.3154 256.829L89.9996 252.564L89.0523 240.244L93.3154 242.14L93.7891 249.721L99.947 245.457L104.21 247.352L88.5786 259.198L84.3154 256.829Z" fill="black"/>
<path d="M117.474 253.987L114.158 255.408C113.211 254.461 112.263 253.513 110.842 253.039C108.474 252.565 106.105 253.513 105.158 256.356C104.211 259.199 105.632 261.569 108 262.042C109.421 262.516 110.842 262.516 111.79 261.569L113.684 264.886C111.79 266.307 109.421 266.307 106.579 265.833C101.842 264.412 99.4739 259.673 100.895 255.408C102.316 250.67 107.053 248.301 111.316 249.722C114.158 250.196 116.053 251.618 117.474 253.987Z" fill="black"/>
<path d="M134.053 256.355L131.21 258.251C130.263 257.303 129.316 256.355 127.895 256.355C125.526 255.882 123.158 257.777 122.684 260.62C122.21 263.463 124.105 265.359 126.474 265.833C127.895 265.833 129.316 265.833 130.263 264.885L132.632 267.728C130.737 269.15 128.368 270.097 126 269.623C121.263 269.15 117.947 264.885 118.421 260.146C118.895 255.408 123.158 252.091 127.895 252.565C130.737 253.038 132.632 254.46 134.053 256.355Z" fill="black"/>
<path d="M144.473 264.885C144 263.937 143.526 263.937 142.579 263.937H141.631V270.571H137.368V253.986H141.631V260.146H142.579C143.526 260.146 144 259.673 144.473 259.199L147.789 253.986H152.526L148.737 260.62C147.789 262.042 147.316 262.042 146.842 262.516C147.316 262.516 147.789 262.99 148.737 264.411L153 271.045H148.263L144.473 264.885Z" fill="black"/>
<path d="M167.21 268.203L165.789 259.199L160.579 269.624L158.21 270.098L155.368 253.513L159.631 252.565L161.052 261.569L165.789 251.144L168.158 250.67L171 267.255L167.21 268.203Z" fill="black"/>
<path d="M185.684 262.99L182.842 253.986L179.053 264.885L176.684 265.833L171 249.722L174.789 248.3L177.632 257.303L181.421 246.405L183.789 245.457L189.474 261.568L185.684 262.99ZM172.421 244.035L174.789 243.088C175.263 244.035 175.737 244.035 176.684 244.035C177.632 243.561 177.632 243.088 177.632 242.14L180 241.666C180.947 244.035 179.526 245.931 177.632 246.878C175.263 247.352 173.368 246.405 172.421 244.035Z" fill="black"/>
<path d="M199.895 237.402C204.158 235.033 207.948 235.98 209.842 239.297C211.737 242.614 211.263 246.405 207 248.775L205.579 249.722L207.474 252.565L204.158 254.935L195.158 240.719L199.895 237.402ZM205.106 244.984C206.527 244.036 207.474 242.614 206.527 240.719C205.579 239.297 203.685 239.297 202.263 240.245L200.842 241.667L203.685 246.405L205.106 244.984Z" fill="black"/>
<path d="M221.21 229.82L223.579 232.663L218.368 236.928L220.263 238.823L225.947 234.085L228.316 236.928L219.316 244.036L208.421 231.715L217.421 224.607L219.789 227.451L214.105 232.189L216 234.085L221.21 229.82Z" fill="black"/>
<path d="M242.052 227.449L239.684 225.554L232.105 233.609L219.789 222.237L222.631 219.394L232.105 227.923L235.421 224.132L225.947 215.603L228.789 212.76L238.263 221.289L239.684 219.868L244.894 224.606L242.052 227.449Z" fill="black"/>
<path d="M243 203.283L246.316 205.652L242.527 211.339L244.895 212.76L249.158 206.6L252.474 208.969L245.842 218.446L232.105 208.969L238.737 199.492L242.053 201.861L236.842 207.548L239.211 208.969L243 203.283Z" fill="black"/>
<path d="M258.631 195.701L246.789 190.015L244.42 194.754L256.263 200.44L254.368 204.231L239.21 196.649L244.894 184.803L260.052 192.384L258.631 195.701Z" fill="black"/>
<path d="M264.789 179.59L263.368 183.381L251.052 179.59L249.631 183.855L246.315 182.434L250.105 170.113L253.894 171.535L252.473 175.8L264.789 179.59Z" fill="black"/>
<path d="M260.052 156.371C261.947 156.845 263.368 158.267 262.894 160.162C262.421 162.057 261 163.479 259.105 163.005C257.21 163.005 255.789 161.11 255.789 159.214C256.263 157.793 258.157 156.371 260.052 156.371Z" fill="black"/>
<path d="M260.526 140.26C262.42 140.26 263.842 141.681 263.842 143.577C263.842 145.472 262.42 146.894 260.526 146.894C258.631 146.894 257.21 145.472 257.21 143.577C257.21 142.155 259.105 140.26 260.526 140.26Z" fill="black"/>
<path d="M259.578 124.15C261.473 124.15 262.894 125.098 263.368 126.994C263.368 128.889 262.421 130.311 260.526 130.784C258.631 130.784 257.21 129.837 256.736 127.941C256.263 126.046 257.684 124.624 259.578 124.15Z" fill="black"/>
<path d="M256.263 108.511C258.157 108.038 260.052 108.985 260.526 110.881C261 112.776 260.052 114.672 258.157 115.145C256.263 115.619 254.368 114.672 253.894 112.776C252.947 110.881 254.368 108.985 256.263 108.511Z" fill="black"/>
<path d="M250.579 93.3484C252.474 92.4006 254.368 93.3484 254.842 95.2438C255.316 97.1392 254.842 99.0346 252.947 99.5085C251.053 99.9823 249.158 99.5085 248.684 97.6131C247.737 95.7176 248.684 93.8222 250.579 93.3484Z" fill="black"/>
<path d="M243 78.6594C244.421 77.7117 246.79 78.1855 247.737 80.081C248.684 81.5025 248.211 83.8718 246.316 84.8195C244.895 85.7672 242.527 85.2934 241.579 83.398C240.632 81.9764 241.105 79.6071 243 78.6594Z" fill="black"/>
</svg>
